<svg width="143" height="92" viewBox="0 0 143 92" fill="none" xmlns="http://www.w3.org/2000/svg">
<path d="M74.7958 58.7828L55.6818 76.6621L55.6818 65.2444L67.9968 51.6879C66.9579 41.4201 73.7954 40.3157 77.344 41.0469L73.9452 48.1411L78.1946 52.5754L84.9928 49.0287C85.6733 58.2514 78.4783 59.3742 74.7958 58.7828Z" fill="white"/>
<mask id="path-2-inside-1_15_3" fill="white">
<path d="M86.5587 48.6697C86.3172 47.1978 84.5851 46.6399 83.5866 47.6852L81.2849 50.0946C80.7082 50.6982 78.2744 51.8383 77.6958 51.2365L74.7949 48.1411C74.2164 47.5394 75.7599 45.5507 76.3367 44.947L78.6384 42.5376C79.6432 41.4858 79.0906 39.6854 77.6857 39.4393C74.5949 38.8974 71.4952 39.8456 69.3093 42.1336C67.0579 44.4904 66.1424 47.9593 66.8389 51.34L51.068 67.8487C48.7736 70.2504 48.7797 74.1526 51.0816 76.5471C52.1967 77.7071 53.2912 78.2958 54.8656 78.2933C56.4401 78.2909 58.3058 77.6977 59.4172 76.5342L75.1879 60.0258C78.366 60.7308 81.6797 59.8508 84.0028 57.419C86.1676 55.1529 87.0993 51.9639 86.5587 48.6697ZM82.2516 55.5972C80.3984 57.537 77.6816 58.1189 75.1487 57.3576C74.7159 57.2277 74.2492 57.3536 73.9311 57.6866L57.666 74.7124C57.0208 75.3878 56.1621 75.7605 55.2481 75.762C54.3342 75.7634 53.4743 75.3933 52.8271 74.72C51.4909 73.3299 51.4873 71.0647 52.8192 69.6705L69.0844 52.6445C69.4025 52.3116 69.5217 51.8244 69.3958 51.3729C68.628 48.6233 69.2505 45.8505 71.0607 43.9555C72.2962 42.6622 73.9657 41.9277 75.7803 41.8746L74.5855 43.1253C73.0441 44.7388 71.5488 48.4852 73.0954 50.094L75.9504 53.0639C77.4968 54.6727 81.4948 53.5301 83.0363 51.9165L84.2334 50.6635C84.1922 52.5441 83.5033 54.287 82.2516 55.5972Z"/>
</mask>
<path d="M86.5587 48.6697C86.3172 47.1978 84.5851 46.6399 83.5866 47.6852L81.2849 50.0946C80.7082 50.6982 78.2744 51.8383 77.6958 51.2365L74.7949 48.1411C74.2164 47.5394 75.7599 45.5507 76.3367 44.947L78.6384 42.5376C79.6432 41.4858 79.0906 39.6854 77.6857 39.4393C74.5949 38.8974 71.4952 39.8456 69.3093 42.1336C67.0579 44.4904 66.1424 47.9593 66.8389 51.34L51.068 67.8487C48.7736 70.2504 48.7797 74.1526 51.0816 76.5471C52.1967 77.7071 53.2912 78.2958 54.8656 78.2933C56.4401 78.2909 58.3058 77.6977 59.4172 76.5342L75.1879 60.0258C78.366 60.7308 81.6797 59.8508 84.0028 57.419C86.1676 55.1529 87.0993 51.9639 86.5587 48.6697ZM82.2516 55.5972C80.3984 57.537 77.6816 58.1189 75.1487 57.3576C74.7159 57.2277 74.2492 57.3536 73.9311 57.6866L57.666 74.7124C57.0208 75.3878 56.1621 75.7605 55.2481 75.762C54.3342 75.7634 53.4743 75.3933 52.8271 74.72C51.4909 73.3299 51.4873 71.0647 52.8192 69.6705L69.0844 52.6445C69.4025 52.3116 69.5217 51.8244 69.3958 51.3729C68.628 48.6233 69.2505 45.8505 71.0607 43.9555C72.2962 42.6622 73.9657 41.9277 75.7803 41.8746L74.5855 43.1253C73.0441 44.7388 71.5488 48.4852 73.0954 50.094L75.9504 53.0639C77.4968 54.6727 81.4948 53.5301 83.0363 51.9165L84.2334 50.6635C84.1922 52.5441 83.5033 54.287 82.2516 55.5972Z" fill="white"/>
<path d="M86.5587 48.6697L66.8225 51.9074L66.8227 51.9085L86.5587 48.6697ZM83.5866 47.6852L98.0482 61.5005L98.0492 61.4995L83.5866 47.6852ZM81.2849 50.0946L95.7456 63.9108L95.7465 63.9099L81.2849 50.0946ZM77.6958 51.2365L63.1027 64.9128L63.1899 65.0058L63.2782 65.0977L77.6958 51.2365ZM74.7949 48.1411L89.3881 34.4649L89.3009 34.3719L89.2126 34.28L74.7949 48.1411ZM76.3367 44.947L90.7974 58.7633L90.7982 58.7624L76.3367 44.947ZM78.6384 42.5376L93.1 56.3529L93.1005 56.3524L78.6384 42.5376ZM77.6857 39.4393L74.2322 59.1388L74.2346 59.1393L77.6857 39.4393ZM69.3093 42.1336L54.848 28.3181L54.8477 28.3183L69.3093 42.1336ZM66.8389 51.34L81.3005 65.1553L88.5432 57.5738L86.4275 47.3044L66.8389 51.34ZM51.068 67.8487L65.5296 81.664L65.5296 81.664L51.068 67.8487ZM51.0816 76.5471L36.6631 90.4074L51.0816 76.5471ZM59.4172 76.5342L44.9557 62.7188L44.9552 62.7193L59.4172 76.5342ZM75.1879 60.0258L79.5189 40.5004L68.5134 38.0592L60.7263 46.2105L75.1879 60.0258ZM84.0028 57.419L69.5415 43.6034L69.541 43.6038L84.0028 57.419ZM82.2516 55.5972L96.7129 69.4128L96.7132 69.4126L82.2516 55.5972ZM75.1487 57.3576L80.9049 38.2039L80.8996 38.2023L75.1487 57.3576ZM73.9311 57.6866L88.3927 71.5019L88.3943 71.5002L73.9311 57.6866ZM57.666 74.7124L43.2044 60.8971L43.2044 60.8971L57.666 74.7124ZM52.8271 74.72L67.2464 60.8606L67.2456 60.8597L52.8271 74.72ZM52.8192 69.6705L67.2808 83.4858L67.2808 83.4858L52.8192 69.6705ZM69.0844 52.6445L54.6244 38.8275L54.6228 38.8292L69.0844 52.6445ZM69.3958 51.3729L88.66 45.9981L88.659 45.9944L69.3958 51.3729ZM71.0607 43.9555L56.5991 30.1402L56.5988 30.1405L71.0607 43.9555ZM75.7803 41.8746L90.2419 55.6899L123.9 20.4575L75.1951 21.8832L75.7803 41.8746ZM74.5855 43.1253L89.0468 56.941L89.0471 56.9406L74.5855 43.1253ZM73.0954 50.094L87.5139 36.2338L87.5133 36.2331L73.0954 50.094ZM75.9504 53.0639L90.3689 39.2037L90.3689 39.2037L75.9504 53.0639ZM83.0363 51.9165L97.4976 65.7322L97.4979 65.7319L83.0363 51.9165ZM84.2334 50.6635L104.229 51.1015L105.356 -0.401004L69.7718 36.8482L84.2334 50.6635ZM106.295 45.432C103.546 28.6769 82.2146 20.166 69.124 33.8709L98.0492 61.4995C86.9556 73.1137 69.0883 65.7187 66.8225 51.9074L106.295 45.432ZM69.1251 33.8699L66.8234 36.2792L95.7465 63.9099L98.0482 61.5005L69.1251 33.8699ZM66.8242 36.2783C68.7024 34.3126 70.4534 33.354 70.6198 33.2586C71.1904 32.9317 71.7674 32.6566 72.4046 32.4151C72.8696 32.2389 74.3254 31.7055 76.4394 31.4951C77.5103 31.3886 79.5221 31.2824 82.0109 31.7929C84.531 32.3098 88.5699 33.6895 92.1135 37.3754L63.2782 65.0977C70.2779 72.3784 79.0937 71.4286 80.3998 71.2986C83.1508 71.0249 85.3597 70.2815 86.5775 69.82C87.9676 69.2933 89.2973 68.6576 90.5046 67.9659C91.3076 67.5058 93.5791 66.1784 95.7456 63.9108L66.8242 36.2783ZM92.289 37.5603L89.3881 34.4649L60.2018 61.8174L63.1027 64.9128L92.289 37.5603ZM89.2126 34.28C96.6238 41.9888 94.4377 51.0693 94.0766 52.469C93.4518 54.8909 92.5009 56.468 92.318 56.7752C91.8305 57.5942 91.4006 58.1319 90.7974 58.7633L61.876 31.1308C60.696 32.3658 59.206 34.1997 57.9471 36.3144C57.3786 37.2695 56.1142 39.4943 55.3447 42.4771C54.8389 44.4378 52.6768 53.9926 60.3773 62.0023L89.2126 34.28ZM90.7982 58.7624L93.1 56.3529L64.1768 28.7223L61.8751 31.1317L90.7982 58.7624ZM93.1005 56.3524C104.387 44.5368 99.3562 22.931 81.1368 19.7393L74.2346 59.1393C58.8249 56.4397 54.899 38.4348 64.1764 28.7228L93.1005 56.3524ZM81.1392 19.7397C71.7695 18.0971 61.8551 20.9834 54.848 28.3181L83.7707 55.9492C81.1354 58.7077 77.4204 59.6977 74.2322 59.1388L81.1392 19.7397ZM54.8477 28.3183C47.6795 35.8219 45.3442 46.1236 47.2503 55.3757L86.4275 47.3044C86.9406 49.795 86.4362 53.159 83.7709 55.949L54.8477 28.3183ZM52.3773 37.5247L36.6064 54.0334L65.5296 81.664L81.3005 65.1553L52.3773 37.5247ZM36.6065 54.0333C26.9108 64.1825 26.9359 80.2884 36.6631 90.4074L65.5001 62.6869C70.6235 68.0167 70.6364 76.3183 65.5296 81.664L36.6065 54.0333ZM36.6631 90.4074C40.6146 94.5181 46.6461 98.3061 54.8968 98.2933L54.8345 58.2933C56.7127 58.2904 59.0546 58.6765 61.435 59.8156C63.6504 60.8759 64.9941 62.1606 65.5001 62.6869L36.6631 90.4074ZM54.8968 98.2933C60.2735 98.2849 67.9966 96.5073 73.8793 90.3491L44.9552 62.7193C47.0025 60.5761 49.1107 59.5552 50.4318 59.0709C51.8027 58.5685 53.2605 58.2958 54.8345 58.2933L54.8968 98.2933ZM73.8788 90.3495L89.6495 73.8412L60.7263 46.2105L44.9557 62.7188L73.8788 90.3495ZM70.8569 79.5513C80.4111 81.6705 90.9936 79.0547 98.4646 71.2341L69.541 43.6038C72.3657 40.6469 76.3208 39.791 79.5189 40.5004L70.8569 79.5513ZM98.4641 71.2345C105.286 64.0937 107.775 54.4529 106.295 45.4309L66.8227 51.9085C66.4233 49.4748 67.0491 46.2122 69.5415 43.6034L98.4641 71.2345ZM67.7903 41.7816C71.6436 37.7482 76.9638 37.0195 80.9049 38.2039L69.3924 76.5114C78.3994 79.2182 89.1532 77.3259 96.7129 69.4128L67.7903 41.7816ZM80.8996 38.2023C73.1001 35.8607 64.8662 38.2208 59.468 43.8729L88.3943 71.5002C83.6321 76.4863 76.3316 78.5947 69.3977 76.513L80.8996 38.2023ZM59.4696 43.8712L43.2044 60.8971L72.1275 88.5278L88.3927 71.5019L59.4696 43.8712ZM43.2044 60.8971C46.2324 57.7274 50.5459 55.7692 55.217 55.762L55.2792 95.7619C61.7783 95.7518 67.8091 93.0482 72.1275 88.5278L43.2044 60.8971ZM55.217 55.762C59.8882 55.7547 64.2081 57.6996 67.2464 60.8606L38.4078 88.5794C42.7405 93.0871 48.7802 95.772 55.2792 95.7619L55.217 55.762ZM67.2456 60.8597C73.3347 67.1941 73.3501 77.1326 67.2808 83.4858L38.3577 55.8551C29.6246 64.9967 29.6471 79.4658 38.4086 88.5802L67.2456 60.8597ZM67.2808 83.4858L83.5459 66.4599L54.6228 38.8292L38.3577 55.8551L67.2808 83.4858ZM83.5444 66.4615C88.8465 60.9126 90.6395 53.0928 88.66 45.9981L50.1315 56.7478C48.4039 50.5559 49.9584 43.7106 54.6244 38.8275L83.5444 66.4615ZM88.659 45.9944C89.5841 49.3076 89.0912 54.0348 85.5225 57.7706L56.5988 30.1405C49.4097 37.6662 47.672 47.9389 50.1326 56.7515L88.659 45.9944ZM85.5222 57.7709C83.051 60.3577 79.7013 61.7684 76.3656 61.866L75.1951 21.8832C68.2301 22.0871 61.5415 24.9666 56.5991 30.1402L85.5222 57.7709ZM61.3188 28.0593L60.1239 29.31L89.0471 56.9406L90.2419 55.6899L61.3188 28.0593ZM60.1243 29.3096C56.8405 32.7469 54.5734 37.0903 53.4163 41.2434C52.6299 44.0658 50.1029 55.0357 58.6776 63.9549L87.5133 36.2331C91.1198 39.9845 92.1536 44.2136 92.3814 46.7938C92.6008 49.2772 92.191 51.1093 91.9486 51.9793C91.5378 53.4538 90.7891 55.1172 89.0468 56.941L60.1243 29.3096ZM58.6769 63.9542L61.5319 66.9242L90.3689 39.2037L87.5139 36.2338L58.6769 63.9542ZM61.5319 66.9242C69.7855 75.5102 80.4726 73.9191 83.5418 73.285C87.7088 72.4241 93.1825 70.2489 97.4976 65.7322L68.5751 38.1008C70.1964 36.4037 71.7221 35.5305 72.5284 35.126C73.4404 34.6686 74.3996 34.329 75.4486 34.1123C76.4168 33.9122 78.1899 33.6656 80.5054 34.0184C82.8201 34.3711 86.8436 35.5364 90.3689 39.2037L61.5319 66.9242ZM97.4979 65.7319L98.6949 64.4789L69.7718 36.8482L68.5748 38.1012L97.4979 65.7319ZM64.2381 50.2256C64.2989 47.4525 65.3634 44.322 67.79 41.7819L96.7132 69.4126C101.643 64.252 104.085 57.6356 104.229 51.1015L64.2381 50.2256Z" fill="#033246" mask="url(#path-2-inside-1_15_3)"/>
<path d="M5.24609 87.8945V86.9297H7.73828V89.2109C7.49609 89.4453 7.14453 89.6523 6.68359 89.832C6.22526 90.0091 5.76042 90.0977 5.28906 90.0977C4.6901 90.0977 4.16797 89.9727 3.72266 89.7227C3.27734 89.4701 2.94271 89.1107 2.71875 88.6445C2.49479 88.1758 2.38281 87.6667 2.38281 87.1172C2.38281 86.5208 2.50781 85.9909 2.75781 85.5273C3.00781 85.0638 3.3737 84.7083 3.85547 84.4609C4.22266 84.2708 4.67969 84.1758 5.22656 84.1758C5.9375 84.1758 6.49219 84.3255 6.89062 84.625C7.29167 84.9219 7.54948 85.3333 7.66406 85.8594L6.51562 86.0742C6.4349 85.793 6.28255 85.5716 6.05859 85.4102C5.83724 85.2461 5.5599 85.1641 5.22656 85.1641C4.72135 85.1641 4.31901 85.3242 4.01953 85.6445C3.72266 85.9648 3.57422 86.4401 3.57422 87.0703C3.57422 87.75 3.72526 88.2604 4.02734 88.6016C4.32943 88.9401 4.72526 89.1094 5.21484 89.1094C5.45703 89.1094 5.69922 89.0625 5.94141 88.9688C6.1862 88.8724 6.39583 88.7565 6.57031 88.6211V87.8945H5.24609ZM11.2086 90V84.2734H15.4547V85.2422H12.3648V86.5117H15.2398V87.4766H12.3648V89.0352H15.5641V90H11.2086ZM18.9289 90V84.2734H20.6594L21.6984 88.1797L22.7258 84.2734H24.4602V90H23.3859V85.4922L22.2492 90H21.1359L20.0031 85.4922V90H18.9289ZM27.7273 88.4805L28.7898 88.3516C28.8237 88.6224 28.9148 88.8294 29.0633 88.9727C29.2117 89.1159 29.3914 89.1875 29.6023 89.1875C29.8289 89.1875 30.019 89.1016 30.1727 88.9297C30.3289 88.7578 30.407 88.526 30.407 88.2344C30.407 87.9583 30.3328 87.7396 30.1844 87.5781C30.0359 87.4167 29.8549 87.3359 29.6414 87.3359C29.5008 87.3359 29.3328 87.3633 29.1375 87.418L29.2586 86.5234C29.5555 86.5312 29.782 86.4674 29.9383 86.332C30.0945 86.194 30.1727 86.0117 30.1727 85.7852C30.1727 85.5924 30.1154 85.4388 30.0008 85.3242C29.8862 85.2096 29.7339 85.1523 29.5438 85.1523C29.3563 85.1523 29.1961 85.2174 29.0633 85.3477C28.9305 85.4779 28.8497 85.668 28.8211 85.918L27.8094 85.7461C27.8797 85.3997 27.9852 85.1237 28.1258 84.918C28.269 84.7096 28.4669 84.5469 28.7195 84.4297C28.9747 84.3099 29.2599 84.25 29.575 84.25C30.1141 84.25 30.5464 84.4219 30.8719 84.7656C31.1401 85.0469 31.2742 85.3646 31.2742 85.7188C31.2742 86.2214 30.9995 86.6224 30.45 86.9219C30.7781 86.9922 31.0398 87.1497 31.2352 87.3945C31.4331 87.6393 31.532 87.9349 31.532 88.2812C31.532 88.7839 31.3484 89.2122 30.9813 89.5664C30.6141 89.9206 30.157 90.0977 29.6102 90.0977C29.0919 90.0977 28.6622 89.9492 28.3211 89.6523C27.9799 89.3529 27.782 88.9622 27.7273 88.4805ZM44.3555 90H43.0977L42.5977 88.6992H40.3086L39.8359 90H38.6094L40.8398 84.2734H42.0625L44.3555 90ZM42.2266 87.7344L41.4375 85.6094L40.6641 87.7344H42.2266ZM47.3648 84.2734H48.5211V87.375C48.5211 87.8672 48.5354 88.1862 48.5641 88.332C48.6135 88.5664 48.7307 88.7552 48.9156 88.8984C49.1031 89.0391 49.3583 89.1094 49.6813 89.1094C50.0094 89.1094 50.2568 89.043 50.4234 88.9102C50.5901 88.7747 50.6904 88.6094 50.7242 88.4141C50.7581 88.2188 50.775 87.8945 50.775 87.4414V84.2734H51.9313V87.2812C51.9313 87.9688 51.9 88.4544 51.8375 88.7383C51.775 89.0221 51.6591 89.2617 51.4898 89.457C51.3232 89.6523 51.0992 89.8086 50.818 89.9258C50.5367 90.0404 50.1695 90.0977 49.7164 90.0977C49.1695 90.0977 48.7542 90.0352 48.4703 89.9102C48.1891 89.7826 47.9664 89.6185 47.8023 89.418C47.6383 89.2148 47.5302 89.0026 47.4781 88.7812C47.4026 88.4531 47.3648 87.9688 47.3648 87.3281V84.2734ZM56.843 90V85.2422H55.1437V84.2734H59.6945V85.2422H57.9992V90H56.843ZM62.4617 87.1719C62.4617 86.5885 62.549 86.099 62.7234 85.7031C62.8536 85.4115 63.0307 85.1497 63.2547 84.918C63.4813 84.6862 63.7286 84.5143 63.9969 84.4023C64.3536 84.2513 64.7651 84.1758 65.2313 84.1758C66.075 84.1758 66.7495 84.4375 67.2547 84.9609C67.7625 85.4844 68.0164 86.2122 68.0164 87.1445C68.0164 88.069 67.7651 88.793 67.2625 89.3164C66.7599 89.8372 66.088 90.0977 65.2469 90.0977C64.3953 90.0977 63.7182 89.8385 63.2156 89.3203C62.713 88.7995 62.4617 88.0833 62.4617 87.1719ZM63.6531 87.1328C63.6531 87.7812 63.8029 88.2734 64.1023 88.6094C64.4018 88.9427 64.782 89.1094 65.243 89.1094C65.7039 89.1094 66.0815 88.944 66.3758 88.6133C66.6727 88.2799 66.8211 87.7812 66.8211 87.1172C66.8211 86.4609 66.6766 85.9714 66.3875 85.6484C66.101 85.3255 65.7195 85.1641 65.243 85.1641C64.7664 85.1641 64.3823 85.3281 64.0906 85.6562C63.799 85.9818 63.6531 86.474 63.6531 87.1328ZM75.9492 90V84.2734H77.8047C78.5078 84.2734 78.9661 84.3021 79.1797 84.3594C79.5078 84.4453 79.7826 84.6328 80.0039 84.9219C80.2253 85.2083 80.3359 85.5794 80.3359 86.0352C80.3359 86.3867 80.2721 86.6823 80.1445 86.9219C80.0169 87.1615 79.8542 87.3503 79.6562 87.4883C79.4609 87.6237 79.2617 87.7135 79.0586 87.7578C78.7826 87.8125 78.3828 87.8398 77.8594 87.8398H77.1055V90H75.9492ZM77.1055 85.2422V86.8672H77.7383C78.194 86.8672 78.4987 86.8372 78.6523 86.7773C78.806 86.7174 78.9258 86.6237 79.0117 86.4961C79.1003 86.3685 79.1445 86.2201 79.1445 86.0508C79.1445 85.8424 79.0833 85.6706 78.9609 85.5352C78.8385 85.3997 78.6836 85.3151 78.4961 85.2812C78.3581 85.2552 78.0807 85.2422 77.6641 85.2422H77.1055ZM88.2555 90H86.9977L86.4977 88.6992H84.2086L83.7359 90H82.5094L84.7398 84.2734H85.9625L88.2555 90ZM86.1266 87.7344L85.3375 85.6094L84.5641 87.7344H86.1266ZM91.2766 90V84.2734H93.7102C94.3221 84.2734 94.7661 84.3255 95.0422 84.4297C95.3208 84.5312 95.5435 84.7135 95.7102 84.9766C95.8768 85.2396 95.9602 85.5404 95.9602 85.8789C95.9602 86.3086 95.8339 86.6641 95.5813 86.9453C95.3286 87.224 94.951 87.3997 94.4484 87.4727C94.6984 87.6185 94.9042 87.7786 95.0656 87.9531C95.2297 88.1276 95.4497 88.4375 95.7258 88.8828L96.425 90H95.0422L94.2063 88.7539C93.9094 88.3086 93.7063 88.0286 93.5969 87.9141C93.4875 87.7969 93.3716 87.7174 93.2492 87.6758C93.1268 87.6315 92.9328 87.6094 92.6672 87.6094H92.4328V90H91.2766ZM92.4328 86.6953H93.2883C93.843 86.6953 94.1893 86.6719 94.3273 86.625C94.4654 86.5781 94.5734 86.4974 94.6516 86.3828C94.7297 86.2682 94.7688 86.125 94.7688 85.9531C94.7688 85.7604 94.7167 85.6055 94.6125 85.4883C94.5109 85.3685 94.3664 85.293 94.1789 85.2617C94.0852 85.2487 93.8039 85.2422 93.3352 85.2422H92.4328V86.6953ZM100.743 90V85.2422H99.0438V84.2734H103.595V85.2422H101.899V90H100.743ZM106.452 88.1367L107.577 88.0273C107.644 88.4049 107.781 88.6823 107.987 88.8594C108.195 89.0365 108.475 89.125 108.827 89.125C109.199 89.125 109.479 89.0469 109.666 88.8906C109.857 88.7318 109.952 88.5469 109.952 88.3359C109.952 88.2005 109.911 88.0859 109.83 87.9922C109.752 87.8958 109.614 87.8125 109.416 87.7422C109.281 87.6953 108.972 87.612 108.491 87.4922C107.871 87.3385 107.436 87.1497 107.186 86.9258C106.834 86.6107 106.659 86.2266 106.659 85.7734C106.659 85.4818 106.741 85.2096 106.905 84.957C107.071 84.7018 107.31 84.5078 107.62 84.375C107.932 84.2422 108.308 84.1758 108.748 84.1758C109.467 84.1758 110.008 84.3333 110.37 84.6484C110.734 84.9635 110.926 85.3841 110.944 85.9102L109.787 85.9609C109.738 85.6667 109.631 85.4557 109.467 85.3281C109.306 85.1979 109.062 85.1328 108.737 85.1328C108.401 85.1328 108.138 85.2018 107.948 85.3398C107.825 85.4284 107.764 85.5469 107.764 85.6953C107.764 85.8307 107.821 85.9466 107.936 86.043C108.082 86.1654 108.436 86.293 108.998 86.4258C109.561 86.5586 109.976 86.6966 110.245 86.8398C110.515 86.9805 110.726 87.1745 110.877 87.4219C111.031 87.6667 111.108 87.9701 111.108 88.332C111.108 88.6602 111.017 88.9674 110.834 89.2539C110.652 89.5404 110.394 89.7539 110.061 89.8945C109.728 90.0326 109.312 90.1016 108.815 90.1016C108.091 90.1016 107.535 89.9349 107.147 89.6016C106.759 89.2656 106.527 88.7773 106.452 88.1367ZM119.138 90V84.3203H120.295V89.0352H123.17V90H119.138ZM126.429 90V84.3203H127.585V89.0352H130.46V90H126.429ZM137.352 87.8945L138.473 88.25C138.302 88.875 138.015 89.3398 137.614 89.6445C137.216 89.9466 136.709 90.0977 136.095 90.0977C135.334 90.0977 134.709 89.8385 134.22 89.3203C133.73 88.7995 133.485 88.0885 133.485 87.1875C133.485 86.2344 133.731 85.4948 134.223 84.9688C134.716 84.4401 135.363 84.1758 136.165 84.1758C136.865 84.1758 137.434 84.3828 137.872 84.7969C138.132 85.0417 138.328 85.3932 138.458 85.8516L137.313 86.125C137.246 85.8281 137.104 85.5938 136.887 85.4219C136.674 85.25 136.414 85.1641 136.106 85.1641C135.682 85.1641 135.337 85.3164 135.071 85.6211C134.808 85.9258 134.677 86.4193 134.677 87.1016C134.677 87.8255 134.807 88.3411 135.067 88.6484C135.328 88.9557 135.666 89.1094 136.083 89.1094C136.39 89.1094 136.654 89.0117 136.876 88.8164C137.097 88.6211 137.256 88.3138 137.352 87.8945Z" fill="#033246"/>
<rect y="80" width="139" height="2" fill="#03A9F4"/>
<path d="M47.9921 53.8266V53.3266H47.4921H33.3121V42.9089H56.7788V48.9333V70.1378V77.7933H0.68988V13.5489H65.9783L57.0488 23.9667H13.2388H12.7388V24.4667V66.8755V67.3755H13.2388H47.4921H47.9921V66.8755V53.8266Z" fill="#033246" stroke="#033246"/>
<path d="M73.2558 77.7933H55.4493L63.3781 71.4921H73.1097C73.75 71.4921 74.3946 71.3839 75.0027 71.1433C83.0608 67.9561 89.4322 61.7127 89.4322 51.279C89.4322 47.5035 87.7658 41.6705 82.7981 37.0762C77.9742 32.615 70.0928 29.3713 57.7472 30.2391L76.0299 9.26077L76.7519 8.43227H75.653H51.2543V2.1311H91.1154L71.1346 23.9268L70.6256 24.4821L71.3349 24.7355C80.2088 27.9069 95.0894 34.1384 95.9024 51.3027C96.4192 62.2142 88.1861 73.2047 74.5458 77.5973C74.1342 77.7299 73.6972 77.7933 73.2558 77.7933Z" fill="#033246" stroke="#033246"/>
<path d="M120.892 28.3502L115.999 33.3601L114.368 32.5251H109.474V36.7H102.95L102.134 33.3601L99.6877 31.6901L96.4255 33.3601L91.5321 28.3502L93.9788 25.8453L92.3477 22.5054H88.2699V14.9907H92.3477L93.1632 11.6508L91.5321 9.14586L95.6099 4.971L98.8721 6.64094L102.95 4.971V1.6311H109.474V4.971L113.552 6.64094L115.999 4.971L120.892 9.98084L118.445 11.6508L120.077 15.8256H123.339V22.5054H120.077L118.445 25.8453L120.892 28.3502Z" fill="white" stroke="#033246"/>
<path d="M106.277 27.7288C110.784 27.7288 114.438 24.0774 114.438 19.5732C114.438 15.069 110.784 11.4177 106.277 11.4177C101.77 11.4177 98.1166 15.069 98.1166 19.5732C98.1166 24.0774 101.77 27.7288 106.277 27.7288Z" fill="white" stroke="#033246" stroke-width="2" stroke-linecap="round" stroke-linejoin="round"/>
<path d="M124.208 14.4913H121.155C120.907 13.91 120.739 13.4095 120.492 12.9089L122.634 10.7453C123.201 10.1722 123.369 9.15494 122.634 8.41221L117.519 3.2454C116.855 2.57533 115.872 2.57533 115.209 3.2454L113.067 5.409C112.571 5.15874 111.996 4.90847 111.5 4.73893V1.66307C111.5 0.750802 110.757 0 109.854 0H102.685C101.782 0 101.038 0.750802 101.038 1.66307V4.3272C100.463 4.57747 99.9672 4.74701 99.4717 4.99727L97.3298 2.83367C96.6664 2.1636 95.6833 2.1636 95.02 2.83367L89.9048 8.00048C89.2415 8.67055 89.2415 9.66355 89.9048 10.3336L92.0468 12.4972C91.799 12.9978 91.5513 13.579 91.3834 14.0796H88.3383C87.4352 14.0796 86.6919 14.8304 86.6919 15.7426V22.9842C86.6919 23.8965 87.4352 24.6473 88.3383 24.6473H91.2236C91.4713 25.2286 91.6392 25.7291 91.8869 26.2296L89.745 28.3932C89.0816 29.0633 89.0816 30.0563 89.745 30.7264L94.8601 35.8932C95.8032 36.8458 96.8422 36.2242 97.1699 35.8932L99.3119 33.7296C99.8074 33.9798 100.383 34.2301 100.878 34.3997V37.4836C100.878 38.3959 101.622 39.1467 102.525 39.1467H109.694C110.517 39.1467 111.26 38.3959 111.508 37.8953V34.8114C112.084 34.5611 112.579 34.3916 113.075 34.1413L115.217 36.3049C115.88 36.8862 116.951 36.8862 117.527 36.3049L122.642 31.1381C123.305 30.468 123.305 29.475 122.642 28.805L120.5 26.6414C120.747 26.1408 120.995 25.5596 121.163 25.059H124.216C125.119 25.059 125.863 24.3082 125.863 23.396V16.1544C125.855 15.2421 125.111 14.4913 124.208 14.4913ZM122.226 21.5714H119.668C118.925 21.5714 118.27 22.072 118.102 22.8228C117.854 23.9046 117.439 24.9056 116.863 25.9067C116.448 26.5768 116.615 27.4083 117.111 27.9088L118.925 29.7414L116.12 32.5751L114.306 30.7425C113.73 30.242 112.987 30.1612 112.323 30.4922C111.42 30.9928 110.341 31.4933 109.27 31.7436C108.527 31.9131 108.032 32.5751 108.032 33.3259V35.9093H104.075V33.3259C104.075 32.5751 103.58 31.9131 102.837 31.7436C101.766 31.4933 100.774 31.0735 99.7834 30.4922C99.1201 30.0724 98.2968 30.242 97.8013 30.7425L95.987 32.5751L93.1817 29.7414L94.996 27.9088C95.4915 27.3276 95.5714 26.5768 95.2437 25.9067C94.7482 24.9944 94.2527 23.9046 94.0049 22.8228C93.8371 22.072 93.1817 21.5714 92.4384 21.5714H89.8809V17.5752H92.4384C93.1817 17.5752 93.8371 17.0747 94.0049 16.3239C94.2527 15.2421 94.6683 14.241 95.2437 13.24C95.6593 12.5699 95.4915 11.7383 94.996 11.2378L93.1817 9.40521L95.987 6.57154L97.8013 8.40414C98.3768 8.90467 99.1201 8.9854 99.7834 8.65441C100.687 8.15387 101.766 7.65334 102.837 7.40307C103.58 7.23353 104.075 6.57154 104.075 5.82073V3.23733H108.032V5.82073C108.032 6.57154 108.527 7.23353 109.27 7.40307C110.341 7.65334 111.332 8.07314 112.323 8.65441C112.987 9.07421 113.81 8.90467 114.306 8.40414L116.12 6.57154L118.925 9.40521L117.111 11.2378C116.615 11.8191 116.535 12.5699 116.863 13.24C117.359 14.1522 117.854 15.2421 118.102 16.3239C118.27 17.0747 118.925 17.5752 119.668 17.5752H122.226V21.5714Z" fill="#033246"/>
<path d="M83.9 76H139V78H82L83.9 76Z" fill="#03A9F4"/>
<path d="M87.9273 72H139V74H86L87.9273 72Z" fill="#03A9F4"/>
<path d="M91.96 68H139V70H90L91.96 68Z" fill="#03A9F4"/>
</svg>
