<svg width="130" height="84" viewBox="0 0 130 84" fill="none" xmlns="http://www.w3.org/2000/svg">
<path d="M67.0583 52.4118L52.2215 66.2902L52.2215 57.4275L61.7807 46.9046C60.9743 38.9345 66.2817 38.0772 69.0362 38.6448L66.398 44.1515L69.6965 47.5935L74.9734 44.8405C75.5016 51.9994 69.9167 52.8709 67.0583 52.4118Z" fill="#033246"/>
<mask id="path-2-inside-1_15_2" fill="white">
<path d="M76.1889 44.5618C76.0015 43.4192 74.657 42.9862 73.8819 43.7976L72.0953 45.6678C71.6476 46.1363 69.7584 47.0213 69.3094 46.5542L67.0576 44.1515C66.6085 43.6844 67.8067 42.1407 68.2543 41.6722L70.041 39.8019C70.8209 38.9855 70.392 37.5879 69.3015 37.3969C66.9024 36.9763 64.4963 37.7123 62.7995 39.4883C61.0519 41.3177 60.3413 44.0104 60.882 46.6345L48.6402 59.449C46.8593 61.3132 46.864 64.3422 48.6507 66.2009C49.5163 67.1013 50.3659 67.5582 51.588 67.5563C52.8102 67.5544 54.2583 67.094 55.1211 66.1909L67.3626 53.3767C69.8296 53.9239 72.4017 53.2408 74.205 51.3532C75.8854 49.5942 76.6086 47.1188 76.1889 44.5618ZM72.8457 49.9391C71.4071 51.4448 69.2983 51.8964 67.3322 51.3056C66.9962 51.2047 66.634 51.3024 66.3871 51.5609L53.7617 64.7768C53.2609 65.301 52.5943 65.5903 51.8849 65.5914C51.1755 65.5925 50.508 65.3053 50.0057 64.7826C48.9684 63.7036 48.9657 61.9453 49.9996 60.8631L62.6249 47.6471C62.8719 47.3887 62.9644 47.0105 62.8667 46.6601C62.2707 44.5257 62.7539 42.3734 64.159 40.9025C65.1181 39.8986 66.4139 39.3285 67.8225 39.2873L66.8951 40.2581C65.6986 41.5105 64.5379 44.4185 65.7384 45.6674L67.9545 47.9727C69.1549 49.2214 72.2582 48.3346 73.4548 47.082L74.3839 46.1094C74.352 47.5692 73.8172 48.922 72.8457 49.9391Z"/>
</mask>
<path d="M76.1889 44.5618C76.0015 43.4192 74.657 42.9862 73.8819 43.7976L72.0953 45.6678C71.6476 46.1363 69.7584 47.0213 69.3094 46.5542L67.0576 44.1515C66.6085 43.6844 67.8067 42.1407 68.2543 41.6722L70.041 39.8019C70.8209 38.9855 70.392 37.5879 69.3015 37.3969C66.9024 36.9763 64.4963 37.7123 62.7995 39.4883C61.0519 41.3177 60.3413 44.0104 60.882 46.6345L48.6402 59.449C46.8593 61.3132 46.864 64.3422 48.6507 66.2009C49.5163 67.1013 50.3659 67.5582 51.588 67.5563C52.8102 67.5544 54.2583 67.094 55.1211 66.1909L67.3626 53.3767C69.8296 53.9239 72.4017 53.2408 74.205 51.3532C75.8854 49.5942 76.6086 47.1188 76.1889 44.5618ZM72.8457 49.9391C71.4071 51.4448 69.2983 51.8964 67.3322 51.3056C66.9962 51.2047 66.634 51.3024 66.3871 51.5609L53.7617 64.7768C53.2609 65.301 52.5943 65.5903 51.8849 65.5914C51.1755 65.5925 50.508 65.3053 50.0057 64.7826C48.9684 63.7036 48.9657 61.9453 49.9996 60.8631L62.6249 47.6471C62.8719 47.3887 62.9644 47.0105 62.8667 46.6601C62.2707 44.5257 62.7539 42.3734 64.159 40.9025C65.1181 39.8986 66.4139 39.3285 67.8225 39.2873L66.8951 40.2581C65.6986 41.5105 64.5379 44.4185 65.7384 45.6674L67.9545 47.9727C69.1549 49.2214 72.2582 48.3346 73.4548 47.082L74.3839 46.1094C74.352 47.5692 73.8172 48.922 72.8457 49.9391Z" fill="white"/>
<path d="M76.1889 44.5618L56.4527 47.7995L56.4529 47.8005L76.1889 44.5618ZM73.8819 43.7976L88.3435 57.6129L88.3445 57.6119L73.8819 43.7976ZM72.0953 45.6678L86.556 59.484L86.5569 59.4831L72.0953 45.6678ZM69.3094 46.5542L54.7162 60.2304L54.8034 60.3235L54.8917 60.4154L69.3094 46.5542ZM67.0576 44.1515L81.6508 30.4753L81.5636 30.3823L81.4752 30.2904L67.0576 44.1515ZM68.2543 41.6722L82.715 55.4884L82.7159 55.4875L68.2543 41.6722ZM70.041 39.8019L84.5026 53.6172L84.5031 53.6167L70.041 39.8019ZM69.3015 37.3969L65.848 57.0965L65.8504 57.0969L69.3015 37.3969ZM62.7995 39.4883L48.3382 25.6728L48.338 25.673L62.7995 39.4883ZM60.882 46.6345L75.3436 60.4499L82.5863 52.8683L80.4706 42.5989L60.882 46.6345ZM48.6402 59.449L63.1018 73.2643L63.1018 73.2643L48.6402 59.449ZM48.6507 66.2009L34.2322 80.0611L48.6507 66.2009ZM55.1211 66.1909L40.6595 52.3755L40.6591 52.376L55.1211 66.1909ZM67.3626 53.3767L71.6937 33.8513L60.6881 31.4101L52.9011 39.5613L67.3626 53.3767ZM74.205 51.3532L59.7436 37.5376L59.7432 37.538L74.205 51.3532ZM72.8457 49.9391L87.307 63.7547L87.3072 63.7544L72.8457 49.9391ZM67.3322 51.3056L73.0885 32.1518L73.0832 32.1503L67.3322 51.3056ZM66.3871 51.5609L80.8486 65.3763L80.8503 65.3746L66.3871 51.5609ZM53.7617 64.7768L39.3002 50.9614L39.3001 50.9614L53.7617 64.7768ZM50.0057 64.7826L64.4249 50.9232L64.4242 50.9224L50.0057 64.7826ZM49.9996 60.8631L64.4611 74.6784L64.4611 74.6784L49.9996 60.8631ZM62.6249 47.6471L48.165 33.8301L48.1634 33.8318L62.6249 47.6471ZM62.8667 46.6601L82.1309 41.2852L82.1299 41.2816L62.8667 46.6601ZM64.159 40.9025L49.6974 27.0872L49.6971 27.0875L64.159 40.9025ZM67.8225 39.2873L82.2841 53.1026L115.942 17.8701L67.2373 19.2958L67.8225 39.2873ZM66.8951 40.2581L81.3563 54.0738L81.3567 54.0734L66.8951 40.2581ZM65.7384 45.6674L80.1569 31.8071L80.1563 31.8064L65.7384 45.6674ZM67.9545 47.9727L82.373 34.1125L82.373 34.1125L67.9545 47.9727ZM73.4548 47.082L87.916 60.8977L87.9164 60.8974L73.4548 47.082ZM74.3839 46.1094L94.3791 46.5474L95.5071 -4.9551L59.9224 32.2941L74.3839 46.1094ZM95.9251 41.3241C93.2305 24.8983 72.2865 16.5123 59.4194 29.9833L88.3445 57.6119C77.0274 69.46 58.7725 61.9401 56.4527 47.7995L95.9251 41.3241ZM59.4204 29.9822L57.6337 31.8524L86.5569 59.4831L88.3435 57.6129L59.4204 29.9822ZM57.6346 31.8515C59.545 29.852 61.3543 28.8521 61.5919 28.716C62.2338 28.3483 62.8949 28.0328 63.6164 27.7594C64.1656 27.5513 65.7057 26.9944 67.8909 26.7769C68.9975 26.6668 71.0417 26.5612 73.5581 27.0773C76.1057 27.5999 80.1672 28.9904 83.727 32.6931L54.8917 60.4154C61.8591 67.6624 70.6165 66.7033 71.8514 66.5804C74.5311 66.3138 76.6557 65.5939 77.7893 65.1644C79.0952 64.6696 80.3407 64.0742 81.4767 63.4233C82.2085 63.004 84.4218 61.7178 86.556 59.484L57.6346 31.8515ZM83.9025 32.878L81.6508 30.4753L52.4645 57.8277L54.7162 60.2304L83.9025 32.878ZM81.4752 30.2904C88.9189 38.0328 86.7354 47.1664 86.3582 48.6289C85.7172 51.1135 84.7312 52.7631 84.5052 53.1427C83.9313 54.1067 83.3828 54.7895 82.715 55.4884L53.7936 27.8559C52.6782 29.0234 51.3068 30.7123 50.1342 32.682C49.6088 33.5646 48.3795 35.7169 47.6262 38.637C47.1366 40.5349 44.9718 50.0366 52.64 58.0126L81.4752 30.2904ZM82.7159 55.4875L84.5026 53.6172L55.5794 25.9866L53.7928 27.8568L82.7159 55.4875ZM84.5031 53.6167C95.5651 42.0365 90.6577 20.8336 72.7526 17.6969L65.8504 57.0969C50.1263 54.3423 46.0768 35.9344 55.579 25.9871L84.5031 53.6167ZM72.755 17.6973C64.077 16.176 54.8562 18.8501 48.3382 25.6728L77.2609 53.3039C74.1364 56.5744 69.7278 57.7766 65.848 57.0965L72.755 17.6973ZM48.338 25.673C41.6735 32.6492 39.5431 42.1747 41.2934 50.6702L80.4706 42.5989C81.1395 45.846 80.4303 49.9863 77.2611 53.3037L48.338 25.673ZM46.4204 32.8192L34.1786 45.6336L63.1018 73.2643L75.3436 60.4499L46.4204 32.8192ZM34.1787 45.6336C24.9965 55.2453 25.0202 70.478 34.2322 80.0611L63.0692 52.3407C68.7078 58.2063 68.722 67.3812 63.1018 73.2643L34.1787 45.6336ZM34.2322 80.0611C37.9343 83.9123 43.7208 87.5686 51.6192 87.5563L51.5569 47.5564C53.6112 47.5532 56.1025 47.972 58.6193 49.1765C60.9712 50.302 62.4385 51.6846 63.0692 52.3407L34.2322 80.0611ZM51.6192 87.5563C56.6436 87.5485 63.9492 85.9036 69.5831 80.0057L40.6591 52.376C42.8307 50.1026 45.1055 48.9834 46.6061 48.4333C48.1564 47.8651 49.8067 47.5591 51.5569 47.5564L51.6192 87.5563ZM69.5827 80.0062L81.8242 67.192L52.9011 39.5613L40.6595 52.3755L69.5827 80.0062ZM63.0316 72.9021C71.8747 74.8636 81.7157 72.4447 88.6668 65.1683L59.7432 37.538C63.0877 34.0369 67.7844 32.9841 71.6937 33.8513L63.0316 72.9021ZM88.6663 65.1687C95.0039 58.535 97.2845 49.6078 95.9249 41.323L56.4529 47.8005C55.9326 44.6297 56.7669 40.6535 59.7436 37.5376L88.6663 65.1687ZM58.3843 36.1235C62.6523 31.656 68.5805 30.7971 73.0885 32.1518L61.576 70.4593C70.0161 72.9958 80.1619 71.2336 87.307 63.7547L58.3843 36.1235ZM73.0832 32.1503C65.3805 29.8377 57.251 32.1697 51.924 37.7472L80.8503 65.3746C76.017 70.4351 68.612 72.5717 61.5813 70.4609L73.0832 32.1503ZM51.9256 37.7455L39.3002 50.9614L68.2233 78.5922L80.8486 65.3763L51.9256 37.7455ZM39.3001 50.9614C42.4725 47.6406 46.9781 45.599 51.8538 45.5915L51.916 85.5914C58.2105 85.5816 64.0492 82.9614 68.2233 78.5921L39.3001 50.9614ZM51.8538 45.5915C56.7295 45.5839 61.2419 47.6115 64.4249 50.9232L35.5864 78.642C39.7742 82.9991 45.6215 85.6012 51.916 85.5914L51.8538 45.5915ZM64.4242 50.9224C70.8122 57.5678 70.8285 68.0132 64.4611 74.6784L35.538 47.0477C27.1029 55.8774 27.1247 69.8395 35.5872 78.6428L64.4242 50.9224ZM64.4611 74.6784L77.0865 61.4625L48.1634 33.8318L35.538 47.0477L64.4611 74.6784ZM77.0849 61.4641C82.3159 55.9897 84.0822 48.279 82.1309 41.2852L43.6024 52.0349C41.8467 45.742 43.4278 38.7877 48.165 33.8301L77.0849 61.4641ZM82.1299 41.2816C83.2268 45.2101 82.5946 50.5577 78.6208 54.7176L49.6971 27.0875C42.9131 34.1891 41.3147 43.8414 43.6035 52.0386L82.1299 41.2816ZM78.6206 54.7179C75.8728 57.5941 72.1495 59.1692 68.4077 59.2787L67.2373 19.2958C60.6783 19.4878 54.3633 22.2031 49.6974 27.0872L78.6206 54.7179ZM53.3609 25.4719L52.4335 26.4428L81.3567 54.0734L82.2841 53.1026L53.3609 25.4719ZM52.4338 26.4424C49.3225 29.6991 47.2253 33.7427 46.1517 37.5961C45.4488 40.1187 42.919 50.7891 51.3206 59.5283L80.1563 31.8064C83.8493 35.6478 84.9271 39.9969 85.1669 42.7119C85.3981 45.3302 84.9682 47.3121 84.684 48.332C84.1897 50.1062 83.2711 52.0695 81.3563 54.0738L52.4338 26.4424ZM51.3199 59.5276L53.536 61.8329L82.373 34.1125L80.1569 31.8071L51.3199 59.5276ZM53.536 61.8329C61.6165 70.2389 71.9935 68.6218 74.7527 68.0517C78.6096 67.2548 83.7734 65.2339 87.916 60.8977L58.9936 33.2664C60.7011 31.479 62.3474 30.5221 63.2915 30.0485C64.3413 29.5219 65.4554 29.1277 66.6594 28.879C67.7827 28.6469 69.7108 28.3908 72.1643 28.7646C74.617 29.1383 78.7612 30.3551 82.373 34.1125L53.536 61.8329ZM87.9164 60.8974L88.8455 59.9248L59.9224 32.2941L58.9932 33.2667L87.9164 60.8974ZM54.3887 45.6715C54.4587 42.4776 55.6774 38.957 58.3841 36.1237L87.3072 63.7544C91.9571 58.8871 94.2453 52.6607 94.3791 46.5474L54.3887 45.6715Z" fill="white" mask="url(#path-2-inside-1_15_2)"/>
<path d="M13.0276 75.6044V74.8687H14.9279V76.6081C14.7432 76.7868 14.4751 76.9447 14.1237 77.0817C13.7742 77.2167 13.4197 77.2842 13.0603 77.2842C12.6036 77.2842 12.2055 77.1889 11.866 76.9983C11.5264 76.8057 11.2712 76.5317 11.1005 76.1762C10.9297 75.8188 10.8443 75.4306 10.8443 75.0116C10.8443 74.5569 10.9396 74.1528 11.1303 73.7994C11.3209 73.4459 11.5999 73.1749 11.9672 72.9862C12.2472 72.8413 12.5957 72.7688 13.0127 72.7688C13.5548 72.7688 13.9777 72.883 14.2815 73.1113C14.5873 73.3377 14.7839 73.6514 14.8713 74.0526L13.9956 74.2164C13.934 74.0019 13.8179 73.8331 13.6471 73.71C13.4783 73.5849 13.2668 73.5224 13.0127 73.5224C12.6275 73.5224 12.3207 73.6445 12.0923 73.8887C11.866 74.133 11.7528 74.4954 11.7528 74.9759C11.7528 75.4942 11.8679 75.8833 12.0983 76.1435C12.3286 76.4016 12.6304 76.5307 13.0037 76.5307C13.1884 76.5307 13.3731 76.4949 13.5578 76.4234C13.7444 76.35 13.9043 76.2616 14.0373 76.1584V75.6044H13.0276ZM17.574 77.2098V72.8433H20.8116V73.5819H18.4556V74.55H20.6478V75.2857H18.4556V76.4741H20.895V77.2098H17.574ZM23.4607 77.2098V72.8433H24.7802L25.5725 75.8218L26.3558 72.8433H27.6783V77.2098H26.8592V73.7726L25.9925 77.2098H25.1436L24.2798 73.7726V77.2098H23.4607ZM30.1695 76.0511L30.9797 75.9528C31.0055 76.1594 31.075 76.3172 31.1882 76.4264C31.3014 76.5356 31.4384 76.5902 31.5992 76.5902C31.772 76.5902 31.9169 76.5247 32.0341 76.3937C32.1532 76.2626 32.2128 76.0859 32.2128 75.8635C32.2128 75.653 32.1562 75.4862 32.043 75.3631C31.9298 75.24 31.7918 75.1784 31.629 75.1784C31.5218 75.1784 31.3937 75.1993 31.2448 75.241L31.3371 74.5589C31.5635 74.5649 31.7362 74.5162 31.8554 74.413C31.9745 74.3077 32.0341 74.1687 32.0341 73.996C32.0341 73.849 31.9904 73.7319 31.903 73.6445C31.8157 73.5571 31.6995 73.5134 31.5545 73.5134C31.4116 73.5134 31.2894 73.5631 31.1882 73.6624C31.0869 73.7616 31.0254 73.9066 31.0035 74.0972L30.2321 73.9662C30.2857 73.7021 30.3661 73.4916 30.4733 73.3347C30.5825 73.1759 30.7335 73.0518 30.9261 72.9624C31.1207 72.8711 31.3381 72.8254 31.5784 72.8254C31.9894 72.8254 32.319 72.9565 32.5672 73.2186C32.7718 73.433 32.874 73.6753 32.874 73.9453C32.874 74.3286 32.6645 74.6344 32.2456 74.8627C32.4957 74.9163 32.6953 75.0365 32.8442 75.2231C32.9951 75.4098 33.0706 75.6351 33.0706 75.8992C33.0706 76.2825 32.9306 76.6091 32.6506 76.8792C32.3707 77.1492 32.0222 77.2842 31.6052 77.2842C31.21 77.2842 30.8824 77.1711 30.6223 76.9447C30.3621 76.7163 30.2112 76.4185 30.1695 76.0511ZM42.8485 77.2098H41.8894L41.5081 76.2179H39.7627L39.4023 77.2098H38.4671L40.1678 72.8433H41.1001L42.8485 77.2098ZM41.2252 75.4822L40.6235 73.8619L40.0338 75.4822H41.2252ZM45.1431 72.8433H46.0248V75.2082C46.0248 75.5835 46.0357 75.8268 46.0575 75.938C46.0953 76.1167 46.1846 76.2606 46.3256 76.3698C46.4686 76.4771 46.6632 76.5307 46.9094 76.5307C47.1596 76.5307 47.3482 76.48 47.4753 76.3788C47.6024 76.2755 47.6788 76.1494 47.7046 76.0005C47.7305 75.8516 47.7434 75.6044 47.7434 75.2589V72.8433H48.625V75.1367C48.625 75.6609 48.6012 76.0313 48.5535 76.2477C48.5059 76.4642 48.4175 76.6468 48.2884 76.7958C48.1614 76.9447 47.9906 77.0638 47.7761 77.1532C47.5617 77.2406 47.2817 77.2842 46.9362 77.2842C46.5192 77.2842 46.2025 77.2366 45.986 77.1413C45.7716 77.044 45.6018 76.9189 45.4767 76.766C45.3516 76.6111 45.2692 76.4493 45.2295 76.2805C45.1719 76.0303 45.1431 75.6609 45.1431 75.1725V72.8433ZM52.3702 77.2098V73.5819H51.0745V72.8433H54.5445V73.5819H53.2518V77.2098H52.3702ZM56.6545 75.0533C56.6545 74.6085 56.721 74.2352 56.854 73.9334C56.9533 73.711 57.0884 73.5115 57.2591 73.3347C57.4319 73.158 57.6205 73.0269 57.825 72.9416C58.0971 72.8264 58.4108 72.7688 58.7663 72.7688C59.4096 72.7688 59.9239 72.9684 60.3091 73.3675C60.6963 73.7666 60.8899 74.3216 60.8899 75.0325C60.8899 75.7374 60.6983 76.2894 60.3151 76.6885C59.9318 77.0857 59.4195 77.2842 58.7782 77.2842C58.1289 77.2842 57.6126 77.0867 57.2293 76.6915C56.8461 76.2944 56.6545 75.7483 56.6545 75.0533ZM57.5629 75.0235C57.5629 75.518 57.6771 75.8933 57.9055 76.1494C58.1338 76.4036 58.4237 76.5307 58.7752 76.5307C59.1267 76.5307 59.4146 76.4046 59.639 76.1524C59.8653 75.8982 59.9785 75.518 59.9785 75.0116C59.9785 74.5112 59.8683 74.1379 59.6479 73.8917C59.4295 73.6455 59.1386 73.5224 58.7752 73.5224C58.4118 73.5224 58.1189 73.6475 57.8965 73.8977C57.6741 74.1459 57.5629 74.5212 57.5629 75.0235ZM66.9387 77.2098V72.8433H68.3535C68.8896 72.8433 69.2391 72.8651 69.4019 72.9088C69.6521 72.9743 69.8616 73.1173 70.0304 73.3377C70.1992 73.5561 70.2836 73.8391 70.2836 74.1866C70.2836 74.4547 70.2349 74.68 70.1376 74.8627C70.0403 75.0454 69.9162 75.1894 69.7653 75.2946C69.6164 75.3978 69.4645 75.4664 69.3096 75.5001C69.0991 75.5418 68.7943 75.5627 68.3952 75.5627H67.8203V77.2098H66.9387ZM67.8203 73.5819V74.821H68.3029C68.6504 74.821 68.8827 74.7982 68.9998 74.7525C69.117 74.7068 69.2083 74.6353 69.2739 74.538C69.3414 74.4408 69.3751 74.3276 69.3751 74.1985C69.3751 74.0396 69.3285 73.9086 69.2351 73.8053C69.1418 73.7021 69.0237 73.6375 68.8807 73.6117C68.7755 73.5919 68.564 73.5819 68.2463 73.5819H67.8203ZM76.3222 77.2098H75.3631L74.9819 76.2179H73.2365L72.8761 77.2098H71.9408L73.6416 72.8433H74.5738L76.3222 77.2098ZM74.6989 75.4822L74.0973 73.8619L73.5075 75.4822H74.6989ZM78.6258 77.2098V72.8433H80.4814C80.9481 72.8433 81.2866 72.883 81.4971 72.9624C81.7096 73.0399 81.8793 73.1789 82.0064 73.3794C82.1335 73.58 82.197 73.8093 82.197 74.0674C82.197 74.3951 82.1007 74.6661 81.9081 74.8806C81.7155 75.093 81.4276 75.2271 81.0444 75.2827C81.235 75.3939 81.3919 75.516 81.515 75.649C81.6401 75.7821 81.8079 76.0184 82.0183 76.3579L82.5515 77.2098H81.4971L80.8597 76.2596C80.6333 75.9201 80.4784 75.7066 80.395 75.6193C80.3116 75.5299 80.2233 75.4693 80.13 75.4376C80.0366 75.4038 79.8887 75.3869 79.6862 75.3869H79.5074V77.2098H78.6258ZM79.5074 74.69H80.1597C80.5827 74.69 80.8468 74.6721 80.952 74.6363C81.0573 74.6006 81.1397 74.539 81.1992 74.4517C81.2588 74.3643 81.2886 74.2551 81.2886 74.124C81.2886 73.9771 81.2489 73.8589 81.1695 73.7696C81.092 73.6783 80.9818 73.6207 80.8388 73.5968C80.7674 73.5869 80.5529 73.5819 80.1955 73.5819H79.5074V74.69ZM85.8439 77.2098V73.5819H84.5483V72.8433H88.0183V73.5819H86.7256V77.2098H85.8439ZM90.1967 75.789L91.0546 75.7056C91.1062 75.9936 91.2104 76.205 91.3673 76.3401C91.5262 76.4751 91.7396 76.5426 92.0077 76.5426C92.2916 76.5426 92.5051 76.483 92.6481 76.3639C92.793 76.2428 92.8655 76.1018 92.8655 75.9409C92.8655 75.8377 92.8347 75.7503 92.7732 75.6788C92.7136 75.6054 92.6083 75.5418 92.4574 75.4882C92.3542 75.4525 92.1189 75.3889 91.7515 75.2976C91.2789 75.1804 90.9473 75.0365 90.7567 74.8657C90.4886 74.6254 90.3546 74.3325 90.3546 73.987C90.3546 73.7646 90.4172 73.5571 90.5423 73.3645C90.6693 73.1699 90.851 73.022 91.0873 72.9207C91.3256 72.8194 91.6125 72.7688 91.9481 72.7688C92.4962 72.7688 92.9082 72.8889 93.1842 73.1292C93.4622 73.3695 93.6081 73.6902 93.622 74.0913L92.7404 74.13C92.7027 73.9056 92.6213 73.7448 92.4962 73.6475C92.373 73.5482 92.1874 73.4985 91.9392 73.4985C91.683 73.4985 91.4825 73.5512 91.3375 73.6564C91.2442 73.7239 91.1975 73.8143 91.1975 73.9275C91.1975 74.0307 91.2412 74.1191 91.3286 74.1925C91.4398 74.2859 91.7098 74.3832 92.1387 74.4844C92.5676 74.5857 92.8844 74.6909 93.0889 74.8002C93.2954 74.9074 93.4562 75.0553 93.5714 75.244C93.6886 75.4306 93.7471 75.6619 93.7471 75.938C93.7471 76.1881 93.6776 76.4225 93.5386 76.6409C93.3996 76.8593 93.2031 77.0221 92.9489 77.1294C92.6947 77.2346 92.378 77.2872 91.9987 77.2872C91.4467 77.2872 91.0228 77.1601 90.7269 76.906C90.4311 76.6498 90.2543 76.2775 90.1967 75.789ZM99.8704 77.2098V72.879H100.752V76.4741H102.944V77.2098H99.8704ZM105.429 77.2098V72.879H106.311V76.4741H108.503V77.2098H105.429ZM113.759 75.6044L114.613 75.8754C114.482 76.352 114.264 76.7064 113.958 76.9387C113.654 77.1691 113.268 77.2842 112.8 77.2842C112.22 77.2842 111.743 77.0867 111.37 76.6915C110.997 76.2944 110.81 75.7523 110.81 75.0652C110.81 74.3385 110.998 73.7746 111.373 73.3734C111.748 72.9704 112.242 72.7688 112.853 72.7688C113.387 72.7688 113.821 72.9267 114.155 73.2424C114.353 73.429 114.502 73.6971 114.602 74.0466L113.729 74.2551C113.677 74.0287 113.569 73.85 113.404 73.719C113.241 73.5879 113.043 73.5224 112.808 73.5224C112.485 73.5224 112.222 73.6385 112.019 73.8709C111.819 74.1032 111.718 74.4795 111.718 74.9997C111.718 75.5517 111.818 75.9449 112.016 76.1792C112.215 76.4135 112.473 76.5307 112.791 76.5307C113.025 76.5307 113.226 76.4562 113.395 76.3073C113.564 76.1584 113.685 75.9241 113.759 75.6044Z" fill="white"/>
<rect x="9" y="68.8811" width="107.895" height="1.55245" fill="#03A9F4"/>
<path d="M45.8645 48.0647H34.9695V40.202H52.9611V44.7664V61.2258V67.0563H9.6474V17.412H59.9707L53.2312 25.2748H19.2763H18.7763V25.7748V58.6936V59.1936H19.2763H45.8645H46.3645V58.6936V48.5647V48.0647H45.8645Z" fill="white" stroke="white"/>
<path d="M65.6979 67.0563H52.3617L58.2346 62.389H65.5519C66.1913 62.389 66.8383 62.282 67.4475 62.0354C73.6438 59.5273 78.5313 54.6626 78.5313 46.5872C78.5313 43.6286 77.227 39.0699 73.3458 35.4805C69.6093 32.0249 63.5387 29.5161 54.0863 30.1258L68.1006 14.0452L68.8226 13.2167H67.7236H48.8967V8.54932H79.4716L64.1339 25.2802L63.6249 25.8354L64.3342 26.0889C71.227 28.5523 82.7027 33.3678 83.3299 46.6109C83.7262 54.9775 77.4439 63.4284 66.9841 66.8595C66.5753 66.9936 66.1399 67.0563 65.6979 67.0563Z" fill="white" stroke="white"/>
<path d="M102.839 28.7894L99.041 32.6781L97.7749 32.03H93.9766V35.2706H88.9122L88.2791 32.6781L86.38 31.3819L83.8477 32.6781L80.0494 28.7894L81.9486 26.845L80.6825 24.2525H77.5172V18.4193H80.6825L81.3155 15.8268L80.0494 13.8825L83.2147 10.6418L85.7469 11.9381L88.9122 10.6418V8.04932H93.9766V10.6418L97.1419 11.9381L99.041 10.6418L102.839 14.5306L100.94 15.8268L102.206 19.0675H104.739V24.2525H102.206L100.94 26.845L102.839 28.7894Z" fill="#033246" stroke="white"/>
<path d="M91.4949 28.3069C94.9933 28.3069 97.8294 25.4727 97.8294 21.9764C97.8294 18.4802 94.9933 15.6459 91.4949 15.6459C87.9965 15.6459 85.1605 18.4802 85.1605 21.9764C85.1605 25.4727 87.9965 28.3069 91.4949 28.3069Z" fill="white" stroke="white" stroke-width="2" stroke-linecap="round" stroke-linejoin="round"/>
<path d="M105.413 18.0317H103.043C102.851 17.5805 102.721 17.192 102.529 16.8034L104.191 15.124C104.632 14.6791 104.762 13.8895 104.191 13.313L100.221 9.30236C99.7057 8.78224 98.9427 8.78224 98.4277 9.30236L96.7651 10.9818C96.3805 10.7875 95.9338 10.5933 95.5491 10.4617V8.07412C95.5491 7.36599 94.9722 6.7832 94.2711 6.7832H88.7063C88.0052 6.7832 87.4283 7.36599 87.4283 8.07412V10.1421C86.9816 10.3363 86.5969 10.4679 86.2123 10.6622L84.5497 8.98277C84.0347 8.46264 83.2717 8.46264 82.7567 8.98277L78.7863 12.9934C78.2713 13.5135 78.2713 14.2843 78.7863 14.8044L80.4489 16.4838C80.2566 16.8724 80.0643 17.3236 79.934 17.7121H77.5703C76.8693 17.7121 76.2923 18.2949 76.2923 19.003V24.6241C76.2923 25.3322 76.8693 25.915 77.5703 25.915H79.8099C80.0022 26.3662 80.1325 26.7547 80.3248 27.1433L78.6622 28.8227C78.1473 29.3428 78.1473 30.1136 78.6622 30.6337L82.6327 34.6443C83.3647 35.3838 84.1712 34.9013 84.4256 34.6443L86.0882 32.9649C86.4729 33.1592 86.9195 33.3534 87.3042 33.485V35.8789C87.3042 36.587 87.8811 37.1698 88.5822 37.1698H94.1471C94.7861 37.1698 95.363 36.587 95.5553 36.1985V33.8046C96.002 33.6104 96.3867 33.4788 96.7713 33.2845L98.4339 34.9639C98.9489 35.4151 99.7802 35.4151 100.227 34.9639L104.197 30.9533C104.712 30.4332 104.712 29.6624 104.197 29.1423L102.535 27.4629C102.727 27.0743 102.919 26.6231 103.05 26.2346H105.42C106.121 26.2346 106.698 25.6518 106.698 24.9437V19.3226C106.691 18.6145 106.114 18.0317 105.413 18.0317ZM103.875 23.5275H101.89C101.313 23.5275 100.804 23.916 100.674 24.4988C100.481 25.3385 100.159 26.1156 99.7119 26.8926C99.3893 27.4127 99.5196 28.0582 99.9043 28.4467L101.313 29.8692L99.135 32.0688L97.7267 30.6463C97.28 30.2577 96.7031 30.1951 96.1881 30.452C95.4871 30.8405 94.6496 31.2291 93.8183 31.4233C93.2413 31.5549 92.8567 32.0688 92.8567 32.6516V34.6569H89.7857V32.6516C89.7857 32.0688 89.4011 31.5549 88.8241 31.4233C87.9928 31.2291 87.2235 30.9032 86.4543 30.452C85.9393 30.1262 85.3003 30.2577 84.9157 30.6463L83.5074 32.0688L81.3298 29.8692L82.7381 28.4467C83.1228 27.9955 83.1848 27.4127 82.9304 26.8926C82.5458 26.1845 82.1612 25.3385 81.9688 24.4988C81.8386 23.916 81.3298 23.5275 80.7529 23.5275H78.7676V20.4255H80.7529C81.3298 20.4255 81.8386 20.037 81.9688 19.4542C82.1612 18.6145 82.4838 17.8374 82.9304 17.0604C83.253 16.5402 83.1228 15.8948 82.7381 15.5063L81.3298 14.0838L83.5074 11.8842L84.9157 13.3067C85.3624 13.6952 85.9393 13.7579 86.4543 13.501C87.1553 13.1124 87.9928 12.7239 88.8241 12.5296C89.4011 12.398 89.7857 11.8842 89.7857 11.3014V9.2961H92.8567V11.3014C92.8567 11.8842 93.2413 12.398 93.8183 12.5296C94.6496 12.7239 95.4189 13.0498 96.1881 13.501C96.7031 13.8268 97.3421 13.6952 97.7267 13.3067L99.135 11.8842L101.313 14.0838L99.9043 15.5063C99.5196 15.9575 99.4576 16.5402 99.7119 17.0604C100.097 17.7685 100.481 18.6145 100.674 19.4542C100.804 20.037 101.313 20.4255 101.89 20.4255H103.875V23.5275Z" fill="white"/>
<path d="M74.1252 65.7762H116.895V67.3286H72.6503L74.1252 65.7762Z" fill="#03A9F4"/>
<path d="M77.2512 62.6713H116.895V64.2238H75.7552L77.2512 62.6713Z" fill="#03A9F4"/>
<path d="M80.3816 59.5664H116.895V61.1189H78.8602L80.3816 59.5664Z" fill="#03A9F4"/>
</svg>
