<svg xmlns="http://www.w3.org/2000/svg" width="1006" zoomAndPan="magnify" viewBox="0 0 754.5 502.5" height="670" preserveAspectRatio="xMidYMid meet" xmlns:v="https://vecta.io/nano"><style><![CDATA[.B{fill:rgb(3.919983%, 42.349243%, 59.609985%)}.C{fill:rgb(98.429871%, 76.858521%, 61.569214%)}.D{clip-rule:nonzero}.E{fill:rgb(17.649841%, 56.469727%, 74.899292%)}.F{fill:rgb(43.139648%, 86.268616%, 94.119263%)}.G{fill:rgb(36.079407%, 18.429565%, 8.239746%)}.H{fill:rgb(100%, 100%, 100%)}.I{fill:rgb(25.878906%, 25.878906%, 25.878906%)}.J{fill:rgb(90.19928%, 64.309692%, 48.239136%)}.K{fill:rgb(98.039246%, 65.098572%, 47.839355%)}.L{fill:rgb(100%, 82.749939%, 68.629456%)}.M{fill:rgb(59.21936%, 34.509277%, 21.569824%)}.N{fill:rgb(92.549133%, 69.799805%, 56.858826%)}.O{fill:rgb(34.118652%, 16.859436%, 7.449341%)}]]></style><defs><clipPath id="A"><path d="M.125 0h753.75v502H.125zm0 0" class="D"/></clipPath><clipPath id="B"><path d="M242.52 228.273H293V246h-50.48zm0 0" class="D"/></clipPath><clipPath id="C"><path d="M391.941 410.703h38.703v14.543h-38.703zm0 0" class="D"/></clipPath><clipPath id="D"><path d="M343.555 410.703h38.707v14.543h-38.707zm0 0" class="D"/></clipPath><clipPath id="E"><path d="M379 77.363h28V111h-28zm0 0" class="D"/></clipPath></defs><g clip-path="url(#A)" class="H"><path d="M.125 0h754.25v509.082H.125zm0 0"/><path d="M.125 0h754.25v502.332H.125zm0 0"/><path d="M.125 0h754.25v502.332H.125zm0 0"/><path d="M.125 0h754.25v502.332H.125zm0 0"/></g><path d="M260.66 232.086c-1.875-.832-2.734-3.051-1.906-4.937a3.75 3.75 0 0 1 4.926-1.91l10.801 4.781c-3.391 1.137-7.016 2.93-9.23 4.098l-4.59-2.031" class="J"/><g clip-path="url(#B)" class="C"><path d="M242.77 231.582c2.016-4.242 5.949-2.727 10.18-.707l10.195 4.395s.816-.469 2.105-1.152c2.215-1.168 5.84-2.961 9.23-4.098 1.891-.633 3.707-1.062 5.16-1.062 6.516 0 9.406 1.586 10.762 3.602h2.434v13.344h-7.988v-.043l-20.566.043-20.488-11.012c-1.152-.668-1.598-2.109-1.023-3.309"/></g><path d="M292.836 229.16h4.602v8.992h24.109a17.35 17.35 0 0 0 14.652-8.07l17.012-26.82v59.875h-.039v-44.273l-13.23 20.859a17.35 17.35 0 0 1-14.652 8.07h-27.848v-.996h-4.605V229.16m61.495-46.41l-2.223 2.07 2.223-2.07m-2.352 2.199l-.996 1.074.996-1.074m-1.136 1.239l-.863 1.023.863-1.023m-2.035 2.578l-.816 1.211.816-1.211m1.046-1.403l-.863 1.145.863-1.145" class="B"/><g clip-path="url(#C)" class="I"><path d="M410.016 410.762l2.422 3.422 14.516 3.141c3.719 1.18 3.496 1.496 3.496 5.406a2.54 2.54 0 0 1-2.535 2.539h-15.496l-8.184-2.492v2.492h-12.238v-14.508h18.02"/></g><path d="M414.543 219.535v-3.516h-21.699v3.516h21.699m-11.766 87.977h-.52c-8.555 0-15.488-7.277-15.488-16.25h.848v-82.57h-.547l6.867-17.969 12.324 6.449.008-12.883c5.055.902 11.34 4.195 15.922 9.094l23.961 25.324 18.465-36.859 7.32 12.574 3.816-7.621.457.641-20.41 40.738c-1.816 3.629-5.473 5.727-9.266 5.727a10.32 10.32 0 0 1-4.641-1.105 10.33 10.33 0 0 1-4.18-3.871l-16.82-17.996v52.203h-.039v5.41h-22.309c10.789 10.816 21.59 15.918 22.309 16.254v6.828c0 5.77-3.07 10.816-7.66 13.602v29.262h-10.418v-26.98m-12.452 103.248h-.02v-103.25h.02v103.25m12.453-41.258a5.94 5.94 0 0 0 .84.066h9.578v41.191h-10.418v-41.258" class="B"/><g clip-path="url(#D)" class="I"><path d="M382.07 410.762v14.508h-12.238v-2.492l-8.187 2.492h-15.492c-1.402 0-2.535-1.137-2.535-2.539 0-3.91-.223-4.227 3.496-5.406l14.516-3.141 2.422-3.422h18.02"/></g><path d="M370.66 369.559c3.082-.113 5.551-2.645 5.551-5.762v-29.305h-5.551v-26.98h13.102v103.25H370.66v-41.203" class="B"/><path d="M370.66 369.559v41.203h-9.793V369.57h9.582c.07 0 .137-.008.211-.012" class="E"/><path d="M381.055 193.734l-1.148-3.012zm17.383-14.773l-.223.559.215-.559zm-23.028 0l1.172 3.066-1.172-3.066m-9.41-1.77c-3.324.121-7.691 2.203-11.648 5.547 3.977-3.367 8.371-5.465 11.699-5.57.574-.18 1.164-.328 1.758-.445l-.008.008a16.33 16.33 0 0 0-1.801.461m20.77 31.499l-1.371-3.59 1.371 3.59" class="B"/><path d="M375.336 178.961h.074l1.172 3.066zm-16.449 40.574h21.699v-3.516h-21.699zm-5.676-15.781l14.23-16.898.004 10.316 12.461-6.449 1.148 3.012 4.344 11.367 1.371 3.59h-.848v82.57h.848c0 8.973 6.934 16.25 15.488 16.25h.52v26.98h-4.922v29.305a5.77 5.77 0 0 0 4.922 5.707v41.258h-12.453v-103.25H370.66v26.98h-9.793v-29.266a15.88 15.88 0 0 1-7.656-13.598v-6.809s11.184-5.082 22.348-16.273H353.25l-.039 16.273v-81.066" class="E"/><path d="M402.777 369.504a5.77 5.77 0 0 1-4.922-5.707v-29.305h16.836v35.078h-11.074a5.94 5.94 0 0 1-.84-.066m-26.566-35.012v29.305c0 3.117-2.469 5.648-5.551 5.762l-.211.012h-11.074v-35.078h16.836" class="F"/><path d="M398.438 178.961h-.008l.672-1.754v-5.723h2.336l-3 7.477m-23.7-1.754l.672 1.754h-.074l-3.043-7.477h2.445v5.723" fill="rgb(0%, 33.329773%, 46.669006%)"/><path d="M422.301 184.027a30.53 30.53 0 0 1 3.875 3.484c-1.145-1.223-2.457-2.391-3.875-3.484" class="B"/><path d="M399.102 177.207l-.672 1.754-.215.559-2.594 6.469 3.48-8.781" class="C"/><path d="M399.102 177.207l-3.48 8.781-.977 2.445-19.555-19.602a26.27 26.27 0 0 0 11.762 2.789h.313a26.31 26.31 0 0 0 11.938-2.852v8.438m15.385-41.186l2.082-.023.477-11.441c3.668 1.449 6.27 5.004 6.27 9.195 0 5.285-4.137 9.57-9.336 9.867l.508-8.762v1.164m-54.973 0v-2.199l.566 9.809c-5.262-.23-9.469-4.547-9.469-9.879 0-4.219 2.637-7.793 6.344-9.227l.477 11.473c.473.066 1.133.023 2.082.023" class="J"/><path d="M405.703 141.418a4.12 4.12 0 0 0-4.113-4.121c-2.273 0-4.113 1.844-4.113 4.121a4.12 4.12 0 0 0 4.113 4.125c2.27 0 4.113-1.848 4.113-4.125m-27.484 14.672a5.06 5.06 0 0 0 5.035 5.047h7.555a5.06 5.06 0 0 0 5.039-5.047h-17.629m-5.742-18.793c-2.273 0-4.113 1.844-4.113 4.121a4.12 4.12 0 0 0 4.113 4.125c2.27 0 4.113-1.848 4.113-4.125a4.12 4.12 0 0 0-4.113-4.121m14.688 34.324h-.312c-4.129-.004-8.148-.977-11.762-2.789l19.555 19.602-.883 2.199.176.09-6.867 17.969 5.684-14.879c-1.812.559-3.727.871-5.723.871-2.086 0-4.09-.344-5.977-.949l-1.148-3.012.176-.09-3.5-8.605-1.172-3.066-.672-1.754v-8.559a26.29 26.29 0 0 1-7.332-5.637c-3.742-4.121-7.039-10.586-7.039-14.496l-.285-4.887-.566-9.809v-11.789l1.012-.008 9.188 6.344c.438 1.098 1.504 1.879 2.762 1.879.766 0 1.457-.297 1.984-.773h7.902v14.652a4.43 4.43 0 0 0 4.406 4.418c2.426 0 4.406-1.988 4.406-4.418v-14.652h8.426c.531.477 1.223.773 1.988.773s1.457-.297 1.984-.773h10.914v5.383l-.508 8.762-.281 4.898c0 3.926-3.312 10.398-7.07 14.523a26.29 26.29 0 0 1-7.527 5.73c-3.664 1.859-7.746 2.855-11.937 2.852" class="C"/><path d="M401.59 130.246c-.766 0-1.457-.297-1.988-.773h3.973c-.527.477-1.219.773-1.984.773" class="G"/><path d="M397.477 141.418c0-2.277 1.84-4.121 4.113-4.121a4.12 4.12 0 0 1 4.113 4.121c0 2.277-1.844 4.125-4.113 4.125a4.12 4.12 0 0 1-4.113-4.125" class="K"/><path d="M374.461 129.473c-.527.477-1.219.773-1.984.773-1.258 0-2.324-.781-2.762-1.879l1.602 1.105h3.145" class="G"/><path d="M372.477 145.543a4.12 4.12 0 0 1-4.113-4.125c0-2.277 1.84-4.121 4.113-4.121a4.12 4.12 0 0 1 4.113 4.121c0 2.277-1.844 4.125-4.113 4.125" class="K"/><path d="M391.176 144.125c0 2.43-1.98 4.418-4.406 4.418a4.43 4.43 0 0 1-4.406-4.418v-14.652h8.813v14.652" class="L"/><path fill="rgb(74.508667%, 49.798584%, 23.529053%)" d="M359.516 122.031v13.988c-.949 0-1.609.043-2.082-.023l-.477-11.473-.102-2.414 2.66-.078"/><path d="M417.668 106.141l-.082-1.809.012.039.07.285.121.57.055.293-.176 4.25v-3.629m-3.18 29.88v-6.547h.316l.883-15.266 1.824-.723-.465 11.07-.477 11.441c-.473.066-1.133.023-2.082.023" class="M"/><path fill="rgb(84.309387%, 52.938843%, 32.939148%)" d="M390.809 161.137h-7.555a5.06 5.06 0 0 1-5.035-5.047h17.629a5.06 5.06 0 0 1-5.039 5.047"/><path d="M376.621 123.684c2.844.555 5.73.754 8.594.605-1.664.633-2.852 2.246-2.852 4.125v1.059h-7.902c.605-.547.992-1.328.992-2.211a2.98 2.98 0 0 0-2.977-2.984 2.98 2.98 0 0 0-2.762 4.09l-9.187-6.344c5.047.004 10.094.484 15.074 1.461l1.02.199" class="C"/><path d="M374.461 129.473h7.902v-1.059c0-1.879 1.188-3.492 2.852-4.125l-1.836.047c-2.258 0-4.52-.215-6.758-.652l-1.02-.199c-4.98-.977-10.027-1.457-15.074-1.461l9.188 6.344a2.98 2.98 0 0 1 2.762-4.09 2.98 2.98 0 0 1 2.977 2.984c0 .883-.387 1.664-.992 2.211" class="N"/><path d="M387.613 124.082c2.992-.363 5.941-1.102 8.773-2.227l18.102-7.172v14.789h-10.914c.605-.547.992-1.328.992-2.211a2.98 2.98 0 0 0-2.977-2.984c-1.645 0-2.98 1.336-2.98 2.984a2.98 2.98 0 0 0 .992 2.211h-8.426v-1.059c0-2.141-1.539-3.937-3.562-4.332" class="C"/><path d="M391.176 129.473h8.426a2.98 2.98 0 0 1-.992-2.211c0-1.648 1.336-2.984 2.98-2.984a2.98 2.98 0 0 1 2.977 2.984c0 .883-.387 1.664-.992 2.211h10.914v-14.789l-18.102 7.172c-2.832 1.125-5.781 1.863-8.773 2.227 2.023.395 3.563 2.191 3.563 4.332v1.059" class="N"/><path d="M398.609 127.262c0-1.648 1.336-2.984 2.98-2.984a2.98 2.98 0 0 1 2.977 2.984c0 .883-.387 1.664-.992 2.211h-3.973a2.98 2.98 0 0 1-.992-2.211" class="G"/><path d="M399.602 129.473h3.973c.605-.547.992-1.328.992-2.211a2.98 2.98 0 0 0-2.977-2.984c-1.645 0-2.98 1.336-2.98 2.984a2.98 2.98 0 0 0 .992 2.211" class="O"/><path d="M372.477 124.277a2.98 2.98 0 0 1 2.977 2.984c0 .883-.387 1.664-.992 2.211h-3.145l-1.602-1.105a2.98 2.98 0 0 1 2.762-4.09" class="G"/><path d="M371.316 129.473h3.145c.605-.547.992-1.328.992-2.211a2.98 2.98 0 0 0-2.977-2.984 2.98 2.98 0 0 0-2.762 4.09l1.602 1.105" class="O"/><path d="M385.215 124.289l2.398-.207c2.023.395 3.563 2.191 3.563 4.332v1.059h-8.812v-1.059c0-1.879 1.188-3.492 2.852-4.125" class="L"/><path fill="rgb(94.119263%, 75.289917%, 63.139343%)" d="M382.363 129.473h8.813v-1.059c0-2.141-1.539-3.937-3.562-4.332l-2.398.207c-1.664.633-2.852 2.246-2.852 4.125v1.059"/><path d="M414.488 114.684l1.199-.477-.883 15.266h-.316v-14.789" class="M"/><path fill="rgb(55.688477%, 31.369019%, 19.999695%)" d="M414.488 129.473h.316l.883-15.266-1.199.477v14.789"/><g class="E"><path d="M404.313 84.449l-1.785-.91 1.785.91m10 9.617l-1.391-2.09 1.391 2.09"/><path d="M371.105 83.273l-2.352 1.176 2.352-1.176m41.817 8.704l-1.152-1.441 1.152 1.441m-52.774 0a25.19 25.19 0 0 0-1.391 2.09 25.19 25.19 0 0 1 1.391-2.09m-4.746 14.164c0-3.926.988-7.648 2.742-10.98-1.754 3.332-2.742 7.055-2.742 10.98"/><path d="M361.742 90.023l1.789-1.809-1.789 1.809"/><path d="M361.742 90.023a24.48 24.48 0 0 0-1.594 1.953 24.48 24.48 0 0 1 1.594-1.953m47.797-1.808l1.34 1.332-1.34-1.332m8.129 17.926c0-3.926-.984-7.648-2.742-10.98 1.484 2.813 2.406 5.91 2.66 9.172a23.08 23.08 0 0 1 .082 1.809"/></g><g clip-path="url(#E)" class="B"><path d="M392.809 80.902a1.89 1.89 0 0 1-.469.07h-2.285c4.762 2.215 16.578 9.328 16.578 25.391v4.336c-5.715-1.066-13.363-2.035-22.27-2.035-1.73 0-3.371.035-4.941.102v-5.629h8.172c1.328 0 2.402-1.078 2.402-2.41v-5.812c0-1.328-1.074-2.406-2.402-2.406h-7.637c1.766-8.105 7.43-10.832 9.375-11.535h-2.598c-.301 0-.582-.082-.832-.211a1.8 1.8 0 0 1-.973-1.594c0-1 .809-1.809 1.805-1.809h5.605c.992 0 1.801.809 1.801 1.809a1.8 1.8 0 0 1-1.309 1.727c.184.016.363.043.543.066a13.91 13.91 0 0 0-.566-.059"/></g><path d="M408.773 111.117v-4.754c0-13.715-8.238-21.453-14.133-25.234a31.38 31.38 0 0 0-1.035-.145 30.08 30.08 0 0 1 4.594.922c.867.25 1.715.535 2.539.855a28.09 28.09 0 0 1 1.789.777c.605.285 1.207.586 1.785.91a27.77 27.77 0 0 1 3.258 2.125c.684.52 1.34 1.066 1.969 1.641a28.73 28.73 0 0 1 1.34 1.332c.305.324.602.652.891.988.398.469.789.949 1.152 1.441a25.19 25.19 0 0 1 1.391 2.09 23.45 23.45 0 0 1 .613 1.094 23.43 23.43 0 0 1 2.742 10.98v7.285s-3.262-1.145-8.895-2.309m-49.449-6.494v7.309c-2.633.832-3.922 1.496-3.922 1.496v-7.285c0-3.926.988-7.648 2.742-10.98a27.67 27.67 0 0 1 .613-1.094 25.19 25.19 0 0 1 1.391-2.09 24.48 24.48 0 0 1 1.594-1.953 26.05 26.05 0 0 1 1.789-1.809 27.71 27.71 0 0 1 5.223-3.766c.762-.426 1.547-.816 2.352-1.176a29.48 29.48 0 0 1 11.969-2.512h.297c-26.309 3.973-24.047 23.859-24.047 23.859" class="B"/><path d="M381.227 110.523l-4.121.086-13.668 8.664c-.496.293-.703.758-.699 1.215a67.98 67.98 0 0 1 13.797 1.254l.883.176c5.734 1.121 11.676.57 17.109-1.582l15.668-6.23s-11.895-3.582-28.969-3.582zm34.461 3.684l-1.199.477-18.102 7.172c-2.832 1.125-5.781 1.863-8.773 2.227-.797.094-1.598.168-2.398.207-2.863.148-5.75-.051-8.594-.605l-1.02-.199c-4.98-.977-10.027-1.457-15.074-1.461l-1.012.008c-.887.012-1.773.035-2.66.078a78.66 78.66 0 0 0-12.367 1.555c-1.824.379-2.777-2.082-1.18-3.035l12.094-7.203s1.289-.664 3.922-1.496v-7.309s-2.262-19.887 24.047-23.859h2.531c.25.129.531.211.832.211h2.598c-1.945.703-7.609 3.43-9.375 11.535h-8.266c-1.324 0-2.402 1.078-2.402 2.406v5.813c0 1.332 1.078 2.41 2.402 2.41h7.73v5.629c1.57-.066 3.211-.102 4.941-.102 8.906 0 16.555.969 22.27 2.035v-4.336c0-16.062-11.816-23.176-16.578-25.391h2.285a1.89 1.89 0 0 0 .469-.07 13.91 13.91 0 0 1 .566.059c.078.004.156.016.23.023a31.38 31.38 0 0 1 1.035.145c5.895 3.781 14.133 11.52 14.133 25.234v4.754c5.633 1.164 8.895 2.309 8.895 2.309l-.156.059-1.824.723" class="E"/><path d="M410.195 114.105l-15.668 6.23c-5.434 2.152-11.375 2.703-17.109 1.582l-.883-.176a67.98 67.98 0 0 0-13.797-1.254c-.004-.457.203-.922.699-1.215l13.668-8.664a98.69 98.69 0 0 1 4.121-.086c17.074 0 28.969 3.582 28.969 3.582" class="B"/><path d="M389.996 94.914v5.813c0 1.332-1.074 2.41-2.402 2.41h-15.902c-1.324 0-2.402-1.078-2.402-2.41v-5.812c0-1.328 1.078-2.406 2.402-2.406h15.902c1.328 0 2.402 1.078 2.402 2.406" class="H"/><path d="M464.617 181.848l-18.465 36.859-23.961-25.324c-4.582-4.898-10.867-8.191-15.922-9.094l.004-7.133-.594-.695c4.82.586 11.426 3.555 16.621 7.566 1.418 1.094 2.73 2.262 3.875 3.484l17.535 18.531 16.184-32.305 4.723 8.109" class="F"/><path fill="rgb(69.40918%, 81.568909%, 87.059021%)" d="M459.895 173.738l.215-.422-.418-.723-.215.426.418.719"/><path d="M469.914 180.352c.461.094.926.16 1.387.211l4.453 6.238-3.816 7.621-7.32-12.574 1.445-2.879c1.188.617 2.473 1.094 3.852 1.383" class="B"/><path fill="rgb(2.749634%, 34.509277%, 51.759338%)" d="M471.938 194.422l3.816-7.621-4.453-6.238-1.387-.211c-1.379-.289-2.664-.766-3.852-1.383l-1.445 2.879 7.32 12.574"/><path d="M466.063 178.969l-1.445 2.879-4.723-8.109.215-.422a14.9 14.9 0 0 0 5.953 5.652" class="F"/><path fill="rgb(29.798889%, 70.199585%, 81.959534%)" d="M464.617 181.848l1.445-2.879a14.9 14.9 0 0 1-5.953-5.652l-.215.422 4.723 8.109"/><path d="M456.063 159.227l-6.723-9.414c-3.539 2.105-8.781 1.727-11.168-1.609l-6.227-8.723c-2.516-3.523-.887-9.012 2.629-11.531.371-.27.887-.18 1.152.188l7.246 10.152c1.082 1.512 3.188 1.863 4.699.777l4.152-2.977c1.512-1.086 1.859-3.195.777-4.711l-7.246-10.148c-.262-.371-.176-.887.191-1.152 3.516-2.52 9.227-2.297 11.742 1.227l6.23 8.723c2.383 3.34 1.047 8.43-2.082 11.109l7.305 10.227a15.01 15.01 0 0 0-6.082 3.512l-6.598 4.352m15.241 21.334c5.508.613 10.766-1.898 13.828-6.25l7.344 10.285c3.539-2.105 8.781-1.727 11.164 1.613l6.23 8.719c2.512 3.523.887 9.012-2.633 11.535a.82.82 0 0 1-1.148-.195l-7.246-10.145a3.36 3.36 0 0 0-4.699-.781l-4.152 2.977c-1.512 1.086-1.863 3.195-.781 4.711l7.246 10.145c.266.375.18.891-.187 1.156-3.516 2.52-9.227 2.297-11.742-1.227l-6.23-8.723c-2.383-3.34-1.051-8.43 2.082-11.109l-4.164-5.832-.457-.641-4.453-6.238" class="I"/><path d="M471.301 180.563l-1.387-.211c-1.379-.289-2.664-.766-3.852-1.383a14.9 14.9 0 0 1-5.953-5.652l-.418-.723c-.793-1.535-1.316-3.211-1.543-4.961-1.77.688-3.855.074-4.937-1.578a4.15 4.15 0 0 1 1.18-5.727l1.672-1.102 6.598-4.352a15.01 15.01 0 0 1 6.082-3.512c2.266-.664 4.727-.809 7.207-.293 8.066 1.668 13.258 9.578 11.59 17.664-.426 2.074-1.27 3.953-2.41 5.578-3.062 4.352-8.32 6.863-13.828 6.25" class="C"/><path d="M366 177.191c.586-.187 1.191-.34 1.801-.461l-.363.426.004 9.699-14.23 16.898v-.492l-17.012 26.82a17.35 17.35 0 0 1-14.652 8.07h-24.109v-10.457l26.43-.008 24.121-37.707.004-.004a31.26 31.26 0 0 1 .816-1.211l.184-.258a30.25 30.25 0 0 1 .863-1.145l.125-.152a36.19 36.19 0 0 1 .863-1.023l.141-.164a32.71 32.71 0 0 1 .996-1.074l.129-.129a34.3 34.3 0 0 1 2.223-2.07l.02-.012c3.957-3.344 8.324-5.426 11.648-5.547" class="F"/><path d="M406.273 177.156l-.004 7.133-.008 12.883-12.324-6.449-.176-.09.883-2.199.977-2.445 2.594-6.469.223-.559 3-7.477 4.836 5.672m-30.938 1.805l1.246 3.066 3.5 8.605-.176.09-12.461 6.449-.004-10.316-.004-9.699.363-.426.008-.008 4.484-5.238 3.043 7.477" fill="rgb(100%, 35.289001%, 7.839966%)"/><path fill="rgb(13.729858%, 12.159729%, 12.548828%)" d="M386.918 209.082l.152-.391h.547v82.57h-1.695v-82.57h.848l.148.391"/><path d="M392.844 216.02h21.699v3.516h-21.699v-3.516m-12.258 3.515h-21.699v-3.516h21.699v3.516m6.445-24.851a19.36 19.36 0 0 0 5.723-.871l-5.684 14.879-.152.391-.148-.391-1.371-3.59-4.344-11.367c1.887.605 3.891.949 5.977.949" class="H"/><path fill="rgb(0%, 29.798889%, 43.528748%)" d="M420.855 268.547l.039 16.273-.039-.02c-.719-.336-11.52-5.437-22.309-16.254h22.309"/><path d="M375.559 268.547c-11.164 11.191-22.348 16.273-22.348 16.273l.039-16.273h22.309" class="B"/></svg>