<svg xmlns="http://www.w3.org/2000/svg" xmlns:xlink="http://www.w3.org/1999/xlink" width="1124" zoomAndPan="magnify" viewBox="0 0 842.88 617.24998" height="823" preserveAspectRatio="xMidYMid meet" version="1.0"><defs><clipPath id="id1"><path d="M 190.097656 78 L 648 78 L 648 536 L 190.097656 536 Z M 190.097656 78 " clip-rule="nonzero"/></clipPath></defs><path fill="rgb(99.21875%, 98.81897%, 91.369629%)" d="M 626.320312 449.113281 C 644.285156 467.140625 644.285156 496.316406 626.320312 514.28125 C 608.355469 532.246094 579.175781 532.246094 561.152344 514.28125 L 501.476562 454.542969 L 566.582031 389.4375 L 626.320312 449.113281 " fill-opacity="1" fill-rule="nonzero"/><path fill="rgb(99.21875%, 98.81897%, 91.369629%)" d="M 527.894531 269.988281 C 527.894531 189.46875 462.546875 124.121094 382.027344 124.121094 C 301.507812 124.121094 236.160156 189.46875 236.160156 269.988281 C 236.160156 350.511719 301.507812 415.855469 382.027344 415.855469 C 462.546875 415.855469 527.894531 350.511719 527.894531 269.988281 Z M 566.28125 269.988281 C 566.28125 304.148438 556.984375 336.175781 540.699219 363.585938 C 524.894531 390.457031 502.496094 412.859375 475.625 428.664062 C 448.214844 444.945312 416.183594 454.242188 382.027344 454.242188 C 280.304688 454.242188 197.773438 371.714844 197.773438 269.988281 C 197.773438 168.265625 280.304688 85.734375 382.027344 85.734375 C 483.75 85.734375 566.28125 168.265625 566.28125 269.988281 " fill-opacity="1" fill-rule="nonzero"/><path fill="rgb(99.21875%, 98.81897%, 91.369629%)" d="M 489.507812 277.667969 L 489.507812 308.375 L 466.476562 308.375 C 466.476562 299.917969 459.578125 293.019531 451.121094 293.019531 C 442.664062 293.019531 435.769531 299.917969 435.769531 308.375 L 328.285156 308.375 C 328.285156 299.917969 321.390625 293.019531 312.933594 293.019531 C 304.476562 293.019531 297.578125 299.917969 297.578125 308.375 L 274.546875 308.375 L 274.546875 269.988281 C 274.546875 265.761719 277.996094 262.3125 282.222656 262.3125 L 474.246094 262.3125 L 489.507812 277.667969 " fill-opacity="1" fill-rule="nonzero"/><path fill="rgb(1.179504%, 66.268921%, 95.689392%)" d="M 481.832031 300.699219 L 472.746094 300.699219 C 469.566406 291.792969 461.109375 285.34375 451.121094 285.34375 C 441.136719 285.34375 432.679688 291.792969 429.5 300.699219 L 334.554688 300.699219 C 331.375 291.792969 322.917969 285.34375 312.933594 285.34375 C 302.945312 285.34375 294.488281 291.792969 291.308594 300.699219 L 282.222656 300.699219 L 282.222656 269.988281 L 471.035156 269.988281 L 481.832031 280.847656 Z M 451.121094 316.054688 C 446.894531 316.054688 443.445312 312.605469 443.445312 308.375 C 443.445312 304.148438 446.894531 300.699219 451.121094 300.699219 C 455.351562 300.699219 458.800781 304.148438 458.800781 308.375 C 458.800781 312.605469 455.351562 316.054688 451.121094 316.054688 Z M 312.933594 316.054688 C 308.703125 316.054688 305.253906 312.605469 305.253906 308.375 C 305.253906 304.148438 308.703125 300.699219 312.933594 300.699219 C 317.160156 300.699219 320.609375 304.148438 320.609375 308.375 C 320.609375 312.605469 317.160156 316.054688 312.933594 316.054688 Z M 330.925781 228.15625 C 332.214844 225.546875 334.855469 223.925781 337.761719 223.925781 L 366.671875 223.925781 L 366.671875 254.636719 L 317.671875 254.636719 Z M 426.261719 227.34375 L 444.464844 254.636719 L 382.027344 254.636719 L 382.027344 223.925781 L 419.875 223.925781 C 422.453125 223.925781 424.820312 225.214844 426.261719 227.34375 Z M 494.96875 272.238281 L 479.671875 256.882812 C 478.234375 255.445312 476.285156 254.636719 474.214844 254.636719 L 462.910156 254.636719 L 439.035156 218.828125 C 434.75 212.410156 427.582031 208.570312 419.875 208.570312 L 337.761719 208.570312 C 329.007812 208.570312 321.121094 213.460938 317.160156 221.289062 L 300.515625 254.636719 L 282.222656 254.636719 C 273.765625 254.636719 266.867188 261.53125 266.867188 269.988281 L 266.867188 308.375 C 266.867188 312.605469 270.316406 316.054688 274.546875 316.054688 L 291.308594 316.054688 C 294.488281 324.960938 302.945312 331.40625 312.933594 331.40625 C 322.917969 331.40625 331.375 324.960938 334.554688 316.054688 L 429.5 316.054688 C 432.679688 324.960938 441.136719 331.40625 451.121094 331.40625 C 461.109375 331.40625 469.566406 324.960938 472.746094 316.054688 L 489.507812 316.054688 C 493.738281 316.054688 497.1875 312.605469 497.1875 308.375 L 497.1875 277.667969 C 497.1875 275.628906 496.375 273.679688 494.96875 272.238281 " fill-opacity="1" fill-rule="nonzero"/><path fill="rgb(1.179504%, 66.268921%, 95.689392%)" d="M 382.027344 408.179688 C 305.824219 408.179688 243.835938 346.191406 243.835938 269.988281 C 243.835938 193.785156 305.824219 131.800781 382.027344 131.800781 C 458.230469 131.800781 520.21875 193.785156 520.21875 269.988281 C 520.21875 346.191406 458.230469 408.179688 382.027344 408.179688 Z M 382.027344 116.445312 C 297.367188 116.445312 228.484375 185.332031 228.484375 269.988281 C 228.484375 354.648438 297.367188 423.535156 382.027344 423.535156 C 466.6875 423.535156 535.574219 354.648438 535.574219 269.988281 C 535.574219 185.332031 466.6875 116.445312 382.027344 116.445312 " fill-opacity="1" fill-rule="nonzero"/><g clip-path="url(#id1)"><path fill="rgb(1.179504%, 66.268921%, 95.689392%)" d="M 620.890625 508.855469 C 605.957031 523.789062 581.574219 523.789062 566.582031 508.855469 L 512.332031 454.542969 L 566.582031 400.292969 L 620.863281 454.511719 C 635.828125 469.539062 635.828125 493.917969 620.890625 508.855469 Z M 542.050781 375.792969 L 555.726562 389.4375 L 501.476562 443.6875 L 487.828125 430.011719 C 509.332031 415.765625 527.804688 397.292969 542.050781 375.792969 Z M 205.449219 269.988281 C 205.449219 172.613281 284.652344 93.414062 382.027344 93.414062 C 479.402344 93.414062 558.605469 172.613281 558.605469 269.988281 C 558.605469 367.363281 479.402344 446.566406 382.027344 446.566406 C 284.652344 446.566406 205.449219 367.363281 205.449219 269.988281 Z M 631.746094 443.65625 L 550.265625 362.265625 C 565.351562 334.855469 573.957031 303.425781 573.957031 269.988281 C 573.957031 164.15625 487.859375 78.058594 382.027344 78.058594 C 276.195312 78.058594 190.097656 164.15625 190.097656 269.988281 C 190.097656 375.820312 276.195312 461.921875 382.027344 461.921875 C 415.464844 461.921875 446.894531 453.3125 474.304688 438.230469 L 555.726562 519.710938 C 566.222656 530.175781 579.988281 535.394531 593.75 535.394531 C 607.515625 535.394531 621.28125 530.175781 631.746094 519.710938 C 652.679688 498.777344 652.679688 464.679688 631.746094 443.65625 " fill-opacity="1" fill-rule="nonzero"/></g><path fill="rgb(1.179504%, 66.268921%, 95.689392%)" d="M 343.640625 162.507812 L 328.285156 162.507812 L 328.285156 177.863281 L 343.640625 177.863281 L 343.640625 162.507812 " fill-opacity="1" fill-rule="nonzero"/><path fill="rgb(1.179504%, 66.268921%, 95.689392%)" d="M 397.382812 177.863281 L 382.027344 177.863281 L 382.027344 193.21875 L 397.382812 193.21875 L 397.382812 177.863281 " fill-opacity="1" fill-rule="nonzero"/><path fill="rgb(1.179504%, 66.268921%, 95.689392%)" d="M 382.027344 362.117188 L 397.382812 362.117188 L 397.382812 346.761719 L 382.027344 346.761719 L 382.027344 362.117188 " fill-opacity="1" fill-rule="nonzero"/><path fill="rgb(1.179504%, 66.268921%, 95.689392%)" d="M 328.285156 369.792969 L 343.640625 369.792969 L 343.640625 354.4375 L 328.285156 354.4375 L 328.285156 369.792969 " fill-opacity="1" fill-rule="nonzero"/><path fill="rgb(1.179504%, 66.268921%, 95.689392%)" d="M 451.121094 162.507812 L 435.769531 162.507812 L 435.769531 177.863281 L 451.121094 177.863281 L 451.121094 162.507812 " fill-opacity="1" fill-rule="nonzero"/><path fill="rgb(1.179504%, 66.268921%, 95.689392%)" d="M 558.605469 124.121094 L 573.957031 124.121094 L 573.957031 108.769531 L 589.3125 108.769531 L 589.3125 93.414062 L 573.957031 93.414062 L 573.957031 78.058594 L 558.605469 78.058594 L 558.605469 93.414062 L 543.25 93.414062 L 543.25 108.769531 L 558.605469 108.769531 L 558.605469 124.121094 " fill-opacity="1" fill-rule="nonzero"/><path fill="rgb(1.179504%, 66.268921%, 95.689392%)" d="M 612.34375 269.988281 L 627.699219 269.988281 L 627.699219 254.636719 L 643.054688 254.636719 L 643.054688 239.28125 L 627.699219 239.28125 L 627.699219 223.925781 L 612.34375 223.925781 L 612.34375 239.28125 L 596.992188 239.28125 L 596.992188 254.636719 L 612.34375 254.636719 L 612.34375 269.988281 " fill-opacity="1" fill-rule="nonzero"/><path fill="rgb(1.179504%, 66.268921%, 95.689392%)" d="M 443.445312 492.628906 L 428.089844 492.628906 L 428.089844 507.984375 L 412.738281 507.984375 L 412.738281 523.339844 L 428.089844 523.339844 L 428.089844 538.691406 L 443.445312 538.691406 L 443.445312 523.339844 L 458.800781 523.339844 L 458.800781 507.984375 L 443.445312 507.984375 L 443.445312 492.628906 " fill-opacity="1" fill-rule="nonzero"/><path fill="rgb(1.179504%, 66.268921%, 95.689392%)" d="M 243.835938 431.210938 L 228.484375 431.210938 L 228.484375 446.566406 L 213.128906 446.566406 L 213.128906 461.921875 L 228.484375 461.921875 L 228.484375 477.273438 L 243.835938 477.273438 L 243.835938 461.921875 L 259.191406 461.921875 L 259.191406 446.566406 L 243.835938 446.566406 L 243.835938 431.210938 " fill-opacity="1" fill-rule="nonzero"/></svg>