<svg xmlns="http://www.w3.org/2000/svg" width="1124" zoomAndPan="magnify" viewBox="0 0 842.88 617.25" height="823" preserveAspectRatio="xMidYMid meet" xmlns:v="https://vecta.io/nano"><style><![CDATA[.B{fill:rgb(1.179504%, 66.268921%, 95.689392%)}]]></style><defs><clipPath id="A"><path d="M190.098 78H648v458H190.098zm0 0" clip-rule="nonzero"/></clipPath></defs><g class="B"><path d="M626.32 449.113c17.965 18.027 17.965 47.203 0 65.168s-47.145 17.965-65.168 0l-59.676-59.738 65.105-65.105 59.738 59.676m-98.424-179.126c0-80.52-65.348-145.867-145.867-145.867S236.16 189.469 236.16 269.988s65.348 145.867 145.867 145.867 145.867-65.344 145.867-145.867zm38.387 0c0 34.16-9.297 66.188-25.582 93.598a183.34 183.34 0 0 1-65.074 65.078c-27.41 16.281-59.441 25.578-93.598 25.578-101.723 0-184.254-82.527-184.254-184.254S280.305 85.734 382.027 85.734s184.254 82.531 184.254 184.254m-76.773 7.68v30.707h-23.031a15.39 15.39 0 0 0-15.355-15.355c-8.457 0-15.352 6.898-15.352 15.355H328.285c0-8.457-6.895-15.355-15.352-15.355a15.39 15.39 0 0 0-15.355 15.355h-23.031v-38.387c0-4.227 3.449-7.676 7.676-7.676h192.023l15.262 15.355"/><path d="M481.832 300.699h-9.086c-3.18-8.906-11.637-15.355-21.625-15.355s-18.441 6.449-21.621 15.355h-94.945c-3.18-8.906-11.637-15.355-21.621-15.355s-18.445 6.449-21.625 15.355h-9.086v-30.711h188.813l10.797 10.859zm-30.711 15.355c-4.227 0-7.676-3.449-7.676-7.68a7.69 7.69 0 0 1 7.676-7.676 7.7 7.7 0 0 1 7.68 7.676 7.7 7.7 0 0 1-7.68 7.68zm-138.187 0c-4.23 0-7.68-3.449-7.68-7.68s3.449-7.676 7.68-7.676a7.69 7.69 0 0 1 7.676 7.676 7.7 7.7 0 0 1-7.676 7.68zm17.992-87.898c1.289-2.609 3.93-4.23 6.836-4.23h28.91v30.711h-49zm95.336-.812l18.203 27.293h-62.437v-30.711h37.848c2.578 0 4.945 1.289 6.387 3.418zm68.707 44.895l-15.297-15.355c-1.437-1.437-3.387-2.246-5.457-2.246H462.91l-23.875-35.809a23.01 23.01 0 0 0-19.16-10.258h-82.113c-8.754 0-16.641 4.891-20.602 12.719l-16.645 33.348h-18.293c-8.457 0-15.355 6.895-15.355 15.352v38.387c0 4.23 3.449 7.68 7.68 7.68h16.762c3.18 8.906 11.637 15.352 21.625 15.352s18.441-6.445 21.621-15.352H429.5c3.18 8.906 11.637 15.352 21.621 15.352s18.445-6.445 21.625-15.352h16.762c4.23 0 7.68-3.449 7.68-7.68V277.67c0-2.039-.812-3.988-2.219-5.43M382.027 408.18c-76.203 0-138.191-61.988-138.191-138.191s61.988-138.187 138.191-138.187 138.191 61.984 138.191 138.187S458.23 408.18 382.027 408.18zm0-291.734c-84.66 0-153.543 68.887-153.543 153.543s68.883 153.547 153.543 153.547 153.547-68.887 153.547-153.547-68.887-153.543-153.547-153.543"/></g><g clip-path="url(#A)" class="B"><path d="M620.891 508.855c-14.934 14.934-39.316 14.934-54.309 0l-54.25-54.312 54.25-54.25 54.281 54.219c14.965 15.027 14.965 39.406.027 54.344zm-78.84-133.062l13.676 13.645-54.25 54.25-13.648-13.676c21.504-14.246 39.977-32.719 54.223-54.219zM205.449 269.988c0-97.375 79.203-176.574 176.578-176.574s176.578 79.199 176.578 176.574-79.203 176.578-176.578 176.578-176.578-79.203-176.578-176.578zm426.297 173.668l-81.48-81.391c15.086-27.41 23.691-58.84 23.691-92.277 0-105.832-86.098-191.93-191.93-191.93s-191.93 86.098-191.93 191.93 86.098 191.934 191.93 191.934a190.8 190.8 0 0 0 92.277-23.691l81.422 81.48c10.496 10.465 24.262 15.684 38.023 15.684s27.531-5.219 37.996-15.684c20.934-20.934 20.934-55.031 0-76.055"/></g><path d="M343.641 162.508h-15.355v15.355h15.355v-15.355m53.742 15.355h-15.355v15.355h15.355v-15.355m-15.356 184.254h15.355v-15.355h-15.355v15.355m-53.742 7.676h15.355v-15.355h-15.355v15.355m122.836-207.285H435.77v15.355h15.352v-15.355m107.483-38.387h15.352V108.77h15.355V93.414h-15.355V78.059h-15.352v15.355H543.25v15.355h15.355v15.352m53.739 145.867h15.355v-15.352h15.355v-15.355h-15.355v-15.355h-15.355v15.355h-15.352v15.355h15.352v15.352M443.445 492.629H428.09v15.355h-15.352v15.355h15.352v15.352h15.355V523.34H458.8v-15.355h-15.355V492.63m-199.609-61.419h-15.352v15.355h-15.355v15.355h15.355v15.352h15.352v-15.352h15.355v-15.355h-15.355v-15.355" class="B"/></svg>