<svg xmlns="http://www.w3.org/2000/svg" xmlns:xlink="http://www.w3.org/1999/xlink" width="350" zoomAndPan="magnify" viewBox="0 0 262.5 202.499994" height="270" preserveAspectRatio="xMidYMid meet" version="1.0"><defs><clipPath id="id1"><path d="M 68.527344 75 L 193.707031 75 L 193.707031 169.347656 L 68.527344 169.347656 Z M 68.527344 75 " clip-rule="nonzero"/></clipPath><clipPath id="id2"><path d="M 111 78 L 136 78 L 136 169.347656 L 111 169.347656 Z M 111 78 " clip-rule="nonzero"/></clipPath><clipPath id="id3"><path d="M 110 75 L 154 75 L 154 169.347656 L 110 169.347656 Z M 110 75 " clip-rule="nonzero"/></clipPath><clipPath id="id4"><path d="M 126 32.925781 L 178 32.925781 L 178 99 L 126 99 Z M 126 32.925781 " clip-rule="nonzero"/></clipPath></defs><path fill="rgb(61.959839%, 61.178589%, 61.569214%)" d="M 69.257812 166.847656 L 109.433594 168.578125 L 153.6875 164.3125 L 192.941406 166.847656 L 192.941406 78.847656 L 152.578125 76.3125 L 110.730469 80.578125 L 69.257812 78.847656 L 69.257812 166.847656 " fill-opacity="1" fill-rule="nonzero"/><g clip-path="url(#id1)"><path fill="rgb(13.729858%, 12.159729%, 12.548828%)" d="M 69.257812 166.847656 L 69.226562 167.589844 L 109.402344 169.320312 L 109.507812 169.316406 L 153.699219 165.0625 L 192.894531 167.589844 C 193.097656 167.601562 193.300781 167.53125 193.449219 167.390625 C 193.597656 167.25 193.683594 167.050781 193.683594 166.847656 L 193.683594 78.847656 C 193.683594 78.453125 193.378906 78.128906 192.988281 78.105469 L 152.621094 75.570312 C 152.578125 75.566406 152.546875 75.566406 152.503906 75.574219 L 110.710938 79.832031 L 69.289062 78.105469 C 69.085938 78.09375 68.886719 78.171875 68.742188 78.308594 C 68.597656 78.449219 68.515625 78.644531 68.515625 78.847656 L 68.515625 166.847656 C 68.515625 167.246094 68.828125 167.574219 69.226562 167.589844 L 69.257812 166.847656 L 70 166.847656 L 70 79.625 L 110.703125 81.320312 L 110.808594 81.320312 L 152.589844 77.058594 L 192.199219 79.546875 L 192.199219 166.050781 L 153.738281 163.570312 C 153.691406 163.566406 153.660156 163.566406 153.617188 163.570312 L 109.414062 167.832031 L 69.289062 166.101562 L 69.257812 166.847656 L 70 166.847656 L 69.257812 166.847656 " fill-opacity="1" fill-rule="nonzero"/></g><path fill="rgb(100%, 100%, 100%)" d="M 88.164062 156.703125 L 88.164062 161.820312 L 83.574219 161.632812 Z M 88.164062 156.703125 " fill-opacity="1" fill-rule="nonzero"/><path fill="rgb(13.729858%, 12.159729%, 12.548828%)" d="M 88.164062 156.703125 L 87.417969 156.703125 L 87.417969 161.042969 L 85.222656 160.957031 L 88.707031 157.210938 L 88.164062 156.703125 L 87.417969 156.703125 L 88.164062 156.703125 L 87.621094 156.195312 L 83.03125 161.125 C 82.832031 161.339844 82.777344 161.648438 82.886719 161.917969 C 83 162.1875 83.253906 162.367188 83.546875 162.378906 L 88.132812 162.5625 C 88.335938 162.570312 88.53125 162.496094 88.679688 162.355469 C 88.824219 162.214844 88.90625 162.019531 88.90625 161.820312 L 88.90625 156.703125 C 88.90625 156.398438 88.71875 156.121094 88.4375 156.011719 C 88.152344 155.898438 87.828125 155.972656 87.621094 156.195312 L 88.164062 156.703125 " fill-opacity="1" fill-rule="nonzero"/><path fill="rgb(100%, 100%, 100%)" d="M 166.886719 95.261719 L 188.867188 95.261719 L 188.867188 104.539062 L 164.300781 104.539062 L 166.886719 95.261719 " fill-opacity="1" fill-rule="nonzero"/><path fill="rgb(13.729858%, 12.159729%, 12.548828%)" d="M 166.886719 95.261719 L 166.886719 96.007812 L 188.125 96.007812 L 188.125 103.792969 L 165.277344 103.792969 L 167.601562 95.460938 L 166.886719 95.261719 L 166.886719 96.007812 L 166.886719 95.261719 L 166.171875 95.0625 L 163.582031 104.339844 C 163.519531 104.5625 163.566406 104.804688 163.707031 104.988281 C 163.847656 105.175781 164.066406 105.28125 164.300781 105.28125 L 188.867188 105.28125 C 189.0625 105.28125 189.253906 105.203125 189.394531 105.066406 C 189.53125 104.925781 189.609375 104.734375 189.609375 104.539062 L 189.609375 95.261719 C 189.609375 95.066406 189.53125 94.875 189.394531 94.734375 C 189.253906 94.59375 189.0625 94.515625 188.867188 94.515625 L 166.886719 94.515625 C 166.550781 94.515625 166.261719 94.738281 166.171875 95.0625 L 166.886719 95.261719 " fill-opacity="1" fill-rule="nonzero"/><path fill="rgb(54.508972%, 82.749939%, 45.098877%)" d="M 116.769531 109.214844 L 126 109.214844 L 106.574219 130.097656 L 92.78125 130.097656 L 92.78125 100.101562 L 77.402344 84.527344 L 112.074219 85.882812 L 116.769531 85.433594 L 116.769531 109.214844 " fill-opacity="1" fill-rule="nonzero"/><path fill="rgb(13.729858%, 12.159729%, 12.548828%)" d="M 116.769531 109.214844 L 116.769531 109.960938 L 124.292969 109.960938 L 106.25 129.351562 L 93.527344 129.351562 L 93.527344 100.101562 C 93.527344 99.902344 93.449219 99.714844 93.3125 99.578125 L 79.257812 85.347656 L 112.046875 86.625 L 112.144531 86.625 L 116.023438 86.253906 L 116.023438 109.214844 C 116.023438 109.414062 116.105469 109.605469 116.242188 109.742188 C 116.382812 109.882812 116.574219 109.960938 116.769531 109.960938 L 116.769531 109.214844 L 117.511719 109.214844 L 117.511719 85.433594 C 117.511719 85.222656 117.421875 85.023438 117.269531 84.882812 C 117.113281 84.742188 116.90625 84.671875 116.699219 84.695312 L 112.054688 85.136719 L 77.433594 83.785156 C 77.128906 83.773438 76.847656 83.949219 76.722656 84.230469 C 76.601562 84.507812 76.660156 84.835938 76.875 85.054688 L 92.039062 100.40625 L 92.039062 130.097656 C 92.039062 130.292969 92.117188 130.484375 92.257812 130.621094 C 92.394531 130.761719 92.585938 130.839844 92.78125 130.839844 L 106.574219 130.839844 C 106.78125 130.839844 106.976562 130.753906 107.117188 130.601562 L 126.546875 109.722656 C 126.75 109.507812 126.800781 109.191406 126.683594 108.917969 C 126.566406 108.648438 126.296875 108.472656 126 108.472656 L 116.769531 108.472656 L 116.769531 109.214844 L 117.511719 109.214844 L 116.769531 109.214844 " fill-opacity="1" fill-rule="nonzero"/><path fill="rgb(54.508972%, 82.749939%, 45.098877%)" d="M 156.695312 131.804688 L 162.996094 109.214844 L 188.867188 109.214844 L 188.867188 159.960938 L 156.695312 131.804688 " fill-opacity="1" fill-rule="nonzero"/><path fill="rgb(13.729858%, 12.159729%, 12.548828%)" d="M 156.695312 131.804688 L 157.414062 132.003906 L 163.558594 109.960938 L 188.125 109.960938 L 188.125 158.320312 L 157.1875 131.246094 L 156.695312 131.804688 L 157.414062 132.003906 L 156.695312 131.804688 L 156.207031 132.367188 L 188.378906 160.519531 C 188.597656 160.710938 188.910156 160.757812 189.175781 160.636719 C 189.441406 160.515625 189.609375 160.25 189.609375 159.960938 L 189.609375 109.214844 C 189.609375 109.019531 189.53125 108.828125 189.394531 108.691406 C 189.253906 108.550781 189.0625 108.472656 188.867188 108.472656 L 162.996094 108.472656 C 162.660156 108.472656 162.367188 108.691406 162.277344 109.015625 L 155.980469 131.605469 C 155.902344 131.882812 155.992188 132.175781 156.207031 132.367188 L 156.695312 131.804688 " fill-opacity="1" fill-rule="nonzero"/><path fill="rgb(100%, 100%, 100%)" d="M 73.332031 130.097656 L 73.332031 87.023438 L 88.164062 102.039062 L 88.164062 130.097656 L 73.332031 130.097656 " fill-opacity="1" fill-rule="nonzero"/><path fill="rgb(13.729858%, 12.159729%, 12.548828%)" d="M 73.332031 130.097656 L 74.074219 130.097656 L 74.074219 88.832031 L 87.417969 102.34375 L 87.417969 129.351562 L 73.332031 129.351562 L 73.332031 130.097656 L 74.074219 130.097656 L 73.332031 130.097656 L 73.332031 130.839844 L 88.164062 130.839844 C 88.359375 130.839844 88.550781 130.761719 88.691406 130.621094 C 88.828125 130.484375 88.90625 130.292969 88.90625 130.097656 L 88.90625 102.039062 C 88.90625 101.84375 88.828125 101.652344 88.691406 101.515625 L 73.859375 86.496094 C 73.648438 86.28125 73.324219 86.21875 73.046875 86.332031 C 72.769531 86.445312 72.585938 86.71875 72.585938 87.023438 L 72.585938 130.097656 C 72.585938 130.292969 72.664062 130.484375 72.804688 130.621094 C 72.941406 130.761719 73.132812 130.839844 73.332031 130.839844 L 73.332031 130.097656 " fill-opacity="1" fill-rule="nonzero"/><path fill="rgb(100%, 100%, 100%)" d="M 92.78125 144.917969 L 92.78125 134.773438 L 102.222656 134.773438 Z M 92.78125 144.917969 " fill-opacity="1" fill-rule="nonzero"/><path fill="rgb(13.729858%, 12.159729%, 12.548828%)" d="M 92.78125 144.917969 L 93.527344 144.917969 L 93.527344 135.519531 L 100.511719 135.519531 L 92.238281 144.410156 L 92.78125 144.917969 L 93.527344 144.917969 L 92.78125 144.917969 L 93.328125 145.425781 L 102.765625 135.28125 C 102.96875 135.0625 103.023438 134.746094 102.90625 134.476562 C 102.785156 134.203125 102.519531 134.027344 102.222656 134.027344 L 92.78125 134.027344 C 92.585938 134.027344 92.394531 134.109375 92.257812 134.246094 C 92.117188 134.386719 92.039062 134.578125 92.039062 134.773438 L 92.039062 144.917969 C 92.039062 145.222656 92.226562 145.496094 92.511719 145.609375 C 92.796875 145.722656 93.117188 145.648438 93.328125 145.425781 L 92.78125 144.917969 " fill-opacity="1" fill-rule="nonzero"/><path fill="rgb(100%, 100%, 100%)" d="M 168.191406 90.582031 L 170.226562 83.277344 L 188.867188 84.371094 L 188.867188 90.582031 L 168.191406 90.582031 " fill-opacity="1" fill-rule="nonzero"/><path fill="rgb(13.729858%, 12.159729%, 12.548828%)" d="M 168.191406 90.582031 L 168.90625 90.785156 L 170.78125 84.054688 L 188.125 85.074219 L 188.125 89.839844 L 168.191406 89.839844 L 168.191406 90.582031 L 168.90625 90.785156 L 168.191406 90.582031 L 168.191406 91.328125 L 188.867188 91.328125 C 189.0625 91.328125 189.253906 91.25 189.394531 91.109375 C 189.53125 90.972656 189.609375 90.777344 189.609375 90.582031 L 189.609375 84.371094 C 189.609375 83.976562 189.304688 83.652344 188.910156 83.628906 L 170.269531 82.53125 C 169.921875 82.511719 169.605469 82.738281 169.511719 83.078125 L 167.472656 90.382812 C 167.410156 90.609375 167.457031 90.847656 167.597656 91.03125 C 167.738281 91.21875 167.957031 91.328125 168.191406 91.328125 L 168.191406 90.582031 " fill-opacity="1" fill-rule="nonzero"/><path fill="rgb(100%, 100%, 100%)" d="M 155.3125 136.777344 L 182.828125 160.855469 L 152.199219 159.007812 L 149.03125 159.292969 L 155.3125 136.777344 " fill-opacity="1" fill-rule="nonzero"/><path fill="rgb(13.729858%, 12.159729%, 12.548828%)" d="M 155.3125 136.777344 L 154.820312 137.335938 L 180.699219 159.984375 L 152.246094 158.265625 L 152.132812 158.269531 L 150.039062 158.457031 L 156.027344 136.976562 L 155.3125 136.777344 L 154.820312 137.335938 L 155.3125 136.777344 L 154.59375 136.574219 L 148.316406 159.09375 C 148.25 159.328125 148.304688 159.582031 148.460938 159.769531 C 148.617188 159.957031 148.855469 160.058594 149.097656 160.035156 L 152.210938 159.753906 L 182.78125 161.601562 C 183.101562 161.621094 183.394531 161.433594 183.515625 161.140625 C 183.636719 160.84375 183.554688 160.507812 183.316406 160.296875 L 155.800781 136.214844 C 155.605469 136.046875 155.34375 135.988281 155.097656 136.0625 C 154.851562 136.136719 154.664062 136.328125 154.59375 136.574219 L 155.3125 136.777344 " fill-opacity="1" fill-rule="nonzero"/><path fill="rgb(29.019165%, 77.249146%, 95.689392%)" d="M 92.78125 151.738281 L 108.570312 134.773438 L 151.070312 134.773438 L 144.109375 159.738281 L 110.863281 162.734375 L 92.78125 162.003906 L 92.78125 151.738281 " fill-opacity="1" fill-rule="nonzero"/><path fill="rgb(13.729858%, 12.159729%, 12.548828%)" d="M 92.78125 151.738281 L 93.328125 152.246094 L 108.890625 135.519531 L 150.089844 135.519531 L 143.53125 159.042969 L 110.84375 161.988281 L 93.527344 161.289062 L 93.527344 151.738281 L 92.78125 151.738281 L 93.328125 152.246094 L 92.78125 151.738281 L 92.039062 151.738281 L 92.039062 162.003906 C 92.039062 162.40625 92.355469 162.734375 92.753906 162.75 L 110.832031 163.476562 L 110.929688 163.472656 L 144.175781 160.480469 C 144.484375 160.453125 144.742188 160.238281 144.824219 159.9375 L 151.785156 134.972656 C 151.847656 134.746094 151.800781 134.507812 151.660156 134.324219 C 151.519531 134.136719 151.304688 134.027344 151.070312 134.027344 L 108.570312 134.027344 C 108.363281 134.027344 108.167969 134.113281 108.027344 134.265625 L 92.238281 151.230469 C 92.109375 151.367188 92.039062 151.550781 92.039062 151.738281 L 92.78125 151.738281 " fill-opacity="1" fill-rule="nonzero"/><path fill="rgb(100%, 100%, 100%)" d="M 88.164062 134.773438 L 88.164062 149.882812 L 77.457031 161.386719 L 73.332031 161.222656 L 73.332031 134.773438 L 88.164062 134.773438 " fill-opacity="1" fill-rule="nonzero"/><path fill="rgb(13.729858%, 12.159729%, 12.548828%)" d="M 88.164062 134.773438 L 87.417969 134.773438 L 87.417969 149.589844 L 77.144531 160.628906 L 74.074219 160.507812 L 74.074219 135.519531 L 88.164062 135.519531 L 88.164062 134.773438 L 87.417969 134.773438 L 88.164062 134.773438 L 88.164062 134.027344 L 73.332031 134.027344 C 73.132812 134.027344 72.941406 134.109375 72.804688 134.246094 C 72.664062 134.386719 72.585938 134.578125 72.585938 134.773438 L 72.585938 161.222656 C 72.585938 161.621094 72.898438 161.949219 73.300781 161.964844 L 77.425781 162.132812 C 77.644531 162.140625 77.851562 162.054688 78 161.894531 L 88.707031 150.390625 C 88.835938 150.253906 88.90625 150.070312 88.90625 149.882812 L 88.90625 134.773438 C 88.90625 134.578125 88.828125 134.386719 88.691406 134.246094 C 88.550781 134.109375 88.359375 134.027344 88.164062 134.027344 L 88.164062 134.773438 " fill-opacity="1" fill-rule="nonzero"/><path fill="rgb(100%, 100%, 100%)" d="M 163.390625 90.582031 L 143.339844 90.582031 L 130.355469 104.539062 L 121.390625 104.539062 L 121.390625 84.996094 L 151.160156 82.15625 L 165.503906 83 L 163.390625 90.582031 " fill-opacity="1" fill-rule="nonzero"/><path fill="rgb(13.729858%, 12.159729%, 12.548828%)" d="M 163.390625 90.582031 L 163.390625 89.839844 L 143.339844 89.839844 C 143.132812 89.839844 142.933594 89.921875 142.792969 90.078125 L 130.03125 103.792969 L 122.132812 103.792969 L 122.132812 85.671875 L 151.175781 82.90625 L 164.539062 83.6875 L 162.671875 90.382812 L 163.390625 90.582031 L 163.390625 89.839844 L 163.390625 90.582031 L 164.105469 90.785156 L 166.21875 83.199219 C 166.28125 82.980469 166.238281 82.75 166.109375 82.566406 C 165.976562 82.382812 165.773438 82.269531 165.546875 82.257812 L 151.207031 81.414062 C 151.160156 81.410156 151.136719 81.414062 151.09375 81.417969 L 121.320312 84.253906 C 120.9375 84.289062 120.644531 84.609375 120.644531 84.996094 L 120.644531 104.539062 C 120.644531 104.734375 120.722656 104.925781 120.863281 105.066406 C 121.003906 105.203125 121.195312 105.28125 121.390625 105.28125 L 130.355469 105.28125 C 130.558594 105.28125 130.757812 105.199219 130.898438 105.046875 L 143.664062 91.328125 L 163.390625 91.328125 C 163.722656 91.328125 164.015625 91.105469 164.105469 90.785156 L 163.390625 90.582031 " fill-opacity="1" fill-rule="nonzero"/><path fill="rgb(100%, 100%, 100%)" d="M 112.921875 130.097656 L 132.347656 109.214844 L 158.195312 109.214844 L 152.375 130.097656 L 112.921875 130.097656 " fill-opacity="1" fill-rule="nonzero"/><path fill="rgb(13.729858%, 12.159729%, 12.548828%)" d="M 112.921875 130.097656 L 113.464844 130.601562 L 132.671875 109.960938 L 157.214844 109.960938 L 151.808594 129.351562 L 112.921875 129.351562 L 112.921875 130.097656 L 113.464844 130.601562 L 112.921875 130.097656 L 112.921875 130.839844 L 152.375 130.839844 C 152.707031 130.839844 153 130.621094 153.089844 130.296875 L 158.910156 109.417969 C 158.972656 109.191406 158.929688 108.953125 158.789062 108.765625 C 158.644531 108.578125 158.429688 108.472656 158.195312 108.472656 L 132.347656 108.472656 C 132.140625 108.472656 131.945312 108.558594 131.804688 108.707031 L 112.375 129.589844 C 112.175781 129.804688 112.121094 130.121094 112.238281 130.390625 C 112.355469 130.664062 112.625 130.839844 112.921875 130.839844 L 112.921875 130.097656 " fill-opacity="1" fill-rule="nonzero"/><path fill="rgb(29.019165%, 77.249146%, 95.689392%)" d="M 145.335938 95.261719 L 162.085938 95.261719 L 159.5 104.539062 L 136.703125 104.539062 L 145.335938 95.261719 " fill-opacity="1" fill-rule="nonzero"/><path fill="rgb(13.729858%, 12.159729%, 12.548828%)" d="M 145.335938 95.261719 L 145.335938 96.007812 L 161.105469 96.007812 L 158.933594 103.792969 L 138.410156 103.792969 L 145.878906 95.769531 L 145.335938 95.261719 L 145.335938 96.007812 L 145.335938 95.261719 L 144.789062 94.753906 L 136.15625 104.03125 C 135.953125 104.25 135.902344 104.5625 136.019531 104.835938 C 136.136719 105.109375 136.40625 105.28125 136.703125 105.28125 L 159.5 105.28125 C 159.835938 105.28125 160.125 105.0625 160.214844 104.738281 L 162.800781 95.460938 C 162.863281 95.238281 162.820312 94.996094 162.679688 94.8125 C 162.535156 94.625 162.320312 94.515625 162.085938 94.515625 L 145.335938 94.515625 C 145.125 94.515625 144.929688 94.601562 144.789062 94.753906 L 145.335938 95.261719 " fill-opacity="1" fill-rule="nonzero"/><path fill="rgb(54.508972%, 50.588989%, 55.688477%)" d="M 112.339844 167.550781 L 112.339844 163.347656 L 144.175781 160.480469 C 144.484375 160.453125 144.742188 160.238281 144.824219 159.9375 L 151.585938 135.683594 L 151.585938 147.363281 L 148.316406 159.09375 C 148.25 159.328125 148.304688 159.582031 148.460938 159.769531 C 148.601562 159.941406 148.8125 160.039062 149.03125 160.039062 C 149.054688 160.039062 149.078125 160.039062 149.097656 160.035156 L 151.585938 159.8125 L 151.585938 163.769531 L 134.132812 165.449219 L 112.339844 167.546875 M 151.585938 134.238281 C 151.449219 134.105469 151.265625 134.027344 151.070312 134.027344 L 112.339844 134.027344 L 112.339844 130.558594 C 112.476562 130.734375 112.691406 130.839844 112.921875 130.839844 L 112.921875 130.097656 L 113.464844 130.601562 L 112.921875 130.097656 L 112.921875 130.839844 L 151.585938 130.839844 L 151.585938 134.238281 " fill-opacity="1" fill-rule="nonzero"/><path fill="rgb(87.449646%, 82.749939%, 90.979004%)" d="M 150.039062 158.457031 L 151.585938 152.902344 L 151.585938 158.316406 L 150.039062 158.457031 " fill-opacity="1" fill-rule="nonzero"/><path fill="rgb(12.548828%, 10.198975%, 10.978699%)" d="M 149.03125 160.039062 C 148.8125 160.039062 148.601562 159.941406 148.460938 159.769531 C 148.304688 159.582031 148.25 159.328125 148.316406 159.09375 L 151.585938 147.363281 L 151.585938 152.902344 L 150.039062 158.457031 L 151.585938 158.316406 L 151.585938 159.8125 L 149.097656 160.035156 C 149.078125 160.039062 149.054688 160.039062 149.03125 160.039062 " fill-opacity="1" fill-rule="nonzero"/><path fill="rgb(26.669312%, 66.268921%, 87.449646%)" d="M 112.339844 161.851562 L 112.339844 135.519531 L 150.089844 135.519531 L 143.53125 159.042969 L 112.339844 161.851562 " fill-opacity="1" fill-rule="nonzero"/><path fill="rgb(12.548828%, 10.198975%, 10.978699%)" d="M 112.339844 163.347656 L 112.339844 161.851562 L 143.53125 159.042969 L 150.089844 135.519531 L 112.339844 135.519531 L 112.339844 134.027344 L 151.070312 134.027344 C 151.265625 134.027344 151.449219 134.105469 151.585938 134.238281 L 151.585938 135.683594 L 144.824219 159.9375 C 144.742188 160.238281 144.484375 160.453125 144.175781 160.480469 L 112.339844 163.347656 " fill-opacity="1" fill-rule="nonzero"/><path fill="rgb(54.508972%, 50.588989%, 55.688477%)" d="M 112.339844 129.632812 L 112.339844 124.992188 L 126.546875 109.722656 C 126.75 109.507812 126.800781 109.191406 126.683594 108.917969 C 126.566406 108.648438 126.296875 108.472656 126 108.472656 L 117.511719 108.472656 L 117.511719 85.433594 C 117.511719 85.222656 117.421875 85.023438 117.269531 84.882812 C 117.132812 84.757812 116.953125 84.6875 116.769531 84.6875 C 116.746094 84.6875 116.722656 84.691406 116.699219 84.695312 L 112.339844 85.109375 L 112.339844 81.164062 L 124.480469 79.925781 L 151.585938 77.164062 L 151.585938 81.4375 L 151.207031 81.414062 C 151.1875 81.414062 151.171875 81.414062 151.160156 81.414062 C 151.136719 81.414062 151.117188 81.414062 151.09375 81.417969 L 121.320312 84.253906 C 120.9375 84.289062 120.644531 84.609375 120.644531 84.996094 L 120.644531 104.539062 C 120.644531 104.734375 120.722656 104.925781 120.863281 105.066406 C 121.003906 105.203125 121.195312 105.28125 121.390625 105.28125 L 130.355469 105.28125 C 130.558594 105.28125 130.757812 105.199219 130.898438 105.046875 L 143.664062 91.328125 L 151.585938 91.328125 L 151.585938 94.515625 L 145.335938 94.515625 C 145.125 94.515625 144.929688 94.601562 144.789062 94.753906 L 136.15625 104.03125 C 135.953125 104.25 135.902344 104.5625 136.019531 104.835938 C 136.136719 105.109375 136.40625 105.28125 136.703125 105.28125 L 151.585938 105.28125 L 151.585938 108.472656 L 132.347656 108.472656 C 132.140625 108.472656 131.945312 108.558594 131.804688 108.707031 L 112.375 129.589844 C 112.363281 129.601562 112.351562 129.617188 112.339844 129.632812 " fill-opacity="1" fill-rule="nonzero"/><path fill="rgb(12.548828%, 10.198975%, 10.978699%)" d="M 112.339844 81.164062 L 112.339844 81.160156 L 124.480469 79.925781 L 112.339844 81.164062 " fill-opacity="1" fill-rule="nonzero"/><path fill="rgb(48.629761%, 70.588684%, 42.749023%)" d="M 112.339844 122.808594 L 112.339844 86.605469 L 116.023438 86.253906 L 116.023438 109.214844 C 116.023438 109.414062 116.105469 109.605469 116.242188 109.742188 C 116.382812 109.882812 116.574219 109.960938 116.769531 109.960938 L 124.292969 109.960938 L 112.339844 122.808594 " fill-opacity="1" fill-rule="nonzero"/><path fill="rgb(12.548828%, 10.198975%, 10.978699%)" d="M 112.339844 124.992188 L 112.339844 122.808594 L 124.292969 109.960938 L 116.769531 109.960938 C 116.574219 109.960938 116.382812 109.882812 116.242188 109.742188 C 116.105469 109.605469 116.023438 109.414062 116.023438 109.214844 L 116.023438 86.253906 L 112.339844 86.605469 L 112.339844 85.109375 L 116.699219 84.695312 C 116.722656 84.691406 116.746094 84.6875 116.769531 84.6875 C 116.953125 84.6875 117.132812 84.757812 117.269531 84.882812 C 117.421875 85.023438 117.511719 85.222656 117.511719 85.433594 L 117.511719 108.472656 L 126 108.472656 C 126.296875 108.472656 126.566406 108.648438 126.683594 108.917969 C 126.800781 109.191406 126.75 109.507812 126.546875 109.722656 L 112.339844 124.992188 " fill-opacity="1" fill-rule="nonzero"/><path fill="rgb(87.449646%, 82.749939%, 90.979004%)" d="M 130.03125 103.792969 L 122.132812 103.792969 L 122.132812 85.671875 L 151.175781 82.90625 L 151.585938 82.929688 L 151.585938 89.839844 L 143.339844 89.839844 C 143.132812 89.839844 142.933594 89.921875 142.792969 90.078125 L 130.03125 103.792969 " fill-opacity="1" fill-rule="nonzero"/><path fill="rgb(12.548828%, 10.198975%, 10.978699%)" d="M 130.355469 105.28125 L 121.390625 105.28125 C 121.195312 105.28125 121.003906 105.203125 120.863281 105.066406 C 120.722656 104.925781 120.644531 104.734375 120.644531 104.539062 L 120.644531 84.996094 C 120.644531 84.609375 120.9375 84.289062 121.320312 84.253906 L 151.09375 81.417969 C 151.117188 81.414062 151.136719 81.414062 151.160156 81.414062 C 151.171875 81.414062 151.1875 81.414062 151.207031 81.414062 L 151.585938 81.4375 L 151.585938 82.929688 L 151.175781 82.90625 L 122.132812 85.671875 L 122.132812 103.792969 L 130.03125 103.792969 L 142.792969 90.078125 C 142.933594 89.921875 143.132812 89.839844 143.339844 89.839844 L 151.585938 89.839844 L 151.585938 91.328125 L 143.664062 91.328125 L 130.898438 105.046875 C 130.757812 105.199219 130.558594 105.28125 130.355469 105.28125 " fill-opacity="1" fill-rule="nonzero"/><path fill="rgb(87.449646%, 82.749939%, 90.979004%)" d="M 151.585938 129.351562 L 114.628906 129.351562 L 132.671875 109.960938 L 151.585938 109.960938 L 151.585938 129.351562 " fill-opacity="1" fill-rule="nonzero"/><path fill="rgb(12.548828%, 10.198975%, 10.978699%)" d="M 151.585938 130.839844 L 112.921875 130.839844 L 112.921875 130.097656 L 113.464844 130.601562 L 112.921875 130.097656 L 112.921875 130.839844 C 112.691406 130.839844 112.476562 130.734375 112.339844 130.558594 L 112.339844 129.632812 C 112.351562 129.617188 112.363281 129.601562 112.375 129.589844 L 131.804688 108.707031 C 131.945312 108.558594 132.140625 108.472656 132.347656 108.472656 L 151.585938 108.472656 L 151.585938 109.960938 L 132.671875 109.960938 L 114.628906 129.351562 L 151.585938 129.351562 L 151.585938 130.839844 " fill-opacity="1" fill-rule="nonzero"/><path fill="rgb(26.669312%, 66.268921%, 87.449646%)" d="M 151.585938 103.792969 L 138.410156 103.792969 L 145.65625 96.007812 L 151.585938 96.007812 L 151.585938 103.792969 " fill-opacity="1" fill-rule="nonzero"/><path fill="rgb(12.548828%, 10.198975%, 10.978699%)" d="M 151.585938 105.28125 L 136.703125 105.28125 C 136.40625 105.28125 136.136719 105.109375 136.019531 104.835938 C 135.902344 104.5625 135.953125 104.25 136.15625 104.03125 L 144.789062 94.753906 C 144.929688 94.601562 145.125 94.515625 145.335938 94.515625 L 151.585938 94.515625 L 151.585938 96.007812 L 145.65625 96.007812 L 138.410156 103.792969 L 151.585938 103.792969 L 151.585938 105.28125 " fill-opacity="1" fill-rule="nonzero"/><g clip-path="url(#id2)"><path fill="rgb(13.729858%, 12.159729%, 12.548828%)" d="M 111.640625 169.113281 L 135.621094 166.804688 L 111.667969 169.109375 C 111.660156 169.113281 111.648438 169.113281 111.640625 169.113281 M 111.507812 79.75 C 111.511719 79.75 111.515625 79.75 111.519531 79.75 L 122.566406 78.625 L 111.507812 79.75 " fill-opacity="1" fill-rule="nonzero"/></g><path fill="rgb(13.729858%, 12.159729%, 12.548828%)" d="M 110.851562 167.691406 L 110.851562 163.476562 L 110.929688 163.472656 L 112.339844 163.347656 L 112.339844 167.550781 L 110.851562 167.691406 M 134.132812 165.449219 L 151.585938 163.769531 L 151.585938 159.8125 L 152.210938 159.753906 L 153.074219 159.808594 L 153.074219 163.625 L 134.132812 165.449219 M 151.585938 147.363281 L 151.585938 135.683594 L 151.785156 134.972656 C 151.847656 134.746094 151.800781 134.507812 151.660156 134.324219 C 151.636719 134.292969 151.613281 134.265625 151.585938 134.238281 L 151.585938 130.839844 L 152.375 130.839844 C 152.691406 130.839844 152.96875 130.640625 153.074219 130.347656 L 153.074219 142.03125 L 151.585938 147.363281 M 112.339844 134.027344 L 110.851562 134.027344 L 110.851562 126.589844 L 112.339844 124.992188 L 112.339844 129.632812 C 112.167969 129.84375 112.128906 130.136719 112.238281 130.390625 C 112.265625 130.453125 112.300781 130.511719 112.339844 130.558594 L 112.339844 134.027344 M 112.054688 85.136719 L 110.851562 85.089844 L 110.851562 81.3125 L 112.339844 81.164062 L 112.339844 85.109375 L 112.054688 85.136719 M 153.074219 81.523438 L 151.585938 81.4375 L 151.585938 77.164062 L 124.480469 79.925781 L 152.589844 77.058594 L 153.074219 77.089844 L 153.074219 81.523438 " fill-opacity="1" fill-rule="nonzero"/><g clip-path="url(#id3)"><path fill="rgb(13.729858%, 12.159729%, 12.548828%)" d="M 111.597656 169.113281 C 111.410156 169.113281 111.234375 169.042969 111.09375 168.917969 C 110.941406 168.777344 110.851562 168.578125 110.851562 168.367188 L 110.851562 167.691406 L 112.339844 167.546875 L 112.339844 167.550781 L 134.132812 165.449219 L 153.074219 163.625 L 153.074219 164.445312 C 153.074219 164.828125 152.785156 165.148438 152.402344 165.183594 L 135.621094 166.804688 L 111.640625 169.113281 C 111.625 169.113281 111.609375 169.113281 111.597656 169.113281 M 110.851562 81.3125 L 110.851562 80.488281 C 110.851562 80.113281 111.132812 79.796875 111.507812 79.75 L 122.566406 78.625 L 152.253906 75.597656 C 152.28125 75.597656 152.304688 75.59375 152.328125 75.59375 C 152.511719 75.59375 152.691406 75.664062 152.828125 75.785156 C 152.984375 75.925781 153.074219 76.128906 153.074219 76.339844 L 153.074219 77.089844 L 152.589844 77.058594 L 124.480469 79.925781 L 112.339844 81.160156 L 112.339844 81.164062 L 110.851562 81.3125 " fill-opacity="1" fill-rule="nonzero"/></g><path fill="rgb(6.669617%, 9.01947%, 5.099487%)" d="M 110.851562 124.40625 L 110.851562 86.578125 L 112.046875 86.625 L 112.144531 86.625 L 112.339844 86.605469 L 112.339844 122.808594 L 110.851562 124.40625 " fill-opacity="1" fill-rule="nonzero"/><path fill="rgb(13.729858%, 12.159729%, 12.548828%)" d="M 110.851562 126.589844 L 110.851562 124.40625 L 112.339844 122.808594 L 112.339844 124.992188 L 110.851562 126.589844 M 112.046875 86.625 L 110.851562 86.578125 L 110.851562 85.089844 L 112.054688 85.136719 L 112.339844 85.109375 L 112.339844 86.605469 L 112.144531 86.625 L 112.046875 86.625 " fill-opacity="1" fill-rule="nonzero"/><path fill="rgb(13.729858%, 12.159729%, 12.548828%)" d="M 151.585938 158.316406 L 151.585938 152.902344 L 153.074219 147.566406 L 153.074219 158.316406 L 152.246094 158.265625 L 152.132812 158.269531 L 151.585938 158.316406 " fill-opacity="1" fill-rule="nonzero"/><path fill="rgb(13.729858%, 12.159729%, 12.548828%)" d="M 151.585938 159.8125 L 151.585938 158.316406 L 152.132812 158.269531 L 152.246094 158.265625 L 153.074219 158.316406 L 153.074219 159.808594 L 152.210938 159.753906 L 151.585938 159.8125 M 151.585938 152.902344 L 151.585938 147.363281 L 153.074219 142.03125 L 153.074219 147.566406 L 151.585938 152.902344 " fill-opacity="1" fill-rule="nonzero"/><path fill="rgb(3.919983%, 7.839966%, 13.729858%)" d="M 110.851562 161.988281 L 110.851562 135.519531 L 112.339844 135.519531 L 112.339844 161.851562 L 110.851562 161.988281 " fill-opacity="1" fill-rule="nonzero"/><path fill="rgb(13.729858%, 12.159729%, 12.548828%)" d="M 110.851562 163.476562 L 110.851562 161.988281 L 112.339844 161.851562 L 112.339844 163.347656 L 110.929688 163.472656 L 110.851562 163.476562 M 151.585938 135.683594 L 151.585938 134.238281 C 151.613281 134.265625 151.636719 134.292969 151.660156 134.324219 C 151.800781 134.507812 151.847656 134.746094 151.785156 134.972656 L 151.585938 135.683594 M 112.339844 135.519531 L 110.851562 135.519531 L 110.851562 134.027344 L 112.339844 134.027344 L 112.339844 135.519531 " fill-opacity="1" fill-rule="nonzero"/><path fill="rgb(13.729858%, 12.159729%, 12.548828%)" d="M 151.585938 94.515625 L 153.074219 94.515625 L 153.074219 91.328125 L 151.585938 91.328125 Z M 151.585938 94.515625 " fill-opacity="1" fill-rule="nonzero"/><path fill="rgb(13.729858%, 12.159729%, 12.548828%)" d="M 153.074219 89.839844 L 151.585938 89.839844 L 151.585938 82.929688 L 153.074219 83.015625 L 153.074219 89.839844 " fill-opacity="1" fill-rule="nonzero"/><path fill="rgb(13.729858%, 12.159729%, 12.548828%)" d="M 153.074219 91.328125 L 151.585938 91.328125 L 151.585938 89.839844 L 153.074219 89.839844 L 153.074219 91.328125 M 153.074219 83.015625 L 151.585938 82.929688 L 151.585938 81.4375 L 153.074219 81.523438 L 153.074219 83.015625 " fill-opacity="1" fill-rule="nonzero"/><path fill="rgb(13.729858%, 12.159729%, 12.548828%)" d="M 151.585938 108.472656 L 153.074219 108.472656 L 153.074219 105.28125 L 151.585938 105.28125 Z M 151.585938 108.472656 " fill-opacity="1" fill-rule="nonzero"/><path fill="rgb(13.729858%, 12.159729%, 12.548828%)" d="M 151.808594 129.351562 L 151.585938 129.351562 L 151.585938 109.960938 L 153.074219 109.960938 L 153.074219 124.816406 L 151.808594 129.351562 " fill-opacity="1" fill-rule="nonzero"/><path fill="rgb(13.729858%, 12.159729%, 12.548828%)" d="M 152.375 130.839844 L 151.585938 130.839844 L 151.585938 129.351562 L 151.808594 129.351562 L 153.074219 124.816406 L 153.074219 130.347656 C 152.96875 130.640625 152.691406 130.839844 152.375 130.839844 M 112.339844 130.558594 C 112.300781 130.511719 112.265625 130.453125 112.238281 130.390625 C 112.128906 130.136719 112.167969 129.84375 112.339844 129.632812 L 112.339844 130.558594 M 153.074219 109.960938 L 151.585938 109.960938 L 151.585938 108.472656 L 153.074219 108.472656 L 153.074219 109.960938 " fill-opacity="1" fill-rule="nonzero"/><path fill="rgb(3.919983%, 7.839966%, 13.729858%)" d="M 151.585938 103.792969 L 153.074219 103.792969 L 153.074219 96.007812 L 151.585938 96.007812 Z M 151.585938 103.792969 " fill-opacity="1" fill-rule="nonzero"/><path fill="rgb(13.729858%, 12.159729%, 12.548828%)" d="M 153.074219 105.28125 L 151.585938 105.28125 L 151.585938 103.792969 L 153.074219 103.792969 L 153.074219 105.28125 M 153.074219 96.007812 L 151.585938 96.007812 L 151.585938 94.515625 L 153.074219 94.515625 L 153.074219 96.007812 " fill-opacity="1" fill-rule="nonzero"/><path fill="rgb(93.728638%, 21.569824%, 19.999695%)" d="M 127.480469 58.105469 C 127.480469 44.605469 138.410156 33.660156 151.898438 33.660156 C 165.382812 33.660156 176.3125 44.605469 176.3125 58.105469 C 176.3125 77.617188 152.132812 97.457031 152.132812 97.457031 C 152.132812 97.457031 127.480469 77.917969 127.480469 58.105469 " fill-opacity="1" fill-rule="nonzero"/><g clip-path="url(#id4)"><path fill="rgb(13.729858%, 12.159729%, 12.548828%)" d="M 127.480469 58.105469 L 128.222656 58.105469 C 128.222656 51.558594 130.871094 45.636719 135.15625 41.347656 C 139.441406 37.054688 145.355469 34.402344 151.898438 34.402344 C 158.4375 34.402344 164.351562 37.054688 168.636719 41.347656 C 172.921875 45.636719 175.570312 51.558594 175.570312 58.105469 C 175.570312 62.828125 174.101562 67.625 171.867188 72.160156 C 168.519531 78.960938 163.464844 85.160156 159.242188 89.640625 C 157.132812 91.882812 155.234375 93.695312 153.863281 94.949219 C 153.179688 95.574219 152.625 96.058594 152.246094 96.386719 C 152.054688 96.550781 151.910156 96.675781 151.808594 96.757812 C 151.761719 96.800781 151.722656 96.832031 151.699219 96.851562 L 151.660156 96.882812 L 152.132812 97.457031 L 152.59375 96.875 L 152.578125 96.863281 C 152.230469 96.585938 146.101562 91.648438 140.089844 84.390625 C 137.082031 80.761719 134.105469 76.550781 131.890625 72.066406 C 129.671875 67.582031 128.222656 62.828125 128.222656 58.105469 L 126.734375 58.105469 C 126.738281 63.214844 128.320312 68.257812 130.667969 72.945312 C 134.1875 79.980469 139.433594 86.234375 143.800781 90.75 C 148.164062 95.261719 151.652344 98.027344 151.671875 98.042969 C 151.945312 98.257812 152.332031 98.257812 152.605469 98.035156 C 152.628906 98.015625 158.703125 93.03125 164.800781 85.570312 C 167.847656 81.839844 170.898438 77.492188 173.203125 72.816406 C 175.5 68.144531 177.054688 63.140625 177.058594 58.105469 C 177.058594 44.191406 165.792969 32.914062 151.898438 32.914062 C 138 32.914062 126.738281 44.191406 126.734375 58.105469 L 127.480469 58.105469 " fill-opacity="1" fill-rule="nonzero"/></g><path fill="rgb(100%, 100%, 100%)" d="M 136.910156 55.53125 C 136.910156 63.582031 143.433594 70.113281 151.472656 70.113281 C 159.515625 70.113281 166.035156 63.582031 166.035156 55.53125 C 166.035156 47.480469 159.515625 40.953125 151.472656 40.953125 C 143.433594 40.953125 136.910156 47.480469 136.910156 55.53125 " fill-opacity="1" fill-rule="nonzero"/><path fill="rgb(13.729858%, 12.159729%, 12.548828%)" d="M 136.910156 55.53125 L 136.167969 55.53125 C 136.167969 63.996094 143.019531 70.855469 151.472656 70.855469 C 159.925781 70.855469 166.777344 63.996094 166.777344 55.53125 C 166.777344 47.066406 159.925781 40.207031 151.472656 40.207031 C 143.019531 40.207031 136.167969 47.066406 136.167969 55.53125 L 137.65625 55.53125 C 137.65625 51.707031 139.199219 48.253906 141.703125 45.75 C 144.207031 43.242188 147.65625 41.695312 151.472656 41.695312 C 155.292969 41.695312 158.742188 43.242188 161.246094 45.75 C 163.746094 48.253906 165.292969 51.707031 165.292969 55.53125 C 165.292969 59.355469 163.746094 62.808594 161.246094 65.3125 C 158.742188 67.820312 155.292969 69.367188 151.472656 69.367188 C 147.65625 69.367188 144.207031 67.820312 141.703125 65.3125 C 139.199219 62.808594 137.65625 59.355469 137.65625 55.53125 L 136.910156 55.53125 " fill-opacity="1" fill-rule="nonzero"/></svg>