<svg xmlns="http://www.w3.org/2000/svg" xmlns:xlink="http://www.w3.org/1999/xlink" width="350" zoomAndPan="magnify" viewBox="0 0 262.5 202.499994" height="270" preserveAspectRatio="xMidYMid meet" version="1.0"><defs><clipPath id="id1"><path d="M 0.0742188 0 L 261.925781 0 L 261.925781 202 L 0.0742188 202 Z M 0.0742188 0 " clip-rule="nonzero"/></clipPath><clipPath id="id2"><path d="M 78 41 L 187.53125 41 L 187.53125 174.578125 L 78 174.578125 Z M 78 41 " clip-rule="nonzero"/></clipPath><clipPath id="id3"><path d="M 75.097656 38.902344 L 185 38.902344 L 185 172 L 75.097656 172 Z M 75.097656 38.902344 " clip-rule="nonzero"/></clipPath></defs><g clip-path="url(#id1)"><path fill="rgb(100%, 100%, 100%)" d="M 0.0742188 0 L 262.425781 0 L 262.425781 209.132812 L 0.0742188 209.132812 Z M 0.0742188 0 " fill-opacity="1" fill-rule="nonzero"/><path fill="rgb(100%, 100%, 100%)" d="M 0.0742188 0 L 262.425781 0 L 262.425781 202.386719 L 0.0742188 202.386719 Z M 0.0742188 0 " fill-opacity="1" fill-rule="nonzero"/><path fill="rgb(100%, 100%, 100%)" d="M 0.0742188 0 L 262.425781 0 L 262.425781 202.386719 L 0.0742188 202.386719 Z M 0.0742188 0 " fill-opacity="1" fill-rule="nonzero"/><path fill="rgb(100%, 100%, 100%)" d="M 0.0742188 0 L 262.425781 0 L 262.425781 202.386719 L 0.0742188 202.386719 Z M 0.0742188 0 " fill-opacity="1" fill-rule="nonzero"/></g><g clip-path="url(#id2)"><path fill="rgb(80.778503%, 82.749939%, 85.879517%)" d="M 172.535156 102.636719 L 172.535156 166.882812 C 172.535156 171.15625 169.050781 174.578125 164.828125 174.578125 L 103.683594 174.578125 C 99.398438 174.578125 95.976562 171.097656 95.976562 166.882812 L 95.976562 102.351562 C 95.632812 102.179688 95.289062 102.007812 94.945312 101.835938 C 93.347656 102.691406 91.464844 103.207031 89.523438 103.207031 C 83.1875 103.207031 78.105469 98.019531 78.105469 91.746094 L 78.105469 78.691406 L 80.960938 78.691406 C 83.871094 75.160156 88.039062 72.195312 91.691406 69.914062 C 93.121094 69.003906 94.546875 68.035156 95.917969 67.007812 L 95.917969 49.621094 C 95.917969 45.34375 99.398438 41.925781 103.625 41.925781 L 164.769531 41.925781 C 169.050781 41.925781 172.476562 45.402344 172.476562 49.621094 L 172.476562 67.519531 C 173.5625 68.433594 174.648438 69.34375 175.789062 70.140625 C 178.984375 72.480469 182.46875 75.328125 184.867188 78.691406 L 187.492188 78.691406 L 187.492188 91.746094 C 187.492188 98.019531 182.410156 103.207031 176.074219 103.207031 C 174.820312 103.207031 173.5625 102.976562 172.421875 102.578125 Z M 172.535156 102.636719 " fill-opacity="1" fill-rule="evenodd"/></g><g clip-path="url(#id3)"><path fill="rgb(100%, 100%, 100%)" d="M 169.566406 99.613281 L 169.566406 163.859375 C 169.566406 168.136719 166.082031 171.554688 161.859375 171.554688 L 100.714844 171.554688 C 96.429688 171.554688 93.007812 168.078125 93.007812 163.859375 L 93.007812 99.328125 C 92.664062 99.160156 92.320312 98.988281 91.976562 98.816406 C 90.378906 99.671875 88.496094 100.183594 86.554688 100.183594 C 80.21875 100.183594 75.136719 94.996094 75.136719 88.726562 L 75.136719 75.671875 L 77.992188 75.671875 C 80.902344 72.136719 85.070312 69.171875 88.722656 66.894531 C 90.152344 65.980469 91.578125 65.011719 92.949219 63.984375 L 92.949219 46.597656 C 92.949219 42.324219 96.429688 38.902344 100.65625 38.902344 L 161.800781 38.902344 C 166.082031 38.902344 169.507812 42.378906 169.507812 46.597656 L 169.507812 64.5 C 170.59375 65.410156 171.679688 66.324219 172.820312 67.121094 C 176.015625 69.457031 179.5 72.308594 181.898438 75.671875 L 184.523438 75.671875 L 184.523438 88.726562 C 184.523438 94.996094 179.441406 100.183594 173.105469 100.183594 C 171.851562 100.183594 170.59375 99.957031 169.453125 99.558594 Z M 169.566406 99.613281 " fill-opacity="1" fill-rule="evenodd"/></g><path fill="rgb(36.468506%, 44.309998%, 56.079102%)" d="M 100.714844 44.890625 L 161.800781 44.890625 C 162.035156 44.890625 162.261719 44.933594 162.480469 45.023438 C 162.695312 45.113281 162.886719 45.242188 163.054688 45.40625 C 163.21875 45.570312 163.347656 45.761719 163.4375 45.980469 C 163.527344 46.195312 163.570312 46.421875 163.570312 46.65625 L 163.570312 163.859375 C 163.570312 164.09375 163.527344 164.320312 163.4375 164.535156 C 163.347656 164.753906 163.21875 164.945312 163.054688 165.109375 C 162.886719 165.273438 162.695312 165.402344 162.480469 165.492188 C 162.261719 165.582031 162.035156 165.628906 161.800781 165.628906 L 100.714844 165.628906 C 100.480469 165.628906 100.253906 165.582031 100.035156 165.492188 C 99.820312 165.402344 99.628906 165.273438 99.460938 165.109375 C 99.296875 164.945312 99.167969 164.753906 99.078125 164.535156 C 98.988281 164.320312 98.945312 164.09375 98.945312 163.859375 L 98.945312 46.65625 C 98.945312 46.421875 98.988281 46.195312 99.078125 45.980469 C 99.167969 45.761719 99.296875 45.570312 99.460938 45.40625 C 99.628906 45.242188 99.820312 45.113281 100.035156 45.023438 C 100.253906 44.933594 100.480469 44.890625 100.714844 44.890625 Z M 100.714844 44.890625 " fill-opacity="1" fill-rule="evenodd"/><path fill="rgb(51.368713%, 81.17981%, 56.079102%)" d="M 103.398438 61.191406 L 159.175781 61.191406 C 159.355469 61.191406 159.53125 61.226562 159.699219 61.296875 C 159.867188 61.367188 160.015625 61.464844 160.144531 61.59375 C 160.273438 61.722656 160.371094 61.871094 160.441406 62.039062 C 160.511719 62.203125 160.546875 62.378906 160.546875 62.5625 L 160.546875 147.957031 C 160.546875 148.136719 160.511719 148.3125 160.441406 148.480469 C 160.371094 148.644531 160.273438 148.792969 160.144531 148.921875 C 160.015625 149.050781 159.867188 149.148438 159.699219 149.21875 C 159.53125 149.289062 159.355469 149.324219 159.175781 149.324219 L 103.398438 149.324219 C 103.214844 149.324219 103.039062 149.289062 102.871094 149.21875 C 102.703125 149.148438 102.554688 149.050781 102.429688 148.921875 C 102.300781 148.792969 102.199219 148.644531 102.128906 148.480469 C 102.0625 148.3125 102.027344 148.136719 102.027344 147.957031 L 102.027344 62.5625 C 102.027344 62.378906 102.0625 62.203125 102.128906 62.039062 C 102.199219 61.871094 102.300781 61.722656 102.429688 61.59375 C 102.554688 61.464844 102.703125 61.367188 102.871094 61.296875 C 103.039062 61.226562 103.214844 61.191406 103.398438 61.191406 Z M 103.398438 61.191406 " fill-opacity="1" fill-rule="evenodd"/><path fill="rgb(89.408875%, 90.589905%, 92.939758%)" d="M 116.527344 52.355469 L 145.929688 52.355469 C 146.089844 52.355469 146.242188 52.386719 146.390625 52.449219 C 146.535156 52.507812 146.664062 52.59375 146.777344 52.707031 C 146.890625 52.820312 146.976562 52.949219 147.039062 53.09375 C 147.097656 53.242188 147.128906 53.394531 147.128906 53.554688 L 147.128906 53.609375 C 147.128906 53.769531 147.097656 53.921875 147.039062 54.070312 C 146.976562 54.214844 146.890625 54.34375 146.777344 54.457031 C 146.664062 54.570312 146.535156 54.65625 146.390625 54.71875 C 146.242188 54.777344 146.089844 54.808594 145.929688 54.808594 L 116.527344 54.808594 C 116.367188 54.808594 116.214844 54.777344 116.070312 54.71875 C 115.921875 54.65625 115.792969 54.570312 115.679688 54.457031 C 115.566406 54.34375 115.480469 54.214844 115.421875 54.070312 C 115.359375 53.921875 115.328125 53.769531 115.328125 53.609375 L 115.328125 53.554688 C 115.328125 53.394531 115.359375 53.242188 115.421875 53.09375 C 115.480469 52.949219 115.566406 52.820312 115.679688 52.707031 C 115.792969 52.59375 115.921875 52.507812 116.070312 52.449219 C 116.214844 52.386719 116.367188 52.355469 116.527344 52.355469 Z M 116.527344 52.355469 " fill-opacity="1" fill-rule="evenodd"/><path fill="rgb(89.408875%, 90.589905%, 92.939758%)" d="M 136.453125 158.101562 C 136.453125 158.441406 136.417969 158.78125 136.351562 159.113281 C 136.285156 159.449219 136.1875 159.773438 136.058594 160.085938 C 135.925781 160.402344 135.765625 160.699219 135.578125 160.984375 C 135.386719 161.265625 135.171875 161.53125 134.929688 161.769531 C 134.691406 162.011719 134.425781 162.226562 134.144531 162.414062 C 133.859375 162.605469 133.5625 162.765625 133.246094 162.894531 C 132.929688 163.023438 132.605469 163.125 132.269531 163.191406 C 131.9375 163.257812 131.597656 163.289062 131.257812 163.289062 C 130.917969 163.289062 130.578125 163.257812 130.242188 163.191406 C 129.910156 163.125 129.585938 163.023438 129.269531 162.894531 C 128.953125 162.765625 128.65625 162.605469 128.371094 162.414062 C 128.085938 162.226562 127.824219 162.011719 127.582031 161.769531 C 127.34375 161.53125 127.128906 161.265625 126.9375 160.984375 C 126.75 160.699219 126.589844 160.402344 126.457031 160.085938 C 126.328125 159.773438 126.230469 159.449219 126.160156 159.113281 C 126.09375 158.78125 126.0625 158.441406 126.0625 158.101562 C 126.0625 157.761719 126.09375 157.425781 126.160156 157.089844 C 126.230469 156.757812 126.328125 156.433594 126.457031 156.117188 C 126.589844 155.800781 126.75 155.503906 126.9375 155.21875 C 127.128906 154.9375 127.34375 154.675781 127.582031 154.433594 C 127.824219 154.191406 128.085938 153.976562 128.371094 153.789062 C 128.65625 153.601562 128.953125 153.441406 129.269531 153.308594 C 129.585938 153.179688 129.910156 153.082031 130.242188 153.015625 C 130.578125 152.949219 130.917969 152.914062 131.257812 152.914062 C 131.597656 152.914062 131.9375 152.949219 132.269531 153.015625 C 132.605469 153.082031 132.929688 153.179688 133.246094 153.308594 C 133.5625 153.441406 133.859375 153.601562 134.144531 153.789062 C 134.425781 153.976562 134.691406 154.191406 134.929688 154.433594 C 135.171875 154.675781 135.386719 154.9375 135.578125 155.21875 C 135.765625 155.503906 135.925781 155.800781 136.058594 156.117188 C 136.1875 156.433594 136.285156 156.757812 136.351562 157.089844 C 136.417969 157.425781 136.453125 157.761719 136.453125 158.101562 Z M 136.453125 158.101562 " fill-opacity="1" fill-rule="nonzero"/><path fill="rgb(89.408875%, 90.589905%, 92.939758%)" d="M 110.191406 53.667969 C 110.191406 54.089844 110.109375 54.5 109.945312 54.890625 C 109.785156 55.28125 109.554688 55.625 109.253906 55.925781 C 108.953125 56.222656 108.609375 56.457031 108.21875 56.617188 C 107.824219 56.777344 107.417969 56.859375 106.992188 56.859375 C 106.570312 56.859375 106.160156 56.777344 105.769531 56.617188 C 105.378906 56.457031 105.03125 56.222656 104.734375 55.925781 C 104.433594 55.625 104.203125 55.28125 104.039062 54.890625 C 103.878906 54.5 103.796875 54.089844 103.796875 53.667969 C 103.796875 53.246094 103.878906 52.835938 104.039062 52.445312 C 104.203125 52.054688 104.433594 51.710938 104.734375 51.410156 C 105.03125 51.109375 105.378906 50.878906 105.769531 50.71875 C 106.160156 50.554688 106.570312 50.476562 106.992188 50.476562 C 107.417969 50.476562 107.824219 50.554688 108.21875 50.71875 C 108.609375 50.878906 108.953125 51.109375 109.253906 51.410156 C 109.554688 51.710938 109.785156 52.054688 109.945312 52.445312 C 110.109375 52.835938 110.191406 53.246094 110.191406 53.667969 Z M 110.191406 53.667969 " fill-opacity="1" fill-rule="nonzero"/><path fill="rgb(96.859741%, 38.819885%, 35.688782%)" d="M 81.074219 81.714844 L 91.921875 81.714844 L 91.921875 88.785156 C 91.921875 91.804688 89.464844 94.257812 86.496094 94.257812 C 83.527344 94.257812 81.074219 91.804688 81.074219 88.785156 Z M 81.074219 81.714844 " fill-opacity="1" fill-rule="evenodd"/><path fill="rgb(92.549133%, 94.119263%, 94.509888%)" d="M 91.921875 81.714844 L 102.769531 81.714844 L 102.769531 88.785156 C 102.769531 91.804688 100.3125 94.257812 97.34375 94.257812 C 94.375 94.257812 91.921875 91.804688 91.921875 88.785156 Z M 91.921875 81.714844 " fill-opacity="1" fill-rule="evenodd"/><path fill="rgb(96.859741%, 38.819885%, 35.688782%)" d="M 102.769531 81.714844 L 113.617188 81.714844 L 113.617188 88.785156 C 113.617188 91.804688 111.160156 94.257812 108.191406 94.257812 C 105.222656 94.257812 102.769531 91.804688 102.769531 88.785156 Z M 102.769531 81.714844 " fill-opacity="1" fill-rule="evenodd"/><path fill="rgb(92.549133%, 94.119263%, 94.509888%)" d="M 113.558594 81.714844 L 124.40625 81.714844 L 124.40625 88.785156 C 124.40625 91.804688 121.953125 94.257812 118.984375 94.257812 C 116.015625 94.257812 113.558594 91.804688 113.558594 88.785156 Z M 113.558594 81.714844 " fill-opacity="1" fill-rule="evenodd"/><path fill="rgb(96.859741%, 38.819885%, 35.688782%)" d="M 124.40625 81.714844 L 135.253906 81.714844 L 135.253906 88.785156 C 135.253906 91.804688 132.800781 94.257812 129.832031 94.257812 C 126.863281 94.257812 124.40625 91.804688 124.40625 88.785156 Z M 124.40625 81.714844 " fill-opacity="1" fill-rule="evenodd"/><path fill="rgb(92.549133%, 94.119263%, 94.509888%)" d="M 135.253906 81.714844 L 146.101562 81.714844 L 146.101562 88.785156 C 146.101562 91.804688 143.644531 94.257812 140.675781 94.257812 C 137.707031 94.257812 135.253906 91.804688 135.253906 88.785156 Z M 135.253906 81.714844 " fill-opacity="1" fill-rule="evenodd"/><path fill="rgb(96.859741%, 38.819885%, 35.688782%)" d="M 146.101562 81.714844 L 156.949219 81.714844 L 156.949219 88.785156 C 156.949219 91.804688 154.492188 94.257812 151.523438 94.257812 C 148.554688 94.257812 146.101562 91.804688 146.101562 88.785156 Z M 146.101562 81.714844 " fill-opacity="1" fill-rule="evenodd"/><path fill="rgb(92.549133%, 94.119263%, 94.509888%)" d="M 156.949219 81.714844 L 167.796875 81.714844 L 167.796875 88.785156 C 167.796875 91.804688 165.339844 94.257812 162.371094 94.257812 C 159.402344 94.257812 156.949219 91.804688 156.949219 88.785156 Z M 156.949219 81.714844 " fill-opacity="1" fill-rule="evenodd"/><path fill="rgb(96.859741%, 38.819885%, 35.688782%)" d="M 167.796875 81.714844 L 178.644531 81.714844 L 178.644531 88.785156 C 178.644531 91.804688 176.1875 94.257812 173.21875 94.257812 C 170.25 94.257812 167.796875 91.804688 167.796875 88.785156 Z M 167.796875 81.714844 " fill-opacity="1" fill-rule="evenodd"/><path fill="rgb(100%, 43.919373%, 41.178894%)" d="M 102.710938 62.160156 C 104.824219 62.160156 106.9375 62.160156 109.046875 62.160156 C 107.734375 65.410156 104.59375 68.71875 100.429688 71.964844 C 96.316406 75.214844 93.175781 78.523438 91.863281 81.773438 C 88.265625 81.773438 84.613281 81.773438 81.015625 81.773438 C 82.671875 78.523438 86.667969 75.214844 91.863281 71.964844 C 97.058594 68.71875 101.054688 65.410156 102.710938 62.160156 Z M 102.710938 62.160156 " fill-opacity="1" fill-rule="evenodd"/><path fill="rgb(100%, 100%, 100%)" d="M 109.105469 62.160156 C 111.21875 62.160156 113.332031 62.160156 115.441406 62.160156 C 114.472656 65.410156 112.132812 68.71875 109.105469 71.964844 C 106.078125 75.214844 103.738281 78.523438 102.769531 81.773438 C 99.171875 81.773438 95.519531 81.773438 91.921875 81.773438 C 93.234375 78.523438 96.375 75.214844 100.484375 71.964844 C 104.59375 68.71875 107.792969 65.410156 109.105469 62.160156 Z M 109.105469 62.160156 " fill-opacity="1" fill-rule="evenodd"/><path fill="rgb(100%, 43.919373%, 41.178894%)" d="M 115.441406 62.160156 C 117.554688 62.160156 119.667969 62.160156 121.78125 62.160156 C 121.152344 65.410156 119.667969 68.71875 117.667969 71.964844 C 115.671875 75.214844 114.1875 78.523438 113.558594 81.773438 C 109.960938 81.773438 106.308594 81.773438 102.710938 81.773438 C 103.683594 78.523438 106.023438 75.214844 109.046875 71.964844 C 112.074219 68.71875 114.472656 65.410156 115.386719 62.160156 Z M 115.441406 62.160156 " fill-opacity="1" fill-rule="evenodd"/><path fill="rgb(100%, 100%, 100%)" d="M 121.835938 62.160156 C 123.949219 62.160156 126.0625 62.160156 128.230469 62.160156 C 127.945312 65.410156 127.261719 68.71875 126.347656 71.964844 C 125.433594 75.214844 124.75 78.523438 124.464844 81.773438 C 120.867188 81.773438 117.214844 81.773438 113.617188 81.773438 C 114.246094 78.523438 115.785156 75.214844 117.726562 71.964844 C 119.726562 68.71875 121.210938 65.410156 121.835938 62.160156 Z M 121.835938 62.160156 " fill-opacity="1" fill-rule="evenodd"/><path fill="rgb(100%, 43.919373%, 41.178894%)" d="M 128.175781 62.160156 C 130.285156 62.160156 132.398438 62.160156 134.511719 62.160156 C 134.570312 65.410156 134.683594 68.71875 134.855469 71.964844 C 135.027344 75.214844 135.140625 78.523438 135.195312 81.773438 C 131.601562 81.773438 127.945312 81.773438 124.347656 81.773438 C 124.636719 78.523438 125.320312 75.214844 126.234375 71.964844 C 127.148438 68.71875 127.832031 65.410156 128.117188 62.160156 Z M 128.175781 62.160156 " fill-opacity="1" fill-rule="evenodd"/><path fill="rgb(100%, 100%, 100%)" d="M 134.570312 62.160156 C 136.679688 62.160156 138.792969 62.160156 140.90625 62.160156 C 141.304688 65.410156 142.277344 68.71875 143.476562 71.964844 C 144.730469 75.214844 145.644531 78.523438 146.042969 81.773438 C 142.449219 81.773438 138.792969 81.773438 135.195312 81.773438 C 135.140625 78.523438 135.027344 75.214844 134.855469 71.964844 C 134.683594 68.71875 134.570312 65.410156 134.511719 62.160156 Z M 134.570312 62.160156 " fill-opacity="1" fill-rule="evenodd"/><path fill="rgb(100%, 43.919373%, 41.178894%)" d="M 140.90625 62.160156 C 143.019531 62.160156 145.128906 62.160156 147.242188 62.160156 C 147.984375 65.410156 149.753906 68.71875 152.097656 71.964844 C 154.4375 75.214844 156.207031 78.523438 156.949219 81.773438 C 153.351562 81.773438 149.699219 81.773438 146.101562 81.773438 C 145.703125 78.523438 144.730469 75.214844 143.53125 71.964844 C 142.277344 68.71875 141.363281 65.410156 140.964844 62.160156 Z M 140.90625 62.160156 " fill-opacity="1" fill-rule="evenodd"/><path fill="rgb(100%, 100%, 100%)" d="M 147.242188 62.160156 C 149.355469 62.160156 151.46875 62.160156 153.636719 62.160156 C 154.722656 65.410156 157.292969 68.71875 160.71875 71.964844 C 164.085938 75.214844 166.710938 78.523438 167.796875 81.773438 C 164.199219 81.773438 160.546875 81.773438 156.949219 81.773438 C 156.207031 78.523438 154.4375 75.214844 152.097656 71.964844 C 149.753906 68.71875 147.984375 65.410156 147.242188 62.160156 Z M 147.242188 62.160156 " fill-opacity="1" fill-rule="evenodd"/><path fill="rgb(100%, 43.919373%, 41.178894%)" d="M 153.636719 62.160156 C 155.75 62.160156 157.863281 62.160156 160.03125 62.160156 C 161.460938 65.410156 164.882812 68.71875 169.335938 71.964844 C 173.789062 75.214844 177.214844 78.523438 178.644531 81.773438 C 175.046875 81.773438 171.394531 81.773438 167.796875 81.773438 C 166.710938 78.523438 164.140625 75.214844 160.71875 71.964844 C 157.347656 68.71875 154.722656 65.410156 153.636719 62.160156 Z M 153.636719 62.160156 " fill-opacity="1" fill-rule="evenodd"/><path fill="rgb(100%, 43.919373%, 41.178894%)" d="M 101 61.191406 L 160.601562 61.191406 L 160.601562 63.074219 L 101 63.074219 Z M 101 61.191406 " fill-opacity="1" fill-rule="evenodd"/><path fill="rgb(100%, 89.019775%, 33.729553%)" d="M 116.640625 113.523438 L 145.871094 113.523438 C 146.371094 113.523438 146.867188 113.574219 147.355469 113.667969 C 147.84375 113.765625 148.316406 113.910156 148.777344 114.101562 C 149.238281 114.292969 149.675781 114.523438 150.089844 114.800781 C 150.507812 115.078125 150.890625 115.390625 151.242188 115.746094 C 151.59375 116.097656 151.910156 116.480469 152.1875 116.894531 C 152.464844 117.308594 152.699219 117.746094 152.886719 118.203125 C 153.078125 118.664062 153.222656 119.136719 153.320312 119.625 C 153.417969 120.113281 153.464844 120.609375 153.464844 121.105469 L 153.464844 126.351562 C 153.464844 126.847656 153.417969 127.339844 153.320312 127.828125 C 153.222656 128.316406 153.078125 128.792969 152.886719 129.25 C 152.699219 129.710938 152.464844 130.148438 152.1875 130.5625 C 151.910156 130.976562 151.59375 131.359375 151.242188 131.710938 C 150.890625 132.0625 150.507812 132.378906 150.089844 132.652344 C 149.675781 132.929688 149.238281 133.164062 148.777344 133.355469 C 148.316406 133.546875 147.84375 133.6875 147.355469 133.785156 C 146.867188 133.882812 146.371094 133.933594 145.871094 133.933594 L 116.640625 133.933594 C 116.144531 133.933594 115.648438 133.882812 115.160156 133.785156 C 114.671875 133.6875 114.195312 133.546875 113.734375 133.355469 C 113.277344 133.164062 112.839844 132.929688 112.421875 132.652344 C 112.007812 132.378906 111.625 132.0625 111.273438 131.710938 C 110.921875 131.359375 110.605469 130.976562 110.328125 130.5625 C 110.050781 130.148438 109.816406 129.710938 109.625 129.25 C 109.4375 128.792969 109.292969 128.316406 109.195312 127.828125 C 109.097656 127.339844 109.046875 126.847656 109.046875 126.351562 L 109.046875 121.105469 C 109.046875 120.609375 109.097656 120.113281 109.195312 119.625 C 109.292969 119.136719 109.4375 118.664062 109.625 118.203125 C 109.816406 117.746094 110.050781 117.308594 110.328125 116.894531 C 110.605469 116.480469 110.921875 116.097656 111.273438 115.746094 C 111.625 115.390625 112.007812 115.078125 112.421875 114.800781 C 112.839844 114.523438 113.277344 114.292969 113.734375 114.101562 C 114.195312 113.910156 114.671875 113.765625 115.160156 113.667969 C 115.648438 113.574219 116.144531 113.523438 116.640625 113.523438 Z M 116.640625 113.523438 " fill-opacity="1" fill-rule="evenodd"/><path fill="rgb(98.81897%, 82.749939%, 30.589294%)" d="M 153.464844 124.011719 L 153.464844 126.351562 C 153.464844 130.511719 150.039062 133.933594 145.871094 133.933594 L 116.640625 133.933594 C 112.472656 133.933594 109.046875 130.511719 109.046875 126.351562 L 109.046875 124.011719 Z M 153.464844 124.011719 " fill-opacity="1" fill-rule="evenodd"/><path fill="rgb(34.899902%, 38.819885%, 39.99939%)" d="M 125.148438 123.328125 C 126.121094 122.929688 126.691406 122.132812 126.691406 121.277344 C 126.691406 120.308594 126.175781 118.882812 123.265625 118.882812 C 122.410156 118.882812 121.550781 118.996094 121.039062 119.054688 L 121.039062 128.402344 C 121.4375 128.460938 122.066406 128.515625 122.921875 128.515625 C 124.464844 128.515625 125.546875 128.230469 126.175781 127.605469 C 126.519531 127.261719 126.976562 126.691406 126.976562 125.664062 C 126.976562 124.355469 126.0625 123.558594 125.089844 123.273438 L 125.089844 123.214844 Z M 122.523438 122.929688 L 122.523438 120.078125 C 122.695312 120.023438 122.980469 120.023438 123.4375 120.023438 C 124.347656 120.023438 125.261719 120.308594 125.261719 121.449219 C 125.261719 122.300781 124.519531 122.988281 123.378906 122.988281 L 122.523438 122.988281 Z M 122.523438 124.011719 L 123.378906 124.011719 C 124.464844 124.011719 125.546875 124.46875 125.546875 125.722656 C 125.546875 126.976562 124.578125 127.488281 123.378906 127.488281 C 122.980469 127.488281 122.695312 127.488281 122.523438 127.433594 Z M 135.3125 118.9375 L 133.882812 118.9375 L 133.882812 124.695312 C 133.882812 126.578125 133.140625 127.433594 131.941406 127.433594 C 130.859375 127.433594 130.058594 126.636719 130.058594 124.695312 L 130.058594 118.9375 L 128.632812 118.9375 L 128.632812 124.640625 C 128.632812 127.488281 129.945312 128.628906 131.886719 128.628906 C 133.941406 128.628906 135.3125 127.433594 135.3125 124.582031 Z M 141.992188 118.9375 L 140.847656 121.390625 C 140.5625 122.074219 140.277344 122.757812 139.992188 123.386719 C 139.765625 122.703125 139.480469 122.132812 139.136719 121.390625 L 137.996094 118.882812 L 136.339844 118.882812 L 139.136719 124.410156 L 139.136719 128.402344 L 140.5625 128.402344 L 140.5625 124.355469 L 143.53125 118.824219 L 141.933594 118.824219 Z M 141.992188 118.9375 " fill-opacity="1" fill-rule="nonzero"/><path fill="rgb(100%, 100%, 100%)" d="M 118.164062 104.417969 L 119.898438 103.644531 L 123.292969 111.230469 L 121.558594 112.003906 Z M 118.164062 104.417969 " fill-opacity="1" fill-rule="evenodd"/><path fill="rgb(100%, 100%, 100%)" d="M 130.378906 100.683594 L 132.277344 100.707031 L 132.1875 109.015625 L 130.289062 108.996094 Z M 130.378906 100.683594 " fill-opacity="1" fill-rule="evenodd"/><path fill="rgb(100%, 100%, 100%)" d="M 142.574219 103.609375 L 144.324219 104.34375 L 141.101562 112.003906 L 139.351562 111.269531 Z M 142.574219 103.609375 " fill-opacity="1" fill-rule="evenodd"/><path fill="rgb(100%, 100%, 100%)" d="M 118.164062 142.359375 L 119.898438 143.132812 L 123.292969 135.546875 L 121.558594 134.773438 Z M 118.164062 142.359375 " fill-opacity="1" fill-rule="evenodd"/><path fill="rgb(100%, 100%, 100%)" d="M 130.378906 146.09375 L 132.277344 146.074219 L 132.1875 137.765625 L 130.289062 137.785156 Z M 130.378906 146.09375 " fill-opacity="1" fill-rule="evenodd"/><path fill="rgb(100%, 100%, 100%)" d="M 142.574219 143.167969 L 144.324219 142.433594 L 141.101562 134.773438 L 139.351562 135.507812 Z M 142.574219 143.167969 " fill-opacity="1" fill-rule="evenodd"/></svg>