<svg xmlns="http://www.w3.org/2000/svg" xmlns:xlink="http://www.w3.org/1999/xlink" width="350" zoomAndPan="magnify" viewBox="0 0 262.5 202.499994" height="270" preserveAspectRatio="xMidYMid meet" version="1.0"><defs><clipPath id="id1"><path d="M 0.0742188 0 L 261.925781 0 L 261.925781 202 L 0.0742188 202 Z M 0.0742188 0 " clip-rule="nonzero"/></clipPath><clipPath id="id2"><path d="M 69.46875 57 L 179 57 L 179 166.402344 L 69.46875 166.402344 Z M 69.46875 57 " clip-rule="nonzero"/></clipPath><clipPath id="id3"><path d="M 159 35.976562 L 178 35.976562 L 178 69 L 159 69 Z M 159 35.976562 " clip-rule="nonzero"/></clipPath></defs><g clip-path="url(#id1)"><path fill="rgb(100%, 100%, 100%)" d="M 0.0742188 0 L 262.425781 0 L 262.425781 209.132812 L 0.0742188 209.132812 Z M 0.0742188 0 " fill-opacity="1" fill-rule="nonzero"/><path fill="rgb(100%, 100%, 100%)" d="M 0.0742188 0 L 262.425781 0 L 262.425781 202.386719 L 0.0742188 202.386719 Z M 0.0742188 0 " fill-opacity="1" fill-rule="nonzero"/><path fill="rgb(100%, 100%, 100%)" d="M 0.0742188 0 L 262.425781 0 L 262.425781 202.386719 L 0.0742188 202.386719 Z M 0.0742188 0 " fill-opacity="1" fill-rule="nonzero"/><path fill="rgb(100%, 100%, 100%)" d="M 0.0742188 0 L 262.425781 0 L 262.425781 202.386719 L 0.0742188 202.386719 Z M 0.0742188 0 " fill-opacity="1" fill-rule="nonzero"/></g><g clip-path="url(#id2)"><path fill="rgb(92.939758%, 41.958618%, 26.669312%)" d="M 178.585938 111.996094 C 178.585938 112.0625 178.585938 112.132812 178.582031 112.199219 C 178.5625 118.5625 177.449219 124.664062 175.414062 130.335938 C 175.140625 131.097656 174.855469 131.84375 174.542969 132.585938 L 174.542969 132.589844 C 168.640625 147.015625 156.71875 158.34375 141.890625 163.460938 C 139.984375 164.121094 138.042969 164.679688 136.050781 165.113281 C 132.203125 165.980469 128.199219 166.433594 124.09375 166.433594 C 118.511719 166.433594 113.125 165.597656 108.058594 164.035156 C 106.773438 163.640625 105.511719 163.199219 104.273438 162.714844 C 84.332031 154.933594 70.109375 135.765625 69.613281 113.214844 C 69.601562 112.808594 69.597656 112.402344 69.597656 111.996094 C 69.597656 111.59375 69.601562 111.1875 69.613281 110.78125 C 69.949219 95.242188 76.8125 81.300781 87.570312 71.589844 C 88.429688 70.8125 89.3125 70.070312 90.21875 69.351562 C 99.523438 61.964844 111.289062 57.550781 124.09375 57.550781 C 128.199219 57.550781 132.203125 58 136.046875 58.863281 C 138.035156 59.308594 139.992188 59.867188 141.894531 60.527344 C 157.394531 65.871094 169.71875 78 175.316406 93.367188 L 175.316406 93.371094 C 175.746094 94.546875 176.136719 95.742188 176.488281 96.960938 C 177.640625 100.972656 178.339844 105.1875 178.53125 109.523438 C 178.566406 110.339844 178.585938 111.167969 178.585938 111.996094 Z M 178.585938 111.996094 " fill-opacity="1" fill-rule="nonzero"/></g><path fill="rgb(100%, 100%, 100%)" d="M 167.453125 111.996094 C 167.453125 112.054688 167.453125 112.105469 167.449219 112.160156 C 167.433594 117.222656 166.550781 122.078125 164.925781 126.589844 C 164.710938 127.195312 164.480469 127.789062 164.234375 128.378906 L 164.234375 128.382812 C 159.535156 139.859375 150.046875 148.875 138.25 152.945312 C 136.734375 153.464844 135.191406 153.910156 133.605469 154.257812 C 130.542969 154.949219 127.359375 155.308594 124.089844 155.308594 C 119.648438 155.308594 115.363281 154.640625 111.328125 153.398438 C 110.304688 153.085938 109.296875 152.738281 108.316406 152.351562 C 92.449219 146.160156 81.128906 130.902344 80.734375 112.960938 C 80.730469 112.640625 80.722656 112.3125 80.722656 111.992188 C 80.722656 111.667969 80.730469 111.347656 80.734375 111.023438 C 81.003906 98.65625 86.460938 87.566406 95.023438 79.84375 C 95.710938 79.222656 96.410156 78.628906 97.132812 78.0625 C 104.53125 72.183594 113.898438 68.675781 124.089844 68.675781 C 127.355469 68.675781 130.539062 69.035156 133.597656 69.722656 C 135.183594 70.078125 136.734375 70.523438 138.257812 71.046875 C 150.585938 75.300781 160.390625 84.957031 164.851562 97.179688 L 164.851562 97.183594 C 165.191406 98.121094 165.5 99.078125 165.78125 100.042969 C 166.699219 103.238281 167.253906 106.585938 167.410156 110.039062 C 167.4375 110.675781 167.453125 111.335938 167.453125 111.996094 Z M 167.453125 111.996094 " fill-opacity="1" fill-rule="nonzero"/><path fill="rgb(92.939758%, 41.958618%, 26.669312%)" d="M 155.636719 111.996094 C 155.636719 112.039062 155.636719 112.078125 155.632812 112.113281 C 155.621094 115.796875 154.976562 119.328125 153.800781 122.609375 C 153.644531 123.050781 153.476562 123.484375 153.296875 123.914062 C 149.882812 132.261719 142.980469 138.824219 134.398438 141.785156 C 133.296875 142.160156 132.171875 142.488281 131.015625 142.738281 C 128.789062 143.242188 126.46875 143.5 124.09375 143.5 C 120.863281 143.5 117.746094 143.015625 114.808594 142.117188 C 114.066406 141.890625 113.335938 141.636719 112.613281 141.355469 C 101.074219 136.851562 92.839844 125.753906 92.550781 112.703125 C 92.546875 112.46875 92.542969 112.230469 92.542969 111.996094 C 92.542969 111.761719 92.546875 111.527344 92.550781 111.289062 C 92.746094 102.296875 96.71875 94.222656 102.945312 88.605469 C 103.441406 88.15625 103.953125 87.726562 104.476562 87.3125 C 109.859375 83.039062 116.671875 80.480469 124.085938 80.480469 C 126.457031 80.480469 128.777344 80.742188 131 81.242188 C 132.148438 81.5 133.28125 81.820312 134.386719 82.203125 C 143.359375 85.296875 150.488281 92.316406 153.734375 101.214844 L 153.734375 101.21875 C 153.984375 101.898438 154.210938 102.59375 154.410156 103.292969 C 155.074219 105.617188 155.476562 108.054688 155.589844 110.566406 C 155.621094 111.035156 155.636719 111.515625 155.636719 111.996094 Z M 155.636719 111.996094 " fill-opacity="1" fill-rule="nonzero"/><path fill="rgb(100%, 100%, 100%)" d="M 144.25 111.996094 C 144.25 112.023438 144.25 112.046875 144.25 112.074219 C 144.246094 114.425781 143.828125 116.683594 143.078125 118.78125 C 142.980469 119.0625 142.871094 119.339844 142.753906 119.613281 C 140.570312 124.953125 136.164062 129.140625 130.675781 131.03125 C 129.976562 131.277344 129.253906 131.480469 128.515625 131.644531 C 127.09375 131.96875 125.613281 132.128906 124.09375 132.128906 C 122.03125 132.128906 120.035156 131.824219 118.164062 131.246094 C 117.6875 131.101562 117.222656 130.9375 116.761719 130.761719 C 109.386719 127.882812 104.125 120.789062 103.9375 112.453125 C 103.933594 112.304688 103.933594 112.148438 103.933594 112 C 103.933594 111.851562 103.933594 111.707031 103.9375 111.550781 C 104.0625 105.804688 106.601562 100.644531 110.582031 97.058594 C 110.898438 96.769531 111.226562 96.496094 111.558594 96.230469 C 115 93.492188 119.355469 91.863281 124.089844 91.863281 C 125.609375 91.863281 127.089844 92.03125 128.511719 92.347656 C 129.25 92.511719 129.96875 92.714844 130.675781 92.960938 C 136.410156 94.941406 140.96875 99.425781 143.035156 105.109375 C 143.195312 105.542969 143.339844 105.988281 143.472656 106.4375 C 143.894531 107.921875 144.15625 109.480469 144.230469 111.085938 C 144.246094 111.382812 144.25 111.691406 144.25 111.996094 Z M 144.25 111.996094 " fill-opacity="1" fill-rule="nonzero"/><path fill="rgb(92.939758%, 41.958618%, 26.669312%)" d="M 133.039062 111.992188 C 133.039062 112 133.039062 112.011719 133.039062 112.027344 C 133.035156 113.070312 132.855469 114.074219 132.519531 115.003906 C 132.472656 115.125 132.425781 115.25 132.375 115.371094 C 131.40625 117.738281 129.449219 119.597656 127.011719 120.4375 C 126.699219 120.546875 126.382812 120.636719 126.054688 120.707031 C 125.425781 120.851562 124.765625 120.921875 124.089844 120.921875 C 123.171875 120.921875 122.289062 120.785156 121.457031 120.53125 C 121.25 120.464844 121.039062 120.390625 120.835938 120.316406 C 117.558594 119.035156 115.226562 115.886719 115.144531 112.1875 C 115.144531 112.121094 115.144531 112.054688 115.144531 111.984375 C 115.144531 111.917969 115.144531 111.851562 115.144531 111.785156 C 115.199219 109.234375 116.324219 106.945312 118.089844 105.351562 C 118.234375 105.222656 118.378906 105.097656 118.527344 104.980469 C 120.050781 103.769531 121.984375 103.042969 124.089844 103.042969 C 124.765625 103.042969 125.417969 103.121094 126.050781 103.257812 C 126.378906 103.332031 126.699219 103.421875 127.011719 103.53125 C 129.554688 104.410156 131.582031 106.398438 132.5 108.921875 C 132.570312 109.117188 132.632812 109.3125 132.691406 109.511719 C 132.882812 110.171875 132.996094 110.863281 133.03125 111.570312 C 133.035156 111.71875 133.039062 111.859375 133.039062 111.992188 Z M 133.039062 111.992188 " fill-opacity="1" fill-rule="nonzero"/><g clip-path="url(#id3)"><path fill="rgb(100%, 85.879517%, 13.729858%)" d="M 161.992188 68.675781 L 159.070312 55.246094 L 174.933594 35.996094 L 177.128906 52.496094 Z M 161.992188 68.675781 " fill-opacity="1" fill-rule="nonzero"/></g><path fill="rgb(100%, 85.879517%, 13.729858%)" d="M 192.972656 54.277344 L 179.355469 52.335938 L 161.28125 69.535156 L 177.917969 70.527344 Z M 192.972656 54.277344 " fill-opacity="1" fill-rule="nonzero"/><path fill="rgb(24.308777%, 25.489807%, 39.99939%)" d="M 122.785156 110.832031 L 177.28125 49.699219 L 179.894531 52.023438 L 125.398438 113.160156 Z M 122.785156 110.832031 " fill-opacity="1" fill-rule="nonzero"/><path fill="rgb(24.308777%, 25.489807%, 39.99939%)" d="M 122.785156 110.832031 L 121.53125 115.128906 L 125.398438 113.15625 Z M 122.785156 110.832031 " fill-opacity="1" fill-rule="nonzero"/></svg>