<svg xmlns="http://www.w3.org/2000/svg" xmlns:xlink="http://www.w3.org/1999/xlink" width="350" zoomAndPan="magnify" viewBox="0 0 262.5 202.499994" height="270" preserveAspectRatio="xMidYMid meet" version="1.0"><defs><clipPath id="id1"><path d="M 0.0742188 0 L 261.925781 0 L 261.925781 202 L 0.0742188 202 Z M 0.0742188 0 " clip-rule="nonzero"/></clipPath><clipPath id="id2"><path d="M 58.355469 48.070312 L 203.773438 48.070312 L 203.773438 154.511719 L 58.355469 154.511719 Z M 58.355469 48.070312 " clip-rule="nonzero"/></clipPath></defs><g clip-path="url(#id1)"><path fill="rgb(100%, 100%, 100%)" d="M 0.0742188 0 L 262.425781 0 L 262.425781 209.132812 L 0.0742188 209.132812 Z M 0.0742188 0 " fill-opacity="1" fill-rule="nonzero"/><path fill="rgb(100%, 100%, 100%)" d="M 0.0742188 0 L 262.425781 0 L 262.425781 202.386719 L 0.0742188 202.386719 Z M 0.0742188 0 " fill-opacity="1" fill-rule="nonzero"/><path fill="rgb(100%, 100%, 100%)" d="M 0.0742188 0 L 262.425781 0 L 262.425781 202.386719 L 0.0742188 202.386719 Z M 0.0742188 0 " fill-opacity="1" fill-rule="nonzero"/><path fill="rgb(100%, 100%, 100%)" d="M 0.0742188 0 L 262.425781 0 L 262.425781 202.386719 L 0.0742188 202.386719 Z M 0.0742188 0 " fill-opacity="1" fill-rule="nonzero"/></g><path fill="rgb(96.078491%, 41.958618%, 8.628845%)" d="M 141.492188 114.011719 L 79.734375 114.011719 C 69.15625 114.011719 60.5 105.316406 60.5 94.691406 L 60.5 81.261719 L 60.5 107.492188 C 60.5 117.832031 68.921875 126.292969 79.21875 126.292969 L 153.71875 126.292969 C 152.03125 124.59375 150.34375 122.898438 148.652344 121.199219 C 146.265625 118.804688 143.878906 116.40625 141.492188 114.011719 Z M 141.492188 114.011719 " fill-opacity="1" fill-rule="nonzero"/><path fill="rgb(100%, 100%, 100%)" d="M 138.078125 110.574219 C 136.320312 108.800781 136.558594 106.363281 138.585938 105.109375 C 139.921875 104.28125 141.4375 104.453125 142.554688 105.574219 C 145.355469 108.382812 148.15625 111.199219 150.957031 114.011719 L 157.9375 114.011719 C 158.183594 113.058594 158.824219 112.21875 159.617188 111.765625 C 160.910156 111.027344 162.667969 111.25 163.722656 112.308594 C 164.0625 112.648438 164.402344 112.988281 164.742188 113.328125 C 165.894531 113.011719 167.007812 112.59375 168.066406 112.074219 C 168.035156 112.035156 168 111.992188 167.960938 111.953125 C 166.8125 110.71875 167.40625 108.199219 168.472656 107.320312 C 170.011719 106.046875 171.746094 106.058594 173.113281 107.429688 C 173.292969 107.605469 173.46875 107.785156 173.644531 107.964844 C 176.917969 104.496094 178.941406 99.820312 178.941406 94.691406 L 178.941406 69.5 C 178.941406 58.871094 170.285156 50.179688 159.707031 50.179688 L 79.734375 50.179688 C 69.15625 50.179688 60.5 58.871094 60.5 69.5 L 60.5 94.691406 C 60.5 105.316406 69.15625 114.011719 79.734375 114.011719 L 141.492188 114.011719 C 140.355469 112.867188 139.214844 111.722656 138.078125 110.574219 Z M 138.078125 110.574219 " fill-opacity="1" fill-rule="nonzero"/><path fill="rgb(100%, 100%, 100%)" d="M 100.296875 80.59375 C 100.40625 80.453125 100.511719 80.308594 100.613281 80.160156 C 101.4375 78.9375 101.855469 77.550781 101.855469 76.035156 C 101.855469 74.308594 101.417969 72.726562 100.558594 71.332031 C 99.703125 69.949219 98.511719 68.859375 97.019531 68.097656 C 95.570312 67.355469 93.917969 66.980469 92.105469 66.980469 L 84.140625 66.980469 C 83.113281 66.980469 82.191406 67.347656 81.457031 68.054688 C 80.714844 68.777344 80.324219 69.730469 80.324219 70.8125 L 80.324219 93.476562 C 80.324219 94.527344 80.707031 95.46875 81.433594 96.195312 C 82.160156 96.925781 83.09375 97.3125 84.140625 97.3125 L 92.804688 97.3125 C 94.777344 97.3125 96.582031 96.894531 98.171875 96.078125 C 99.816406 95.234375 101.117188 94.023438 102.042969 92.480469 C 102.957031 90.949219 103.421875 89.214844 103.421875 87.320312 C 103.421875 85.183594 102.828125 83.363281 101.65625 81.917969 C 101.253906 81.417969 100.796875 80.976562 100.296875 80.59375 Z M 95.226562 89.191406 C 94.652344 89.675781 93.863281 89.914062 92.804688 89.914062 L 87.957031 89.914062 L 87.957031 85.125 L 92.804688 85.125 C 93.902344 85.125 94.746094 85.347656 95.3125 85.792969 C 95.613281 86.027344 95.921875 86.390625 95.921875 87.320312 C 95.921875 88.460938 95.523438 88.933594 95.226562 89.191406 Z M 93.9375 77.230469 C 93.535156 77.558594 92.917969 77.730469 92.105469 77.730469 L 87.957031 77.730469 L 87.957031 74.378906 L 92.105469 74.378906 C 92.925781 74.378906 93.546875 74.546875 93.953125 74.875 C 94.074219 74.972656 94.355469 75.199219 94.355469 76.035156 C 94.355469 76.886719 94.066406 77.125 93.9375 77.230469 Z M 93.9375 77.230469 " fill-opacity="1" fill-rule="nonzero"/><path fill="rgb(100%, 100%, 100%)" d="M 126.414062 68.058594 C 125.671875 68.777344 125.28125 69.734375 125.28125 70.8125 L 125.28125 86.449219 C 125.28125 87.222656 125.09375 87.886719 124.707031 88.480469 C 124.300781 89.097656 123.742188 89.574219 123 89.933594 C 121.332031 90.730469 118.851562 90.683594 117.230469 89.925781 C 116.445312 89.558594 115.863281 89.078125 115.441406 88.453125 C 115.042969 87.867188 114.851562 87.210938 114.851562 86.449219 L 114.851562 70.8125 C 114.851562 69.746094 114.472656 68.800781 113.75 68.074219 C 112.335938 66.667969 109.835938 66.621094 108.351562 68.054688 C 107.609375 68.777344 107.214844 69.730469 107.214844 70.8125 L 107.214844 86.449219 C 107.214844 88.667969 107.796875 90.675781 108.941406 92.417969 C 110.074219 94.144531 111.65625 95.503906 113.65625 96.457031 C 115.585938 97.378906 117.789062 97.847656 120.199219 97.847656 C 122.550781 97.847656 124.707031 97.375 126.597656 96.445312 C 128.546875 95.488281 130.097656 94.117188 131.203125 92.378906 C 132.316406 90.625 132.878906 88.632812 132.878906 86.449219 L 132.878906 70.8125 C 132.878906 69.746094 132.503906 68.800781 131.78125 68.074219 C 130.355469 66.652344 127.890625 66.632812 126.414062 68.058594 Z M 126.414062 68.058594 " fill-opacity="1" fill-rule="nonzero"/><path fill="rgb(100%, 100%, 100%)" d="M 161.894531 68.148438 C 161.226562 67.394531 160.300781 66.980469 159.289062 66.980469 C 157.910156 66.980469 156.742188 67.617188 155.996094 68.789062 L 149.828125 78.550781 L 143.753906 68.878906 C 143.378906 68.320312 142.988281 67.898438 142.546875 67.589844 C 141.242188 66.679688 139.183594 66.796875 137.875 67.992188 C 137.089844 68.707031 136.675781 69.648438 136.675781 70.714844 C 136.675781 71.457031 136.910156 72.199219 137.371094 72.917969 L 145.941406 86.292969 L 145.941406 93.476562 C 145.941406 94.527344 146.324219 95.46875 147.046875 96.195312 C 147.773438 96.925781 148.699219 97.3125 149.722656 97.3125 C 150.769531 97.3125 151.703125 96.925781 152.433594 96.195312 C 153.15625 95.464844 153.539062 94.523438 153.539062 93.476562 L 153.539062 86.296875 L 162.1875 72.894531 C 162.621094 72.199219 162.839844 71.457031 162.839844 70.679688 C 162.839844 69.722656 162.511719 68.847656 161.894531 68.148438 Z M 161.894531 68.148438 " fill-opacity="1" fill-rule="nonzero"/><path fill="rgb(96.078491%, 41.958618%, 8.628845%)" d="M 95.269531 78.878906 L 95.300781 78.851562 C 96.074219 78.195312 96.46875 77.25 96.46875 76.035156 C 96.46875 74.808594 96.066406 73.863281 95.277344 73.21875 C 94.484375 72.582031 93.421875 72.261719 92.105469 72.261719 L 85.847656 72.261719 L 85.847656 79.847656 L 92.105469 79.847656 C 93.414062 79.847656 94.476562 79.523438 95.269531 78.878906 Z M 95.269531 78.878906 " fill-opacity="1" fill-rule="nonzero"/><path fill="rgb(96.078491%, 41.958618%, 8.628845%)" d="M 84.140625 99.433594 L 92.804688 99.433594 C 95.113281 99.433594 97.242188 98.9375 99.132812 97.964844 C 101.132812 96.941406 102.71875 95.460938 103.851562 93.574219 C 104.644531 92.246094 105.15625 90.796875 105.386719 89.25 C 105.710938 90.804688 106.308594 92.257812 107.179688 93.585938 C 108.523438 95.640625 110.398438 97.25 112.746094 98.371094 C 114.964844 99.429688 117.472656 99.96875 120.199219 99.96875 C 122.878906 99.96875 125.34375 99.425781 127.519531 98.351562 C 129.824219 97.222656 131.660156 95.597656 132.984375 93.515625 C 134.316406 91.417969 134.992188 89.039062 134.992188 86.449219 L 134.992188 72.898438 C 135.148438 73.296875 135.351562 73.683594 135.59375 74.0625 L 143.828125 86.917969 L 143.828125 93.476562 C 143.828125 95.078125 144.441406 96.574219 145.550781 97.691406 C 146.664062 98.8125 148.144531 99.433594 149.722656 99.433594 C 151.34375 99.433594 152.796875 98.828125 153.925781 97.691406 C 155.039062 96.570312 155.648438 95.074219 155.648438 93.476562 L 155.648438 86.921875 L 163.976562 74.019531 C 164.621094 72.980469 164.949219 71.859375 164.949219 70.679688 C 164.949219 69.195312 164.4375 67.832031 163.472656 66.742188 L 163.46875 66.738281 C 162.394531 65.527344 160.910156 64.859375 159.289062 64.859375 C 157.199219 64.859375 155.347656 65.875 154.210938 67.652344 L 149.832031 74.585938 L 145.503906 67.695312 C 144.988281 66.921875 144.417969 66.316406 143.75 65.847656 C 141.59375 64.34375 138.457031 64.59375 136.457031 66.417969 C 135.628906 67.171875 135.058594 68.121094 134.773438 69.171875 C 134.507812 68.191406 134.003906 67.308594 133.269531 66.566406 C 131.039062 64.347656 127.230469 64.332031 124.949219 66.527344 L 124.941406 66.535156 C 123.796875 67.652344 123.167969 69.171875 123.167969 70.816406 L 123.167969 86.449219 C 123.167969 86.8125 123.101562 87.070312 122.941406 87.316406 C 122.820312 87.5 122.601562 87.773438 122.089844 88.019531 C 121.035156 88.523438 119.21875 88.515625 118.121094 88.003906 C 117.550781 87.734375 117.3125 87.453125 117.1875 87.265625 C 117.027344 87.03125 116.960938 86.785156 116.960938 86.449219 L 116.960938 70.816406 C 116.960938 69.171875 116.367188 67.707031 115.234375 66.566406 C 112.992188 64.339844 109.171875 64.320312 106.882812 66.53125 C 105.734375 67.644531 105.105469 69.167969 105.105469 70.816406 L 105.105469 84.078125 C 104.734375 82.78125 104.132812 81.613281 103.292969 80.578125 C 103.199219 80.464844 103.105469 80.351562 103.003906 80.238281 C 103.644531 78.949219 103.96875 77.539062 103.96875 76.035156 C 103.96875 73.910156 103.421875 71.949219 102.351562 70.210938 C 101.285156 68.496094 99.816406 67.148438 97.976562 66.210938 C 96.230469 65.3125 94.253906 64.859375 92.105469 64.859375 L 84.140625 64.859375 C 82.558594 64.859375 81.125 65.4375 79.992188 66.53125 C 78.84375 67.644531 78.214844 69.167969 78.214844 70.8125 L 78.214844 93.476562 C 78.214844 95.082031 78.828125 96.582031 79.941406 97.695312 C 81.054688 98.816406 82.546875 99.433594 84.140625 99.433594 Z M 139.296875 69.558594 C 139.636719 69.25 140.105469 69.109375 140.53125 69.109375 C 140.84375 69.109375 141.132812 69.183594 141.332031 69.324219 C 141.554688 69.480469 141.773438 69.722656 141.964844 70.007812 L 149.824219 82.519531 L 157.773438 69.933594 C 158.132812 69.375 158.628906 69.101562 159.289062 69.101562 C 159.703125 69.101562 160.046875 69.257812 160.320312 69.5625 C 160.589844 69.867188 160.726562 70.246094 160.726562 70.679688 C 160.726562 71.054688 160.621094 71.410156 160.417969 71.738281 L 151.429688 85.667969 L 151.429688 93.476562 C 151.429688 93.964844 151.265625 94.363281 150.9375 94.695312 C 150.292969 95.34375 149.222656 95.378906 148.542969 94.695312 C 148.210938 94.363281 148.050781 93.964844 148.050781 93.476562 L 148.050781 85.671875 L 139.144531 71.765625 C 138.90625 71.394531 138.785156 71.042969 138.785156 70.714844 C 138.785156 70.25 138.953125 69.875 139.296875 69.558594 Z M 109.328125 70.816406 C 109.328125 70.304688 109.488281 69.898438 109.8125 69.582031 C 110.136719 69.273438 110.597656 69.117188 111.054688 69.117188 C 111.503906 69.117188 111.953125 69.269531 112.253906 69.570312 C 112.578125 69.898438 112.738281 70.304688 112.738281 70.816406 L 112.738281 86.449219 C 112.738281 87.632812 113.058594 88.707031 113.691406 89.648438 C 114.332031 90.59375 115.199219 91.3125 116.339844 91.847656 C 118.59375 92.902344 121.707031 92.902344 123.914062 91.84375 C 124.996094 91.320312 125.859375 90.582031 126.472656 89.644531 C 127.082031 88.707031 127.394531 87.632812 127.394531 86.449219 L 127.394531 70.816406 C 127.394531 70.308594 127.550781 69.90625 127.878906 69.582031 C 128.527344 68.964844 129.675781 68.960938 130.285156 69.570312 C 130.613281 69.898438 130.769531 70.304688 130.769531 70.816406 L 130.769531 86.449219 C 130.769531 88.21875 130.316406 89.832031 129.425781 91.234375 C 128.527344 92.648438 127.261719 93.757812 125.664062 94.542969 C 124.066406 95.328125 122.230469 95.726562 120.199219 95.726562 C 118.105469 95.726562 116.207031 95.328125 114.558594 94.542969 C 112.917969 93.757812 111.621094 92.652344 110.707031 91.25 C 109.792969 89.859375 109.328125 88.242188 109.328125 86.449219 Z M 82.4375 70.816406 C 82.4375 70.304688 82.597656 69.898438 82.921875 69.582031 C 83.257812 69.257812 83.65625 69.101562 84.140625 69.101562 L 92.105469 69.101562 C 93.582031 69.101562 94.914062 69.398438 96.0625 69.988281 C 97.203125 70.570312 98.113281 71.402344 98.765625 72.449219 C 99.414062 73.503906 99.746094 74.710938 99.746094 76.035156 C 99.746094 77.132812 99.457031 78.089844 98.859375 78.976562 C 98.789062 79.082031 98.710938 79.1875 98.632812 79.289062 L 97.3125 80.988281 L 99.023438 82.289062 C 99.386719 82.5625 99.722656 82.886719 100.019531 83.253906 C 100.875 84.3125 101.3125 85.679688 101.3125 87.320312 C 101.3125 88.820312 100.949219 90.191406 100.230469 91.386719 C 99.515625 92.585938 98.5 93.527344 97.207031 94.191406 C 95.917969 94.855469 94.4375 95.191406 92.804688 95.191406 L 84.140625 95.191406 C 83.65625 95.191406 83.257812 95.03125 82.925781 94.695312 C 82.597656 94.367188 82.4375 93.96875 82.4375 93.476562 Z M 82.4375 70.816406 " fill-opacity="1" fill-rule="nonzero"/><path fill="rgb(96.078491%, 41.958618%, 8.628845%)" d="M 96.589844 90.808594 L 96.59375 90.804688 C 97.550781 89.988281 98.035156 88.816406 98.035156 87.320312 C 98.035156 85.925781 97.550781 84.847656 96.609375 84.121094 C 95.664062 83.378906 94.386719 83.003906 92.804688 83.003906 L 85.847656 83.003906 L 85.847656 92.03125 L 92.804688 92.03125 C 94.359375 92.03125 95.632812 91.621094 96.589844 90.808594 Z M 96.589844 90.808594 " fill-opacity="1" fill-rule="nonzero"/><g clip-path="url(#id2)"><path fill="rgb(96.078491%, 41.958618%, 8.628845%)" d="M 202.378906 118.71875 C 201.640625 116.414062 200.339844 114.304688 198.515625 112.449219 C 194.097656 107.960938 189.644531 103.503906 185.183594 99.054688 C 184.054688 97.929688 182.632812 97.285156 181.050781 97.234375 L 181.050781 71.382812 C 181.050781 58.523438 170.632812 48.058594 157.828125 48.058594 L 81.613281 48.058594 C 68.808594 48.058594 58.386719 58.523438 58.386719 71.382812 L 58.386719 105.085938 C 58.386719 117.949219 68.808594 128.414062 81.613281 128.414062 L 149.605469 128.414062 C 150.464844 129.285156 151.230469 130.058594 151.84375 130.683594 C 150.667969 130.679688 149.539062 130.667969 148.414062 130.609375 C 145.25 130.449219 142.765625 131.820312 141.03125 134.695312 C 139.613281 137.046875 139.617188 139.671875 141.039062 142.285156 C 142.226562 144.460938 144.300781 145.25 146.367188 145.78125 C 148.6875 146.378906 151.316406 147.054688 153.835938 147.871094 C 156.765625 148.824219 159.722656 149.882812 162.578125 150.90625 L 164.0625 151.4375 C 168.753906 153.117188 172.671875 154.0625 176.398438 154.414062 C 177.003906 154.472656 177.609375 154.496094 178.214844 154.496094 C 179.492188 154.496094 180.753906 154.386719 181.960938 154.265625 C 184.019531 154.050781 185.941406 153.0625 187.671875 151.328125 L 190.980469 148.003906 C 194.160156 144.8125 197.339844 141.621094 200.5 138.414062 C 201.046875 137.855469 201.507812 137.125 201.796875 136.347656 C 202.929688 133.316406 203.5625 129.992188 203.671875 126.46875 C 203.746094 124.152344 203.335938 121.6875 202.378906 118.71875 Z M 62.609375 71.386719 C 62.609375 60.863281 71.136719 52.300781 81.613281 52.300781 L 157.828125 52.300781 C 168.304688 52.300781 176.828125 60.863281 176.828125 71.386719 L 176.828125 92.804688 C 176.828125 94.828125 176.511719 96.78125 175.925781 98.613281 C 174.628906 99.484375 173.636719 100.753906 172.976562 102.40625 C 171.222656 102.039062 169.25 101.929688 167.316406 102.96875 C 165.558594 103.910156 164.273438 105.367188 163.484375 107.308594 C 162.429688 107.039062 161.21875 106.964844 160.082031 107.101562 C 158.40625 107.308594 156.660156 108.539062 155.675781 109.527344 C 155.238281 109.972656 154.792969 110.652344 154.460938 111.332031 L 152.9375 109.804688 C 150.429688 107.292969 147.535156 104.394531 145.695312 102.515625 C 143.515625 100.28125 140.820312 99.667969 137.898438 100.730469 C 135.066406 101.761719 133.332031 103.828125 132.738281 106.871094 C 132.382812 108.710938 132.65625 110.367188 133.5625 111.890625 L 81.613281 111.890625 C 71.136719 111.890625 62.609375 103.328125 62.609375 92.804688 Z M 81.613281 124.171875 C 71.523438 124.171875 63.25 116.230469 62.648438 106.246094 C 66.859375 112.21875 73.789062 116.132812 81.613281 116.132812 L 137.429688 116.132812 C 139.546875 118.257812 142.5625 121.296875 145.410156 124.171875 Z M 197.714844 135.015625 C 197.605469 135.289062 197.410156 135.546875 197.203125 135.757812 C 193.074219 139.917969 188.929688 144.070312 184.800781 148.230469 C 183.675781 149.363281 182.300781 149.949219 180.757812 150.15625 C 180.128906 150.242188 179.488281 150.257812 178.855469 150.242188 C 175.140625 150.15625 171.574219 149.285156 168.070312 148.117188 C 164.808594 147.035156 161.554688 145.90625 158.292969 144.8125 C 155.945312 144.019531 153.601562 143.207031 151.230469 142.488281 C 150.03125 142.121094 148.753906 142.011719 147.550781 141.644531 C 146.722656 141.394531 145.867188 141.019531 145.203125 140.480469 C 144.296875 139.738281 144.007812 138.667969 144.394531 137.5 C 144.863281 136.078125 145.714844 135.054688 147.3125 135.007812 C 149.339844 134.953125 151.371094 134.980469 153.398438 134.964844 C 154.96875 134.953125 156.535156 134.933594 158.105469 134.917969 C 158.941406 134.90625 159.5 134.457031 159.808594 133.726562 C 160.117188 133 159.828125 132.410156 159.289062 131.875 C 158.136719 130.722656 156.984375 129.566406 155.835938 128.414062 C 154.425781 127 153.015625 125.585938 151.609375 124.171875 C 150.625 123.183594 149.640625 122.191406 148.652344 121.203125 C 146.96875 119.511719 145.285156 117.820312 143.597656 116.128906 C 142.253906 114.777344 140.90625 113.421875 139.5625 112.070312 C 139.070312 111.570312 138.574219 111.074219 138.078125 110.574219 C 136.320312 108.800781 136.558594 106.363281 138.585938 105.109375 C 139.921875 104.28125 141.4375 104.453125 142.554688 105.574219 C 147.015625 110.050781 151.476562 114.535156 155.9375 119.011719 C 156.78125 119.863281 157.339844 119.96875 158.226562 119.46875 C 159.214844 118.914062 159.429688 117.820312 158.613281 116.882812 C 158.402344 116.640625 158.242188 116.386719 158.117188 116.125 C 157.980469 115.828125 157.898438 115.527344 157.859375 115.222656 C 157.859375 115.207031 157.855469 115.195312 157.851562 115.179688 C 157.84375 115.09375 157.839844 115.003906 157.835938 114.917969 C 157.835938 114.894531 157.835938 114.871094 157.835938 114.84375 C 157.835938 114.761719 157.839844 114.675781 157.84375 114.59375 C 157.847656 114.570312 157.847656 114.542969 157.851562 114.519531 C 157.859375 114.433594 157.871094 114.347656 157.886719 114.265625 C 157.886719 114.25 157.890625 114.234375 157.894531 114.21875 C 157.96875 113.835938 158.105469 113.472656 158.292969 113.132812 C 158.304688 113.117188 158.3125 113.101562 158.324219 113.082031 C 158.367188 113.011719 158.410156 112.9375 158.457031 112.871094 C 158.472656 112.851562 158.484375 112.828125 158.496094 112.8125 C 158.546875 112.742188 158.59375 112.675781 158.648438 112.609375 C 158.660156 112.59375 158.671875 112.578125 158.6875 112.5625 C 158.742188 112.496094 158.800781 112.429688 158.859375 112.367188 C 158.863281 112.367188 158.863281 112.367188 158.863281 112.363281 C 159.070312 112.148438 159.304688 111.960938 159.550781 111.808594 C 159.574219 111.796875 159.59375 111.777344 159.617188 111.765625 C 160.347656 111.351562 161.222656 111.238281 162.039062 111.410156 C 162.183594 111.441406 162.328125 111.484375 162.46875 111.535156 C 162.484375 111.539062 162.503906 111.542969 162.519531 111.550781 C 162.65625 111.601562 162.785156 111.65625 162.910156 111.722656 C 162.933594 111.734375 162.953125 111.746094 162.976562 111.757812 C 163.101562 111.824219 163.21875 111.898438 163.335938 111.980469 C 163.351562 111.992188 163.367188 112.007812 163.386719 112.019531 C 163.503906 112.109375 163.617188 112.203125 163.722656 112.308594 C 164.320312 112.902344 164.910156 113.503906 165.503906 114.097656 C 165.609375 114.199219 165.714844 114.289062 165.820312 114.371094 C 166.574219 114.945312 167.382812 114.960938 168 114.394531 C 168.328125 114.089844 168.515625 113.71875 168.535156 113.320312 C 168.535156 113.320312 168.535156 113.316406 168.535156 113.316406 C 168.546875 113.128906 168.519531 112.9375 168.453125 112.742188 C 168.449219 112.734375 168.445312 112.726562 168.445312 112.722656 C 168.425781 112.667969 168.402344 112.613281 168.378906 112.5625 C 168.371094 112.542969 168.363281 112.527344 168.355469 112.511719 C 168.332031 112.464844 168.308594 112.421875 168.28125 112.378906 C 168.269531 112.359375 168.257812 112.339844 168.246094 112.320312 C 168.214844 112.273438 168.1875 112.230469 168.152344 112.1875 C 168.140625 112.171875 168.128906 112.152344 168.113281 112.132812 C 168.066406 112.074219 168.015625 112.011719 167.960938 111.953125 C 167.886719 111.871094 167.816406 111.785156 167.757812 111.695312 C 167.738281 111.664062 167.722656 111.632812 167.707031 111.605469 C 167.667969 111.539062 167.628906 111.472656 167.597656 111.40625 C 167.582031 111.371094 167.566406 111.332031 167.554688 111.296875 C 167.523438 111.230469 167.5 111.160156 167.476562 111.089844 C 167.464844 111.054688 167.457031 111.015625 167.445312 110.980469 C 167.425781 110.90625 167.410156 110.832031 167.394531 110.753906 C 167.386719 110.71875 167.382812 110.6875 167.378906 110.652344 C 167.367188 110.566406 167.355469 110.484375 167.351562 110.398438 C 167.347656 110.371094 167.347656 110.339844 167.34375 110.3125 C 167.339844 110.21875 167.339844 110.125 167.339844 110.03125 C 167.34375 110.007812 167.34375 109.988281 167.34375 109.964844 C 167.347656 109.859375 167.355469 109.753906 167.371094 109.648438 C 167.371094 109.636719 167.371094 109.625 167.375 109.613281 C 167.390625 109.496094 167.410156 109.378906 167.433594 109.261719 C 167.605469 108.460938 167.988281 107.722656 168.472656 107.324219 C 169.332031 106.609375 170.253906 106.300781 171.140625 106.40625 C 171.183594 106.410156 171.222656 106.417969 171.265625 106.425781 C 171.316406 106.433594 171.367188 106.441406 171.417969 106.453125 C 171.464844 106.460938 171.507812 106.476562 171.550781 106.488281 C 171.597656 106.5 171.648438 106.511719 171.695312 106.527344 C 171.738281 106.542969 171.78125 106.558594 171.824219 106.574219 C 171.871094 106.59375 171.921875 106.613281 171.96875 106.632812 C 172.011719 106.652344 172.050781 106.671875 172.09375 106.691406 C 172.140625 106.714844 172.191406 106.738281 172.238281 106.765625 C 172.277344 106.789062 172.316406 106.8125 172.355469 106.832031 C 172.40625 106.863281 172.457031 106.898438 172.507812 106.933594 C 172.542969 106.957031 172.582031 106.980469 172.617188 107.003906 C 172.671875 107.046875 172.726562 107.089844 172.78125 107.132812 C 172.8125 107.15625 172.839844 107.179688 172.867188 107.203125 C 172.953125 107.273438 173.035156 107.351562 173.113281 107.429688 C 173.355469 107.671875 173.59375 107.914062 173.832031 108.160156 C 174.273438 108.609375 174.710938 109.054688 175.171875 109.480469 C 176.121094 110.359375 177.402344 110 177.890625 108.808594 C 178.214844 108.015625 177.890625 107.464844 177.429688 106.867188 C 177.222656 106.601562 177.070312 106.308594 176.957031 106.007812 C 176.859375 105.738281 176.800781 105.460938 176.777344 105.179688 C 176.777344 105.175781 176.777344 105.171875 176.777344 105.171875 C 176.757812 104.894531 176.773438 104.621094 176.824219 104.347656 C 176.828125 104.34375 176.828125 104.335938 176.828125 104.332031 C 176.855469 104.195312 176.890625 104.058594 176.9375 103.925781 C 176.941406 103.921875 176.941406 103.917969 176.945312 103.910156 C 176.988281 103.78125 177.042969 103.652344 177.101562 103.53125 C 177.105469 103.527344 177.105469 103.523438 177.109375 103.519531 C 177.167969 103.402344 177.234375 103.289062 177.308594 103.175781 C 177.324219 103.15625 177.339844 103.132812 177.355469 103.113281 C 177.433594 103.003906 177.515625 102.894531 177.605469 102.792969 C 177.71875 102.667969 177.839844 102.554688 177.960938 102.445312 C 177.980469 102.429688 178 102.414062 178.019531 102.394531 C 178.144531 102.292969 178.269531 102.195312 178.398438 102.109375 C 178.410156 102.101562 178.421875 102.09375 178.4375 102.085938 C 178.714844 101.90625 179.003906 101.769531 179.300781 101.675781 C 179.3125 101.671875 179.320312 101.667969 179.332031 101.667969 C 179.363281 101.65625 179.398438 101.648438 179.429688 101.636719 C 179.488281 101.621094 179.546875 101.609375 179.601562 101.597656 C 179.628906 101.589844 179.65625 101.585938 179.6875 101.578125 C 179.769531 101.566406 179.851562 101.554688 179.933594 101.546875 C 179.960938 101.542969 179.988281 101.542969 180.015625 101.539062 C 180.074219 101.535156 180.132812 101.53125 180.1875 101.53125 C 180.222656 101.53125 180.257812 101.53125 180.292969 101.53125 C 180.34375 101.535156 180.394531 101.535156 180.445312 101.539062 C 180.484375 101.542969 180.519531 101.546875 180.554688 101.550781 C 180.609375 101.554688 180.660156 101.5625 180.710938 101.570312 C 180.746094 101.574219 180.777344 101.582031 180.808594 101.585938 C 181.171875 101.65625 181.527344 101.796875 181.859375 102.003906 C 182.09375 102.148438 182.300781 102.351562 182.496094 102.546875 C 186.671875 106.734375 190.859375 110.914062 195.011719 115.125 C 197.125 117.265625 198.539062 119.835938 199.035156 122.804688 C 199.730469 126.976562 199.289062 131.070312 197.714844 135.015625 Z M 197.714844 135.015625 " fill-opacity="1" fill-rule="nonzero"/></g><path fill="rgb(100%, 100%, 100%)" d="M 199.03125 122.804688 C 198.539062 119.835938 197.125 117.265625 195.011719 115.125 C 190.859375 110.914062 186.671875 106.734375 182.496094 102.546875 C 182.300781 102.347656 182.09375 102.148438 181.859375 102.003906 C 180.488281 101.148438 178.808594 101.46875 177.605469 102.792969 C 176.566406 103.941406 176.472656 105.628906 177.433594 106.867188 C 177.890625 107.464844 178.214844 108.011719 177.890625 108.808594 C 177.402344 110 176.125 110.359375 175.175781 109.480469 C 174.460938 108.824219 173.800781 108.113281 173.113281 107.429688 C 171.746094 106.058594 170.011719 106.046875 168.472656 107.320312 C 167.40625 108.203125 166.8125 110.71875 167.960938 111.953125 C 168.757812 112.808594 168.695312 113.757812 168 114.390625 C 167.292969 115.039062 166.34375 114.929688 165.503906 114.097656 C 164.910156 113.503906 164.320312 112.902344 163.722656 112.308594 C 162.667969 111.25 160.910156 111.027344 159.617188 111.765625 C 158.035156 112.667969 157.0625 115.105469 158.613281 116.882812 C 159.429688 117.820312 159.214844 118.917969 158.226562 119.46875 C 157.339844 119.96875 156.785156 119.863281 155.9375 119.011719 C 151.476562 114.535156 147.015625 110.050781 142.554688 105.574219 C 141.4375 104.453125 139.921875 104.28125 138.585938 105.109375 C 136.558594 106.363281 136.320312 108.800781 138.078125 110.578125 C 141.597656 114.125 145.128906 117.660156 148.652344 121.203125 C 152.195312 124.761719 155.734375 128.324219 159.289062 131.875 C 159.828125 132.410156 160.117188 133 159.808594 133.726562 C 159.5 134.457031 158.941406 134.910156 158.105469 134.917969 C 156.535156 134.9375 154.964844 134.953125 153.398438 134.964844 C 151.371094 134.980469 149.339844 134.953125 147.3125 135.011719 C 145.714844 135.054688 144.863281 136.082031 144.394531 137.5 C 144.007812 138.667969 144.296875 139.742188 145.203125 140.480469 C 145.867188 141.019531 146.722656 141.394531 147.550781 141.648438 C 148.75 142.015625 150.03125 142.125 151.230469 142.488281 C 153.601562 143.210938 155.945312 144.023438 158.292969 144.8125 C 161.554688 145.910156 164.808594 147.035156 168.070312 148.121094 C 171.574219 149.285156 175.140625 150.15625 178.855469 150.242188 C 179.488281 150.257812 180.128906 150.242188 180.757812 150.160156 C 182.300781 149.949219 183.675781 149.363281 184.800781 148.230469 C 188.929688 144.070312 193.074219 139.921875 197.203125 135.757812 C 197.410156 135.546875 197.605469 135.289062 197.714844 135.015625 C 199.289062 131.070312 199.730469 126.976562 199.03125 122.804688 Z M 199.03125 122.804688 " fill-opacity="1" fill-rule="nonzero"/><path fill="rgb(100%, 100%, 100%)" d="M 71.148438 84.171875 C 69.980469 84.171875 69.035156 83.222656 69.035156 82.050781 L 69.035156 76.75 C 69.035156 75.578125 69.980469 74.628906 71.148438 74.628906 C 72.3125 74.628906 73.257812 75.578125 73.257812 76.75 L 73.257812 82.050781 C 73.257812 83.222656 72.3125 84.171875 71.148438 84.171875 Z M 73.257812 88.28125 C 73.257812 89.453125 72.3125 90.402344 71.148438 90.402344 C 69.980469 90.402344 69.035156 89.453125 69.035156 88.28125 C 69.035156 87.109375 69.980469 86.160156 71.148438 86.160156 C 72.3125 86.160156 73.257812 87.109375 73.257812 88.28125 Z M 73.257812 88.28125 " fill-opacity="1" fill-rule="nonzero"/></svg>