<svg xmlns="http://www.w3.org/2000/svg" xmlns:xlink="http://www.w3.org/1999/xlink" width="350" zoomAndPan="magnify" viewBox="0 0 262.5 202.499994" height="270" preserveAspectRatio="xMidYMid meet" version="1.0"><defs><g><g id="id1"/></g><clipPath id="id2"><path d="M 78.78125 100 L 156 100 L 156 178 L 78.78125 178 Z M 78.78125 100 " clip-rule="nonzero"/></clipPath></defs><path fill="rgb(48.239136%, 47.44873%, 47.44873%)" d="M 139.511719 145.824219 C 132.339844 145.992188 126.445312 142.601562 126.238281 138.113281 C 126.039062 133.878906 130.96875 130.148438 137.535156 129.316406 C 139.285156 132.480469 140.285156 136.128906 140.285156 140.003906 C 140.285156 142.019531 140.015625 143.972656 139.511719 145.824219 Z M 119.578125 162.050781 C 116.996094 155.273438 118.25 148.496094 122.445312 146.816406 C 126.425781 145.222656 131.644531 148.773438 134.5625 154.851562 C 130.808594 158.988281 125.507812 161.695312 119.578125 162.050781 Z M 97.875 148.519531 C 103.355469 143.859375 110.082031 142.78125 113.066406 146.144531 C 115.917969 149.363281 114.332031 155.511719 109.574219 160.328125 C 104.300781 158.070312 100.085938 153.820312 97.875 148.519531 Z M 104.714844 122.550781 C 110.488281 126.628906 113.195312 132.742188 110.761719 136.460938 C 108.433594 140.019531 102.21875 140.136719 96.390625 136.917969 C 97.203125 131.09375 100.285156 125.996094 104.714844 122.550781 Z M 118.230469 117.917969 C 122.527344 117.917969 126.535156 119.148438 129.925781 121.277344 C 128.207031 127.90625 123.667969 132.460938 119.417969 131.609375 C 115.246094 130.773438 112.816406 125.023438 113.636719 118.398438 C 115.117188 118.082031 116.652344 117.917969 118.230469 117.917969 Z M 118.230469 135.019531 C 120.980469 135.019531 123.207031 137.253906 123.207031 140.003906 C 123.207031 142.757812 120.980469 144.992188 118.230469 144.992188 C 115.480469 144.992188 113.253906 142.757812 113.253906 140.003906 C 113.253906 137.253906 115.480469 135.019531 118.230469 135.019531 Z M 118.230469 101.460938 C 96.976562 101.460938 79.746094 118.71875 79.746094 140.003906 C 79.746094 161.292969 96.976562 178.550781 118.230469 178.550781 C 139.484375 178.550781 156.714844 161.292969 156.714844 140.003906 C 156.714844 118.71875 139.484375 101.460938 118.230469 101.460938 " fill-opacity="1" fill-rule="evenodd"/><g clip-path="url(#id2)"><path fill="rgb(13.729858%, 12.159729%, 12.548828%)" d="M 138.550781 145.039062 C 131.378906 145.207031 125.484375 141.816406 125.277344 137.324219 C 125.082031 133.09375 130.011719 129.363281 136.574219 128.53125 C 138.328125 131.699219 139.328125 135.34375 139.328125 139.21875 C 139.328125 141.234375 139.054688 143.1875 138.550781 145.039062 Z M 118.621094 161.265625 C 116.039062 154.488281 117.292969 147.710938 121.488281 146.03125 C 125.46875 144.4375 130.6875 147.988281 133.601562 154.066406 C 129.851562 158.207031 124.550781 160.910156 118.621094 161.265625 Z M 96.917969 147.734375 C 102.394531 143.074219 109.125 141.992188 112.105469 145.359375 C 114.960938 148.578125 113.371094 154.726562 108.617188 159.542969 C 103.34375 157.285156 99.128906 153.035156 96.917969 147.734375 Z M 103.753906 121.765625 C 109.53125 125.84375 112.234375 131.957031 109.804688 135.675781 C 107.476562 139.234375 101.257812 139.351562 95.433594 136.132812 C 96.246094 130.308594 99.328125 125.210938 103.753906 121.765625 Z M 117.273438 117.128906 C 121.570312 117.128906 125.578125 118.363281 128.96875 120.492188 C 127.246094 127.121094 122.707031 131.675781 118.457031 130.824219 C 114.285156 129.988281 111.859375 124.238281 112.675781 117.613281 C 114.160156 117.296875 115.699219 117.128906 117.273438 117.128906 Z M 117.273438 134.234375 C 120.023438 134.234375 122.25 136.46875 122.25 139.21875 C 122.25 141.972656 120.023438 144.207031 117.273438 144.207031 C 114.523438 144.207031 112.296875 141.972656 112.296875 139.21875 C 112.296875 136.46875 114.523438 134.234375 117.273438 134.234375 Z M 117.273438 100.675781 C 96.019531 100.675781 78.789062 117.933594 78.789062 139.21875 C 78.789062 160.507812 96.019531 177.765625 117.273438 177.765625 C 138.527344 177.765625 155.757812 160.507812 155.757812 139.21875 C 155.757812 117.933594 138.527344 100.675781 117.273438 100.675781 " fill-opacity="1" fill-rule="evenodd"/></g><path fill="rgb(22.349548%, 20.779419%, 21.179199%)" d="M 138.550781 145.039062 C 131.378906 145.207031 125.484375 141.816406 125.277344 137.324219 C 125.082031 133.09375 130.011719 129.363281 136.574219 128.53125 C 138.328125 131.699219 139.328125 135.34375 139.328125 139.21875 C 139.328125 141.234375 139.054688 143.1875 138.550781 145.039062 Z M 118.621094 161.265625 C 116.039062 154.488281 117.292969 147.710938 121.488281 146.03125 C 125.46875 144.4375 130.6875 147.988281 133.601562 154.066406 C 129.851562 158.207031 124.550781 160.910156 118.621094 161.265625 Z M 96.917969 147.734375 C 102.394531 143.074219 109.125 141.992188 112.105469 145.359375 C 114.960938 148.578125 113.371094 154.726562 108.617188 159.542969 C 103.34375 157.285156 99.128906 153.035156 96.917969 147.734375 Z M 103.753906 121.765625 C 109.53125 125.84375 112.234375 131.957031 109.804688 135.675781 C 107.476562 139.234375 101.257812 139.351562 95.433594 136.132812 C 96.246094 130.308594 99.328125 125.210938 103.753906 121.765625 Z M 117.273438 117.128906 C 121.570312 117.128906 125.578125 118.363281 128.96875 120.492188 C 127.246094 127.121094 122.707031 131.675781 118.457031 130.824219 C 114.285156 129.988281 111.859375 124.238281 112.675781 117.613281 C 114.160156 117.296875 115.699219 117.128906 117.273438 117.128906 Z M 117.273438 134.234375 C 120.023438 134.234375 122.25 136.46875 122.25 139.21875 C 122.25 141.972656 120.023438 144.207031 117.273438 144.207031 C 114.523438 144.207031 112.296875 141.972656 112.296875 139.21875 C 112.296875 136.46875 114.523438 134.234375 117.273438 134.234375 Z M 117.273438 108.890625 C 100.546875 108.890625 86.988281 122.46875 86.988281 139.21875 C 86.988281 155.972656 100.546875 169.550781 117.273438 169.550781 C 134 169.550781 147.558594 155.972656 147.558594 139.21875 C 147.558594 122.46875 134 108.890625 117.273438 108.890625 " fill-opacity="1" fill-rule="evenodd"/><path fill="rgb(100%, 100%, 100%)" d="M 117.273438 114.761719 C 130.761719 114.761719 141.691406 125.710938 141.691406 139.21875 C 141.691406 152.726562 130.761719 163.679688 117.273438 163.679688 C 103.785156 163.679688 92.851562 152.726562 92.851562 139.21875 C 92.851562 125.710938 103.785156 114.761719 117.273438 114.761719 Z M 117.273438 111.683594 C 102.089844 111.683594 89.78125 124.011719 89.78125 139.21875 C 89.78125 154.429688 102.089844 166.753906 117.273438 166.753906 C 132.457031 166.753906 144.765625 154.429688 144.765625 139.21875 C 144.765625 124.011719 132.457031 111.683594 117.273438 111.683594 " fill-opacity="1" fill-rule="evenodd"/><path fill="rgb(97.648621%, 64.709473%, 5.099487%)" d="M 126.480469 178.949219 C 131.035156 179.640625 154.28125 182.308594 169.6875 167.859375 C 186.828125 151.777344 184.382812 150.6875 194.992188 147.960938 C 205.605469 145.234375 213.769531 152.59375 213.769531 152.59375 C 213.769531 152.59375 211.867188 146.871094 202.886719 143.601562 C 196.144531 141.144531 189.558594 142.222656 183.121094 143.257812 C 170.621094 145.269531 167.453125 130.875 186.082031 134.699219 C 189.632812 135.429688 193.511719 136.160156 196.628906 135.96875 C 206.335938 135.382812 222.226562 132.375 226.5625 121.523438 C 226.5625 121.523438 224.109375 125.613281 210.507812 125.613281 C 196.898438 125.613281 192.546875 123.703125 185.46875 123.703125 C 178.394531 123.703125 176.738281 117.117188 189.824219 121.117188 C 213.023438 128.210938 208.957031 106.804688 230.867188 109.367188 C 237.195312 110.105469 242.207031 117.183594 241.527344 115.253906 C 237.910156 105.027344 226.917969 101.632812 218.957031 102.570312 C 215.03125 103.035156 211.425781 104.464844 208.066406 105.875 C 192.980469 112.199219 174.597656 106.070312 167.421875 101.957031 C 155.066406 94.875 185.710938 107.660156 196.628906 94.542969 C 196.628906 94.542969 180.300781 97.269531 169.144531 93.726562 C 158 90.1875 128.398438 77.40625 107.449219 99.640625 C 110.59375 98.859375 113.882812 98.441406 117.273438 98.441406 C 139.757812 98.441406 157.988281 116.699219 157.988281 139.21875 C 157.988281 158.570312 144.53125 174.769531 126.480469 178.949219 " fill-opacity="1" fill-rule="evenodd"/><path fill="rgb(96.078491%, 49.798584%, 7.449341%)" d="M 111.757812 98.816406 C 113.5625 98.570312 115.402344 98.441406 117.273438 98.441406 C 139.757812 98.441406 157.988281 116.699219 157.988281 139.21875 C 157.988281 154.941406 149.105469 168.582031 136.09375 175.386719 C 138.359375 176.042969 140.332031 176.492188 141.421875 176.46875 C 145.257812 176.378906 154.402344 175.507812 163.113281 169.925781 C 171.820312 164.34375 176.527344 157.363281 185.0625 151.082031 C 193.597656 144.800781 199.519531 145.0625 199.519531 145.0625 C 199.519531 145.0625 199.519531 145.0625 193.25 144.363281 C 186.976562 143.664062 184.015625 146.371094 176.699219 147.070312 C 169.382812 147.765625 165.464844 141.746094 168.597656 134.941406 C 171.734375 128.136719 185.496094 132.761719 198.039062 133.460938 C 210.582031 134.15625 218.074219 127.003906 218.074219 127.003906 C 218.074219 127.003906 211.890625 129.707031 201.351562 128.75 C 190.8125 127.789062 190.199219 127.613281 181.054688 126.828125 C 171.910156 126.042969 171.910156 120.636719 175.566406 118.105469 C 179.226562 115.574219 179.921875 115.835938 188.632812 117.757812 C 197.34375 119.675781 205.792969 115.574219 208.925781 112.433594 C 212.0625 109.292969 219.730469 106.414062 219.730469 106.414062 C 219.730469 106.414062 215.722656 104.582031 208.753906 108.070312 C 201.785156 111.5625 200.042969 112.519531 180.007812 109.640625 C 171.367188 108.398438 139.222656 95.59375 170.425781 99 C 179.226562 99.960938 185.410156 97.691406 185.410156 97.691406 C 185.410156 97.691406 184.710938 97.691406 174.957031 97.082031 C 165.203125 96.46875 165.203125 93.589844 148.828125 90.015625 C 138.757812 87.8125 121.796875 91.75 111.757812 98.816406 " fill-opacity="1" fill-rule="evenodd"/><path fill="rgb(95.689392%, 41.958618%, 9.01947%)" d="M 120.777344 98.59375 C 141.621094 100.375 157.988281 117.882812 157.988281 139.21875 C 157.988281 152.152344 151.976562 163.671875 142.605469 171.144531 C 148.089844 171.414062 153.261719 169.621094 160.238281 165.914062 C 173.042969 159.109375 182.539062 146.980469 182.539062 146.980469 C 182.539062 146.980469 175.480469 150.382812 167.816406 149.074219 C 160.152344 147.765625 161.023438 136.949219 163.808594 132.675781 C 166.597656 128.398438 179.664062 127.789062 176.089844 127.179688 C 172.519531 126.566406 165.03125 125.609375 169.734375 118.714844 C 174.4375 111.824219 190.984375 113.917969 187.066406 113.308594 C 183.148438 112.695312 174.175781 110.691406 168.078125 109.46875 C 161.980469 108.246094 153.617188 107.113281 150.746094 100.832031 C 147.871094 94.550781 164.769531 95.945312 164.769531 95.945312 C 164.769531 95.945312 159.28125 94.464844 146.039062 92.023438 C 134.410156 89.875 127.484375 94.058594 120.777344 98.59375 " fill-opacity="1" fill-rule="evenodd"/><path fill="rgb(100%, 100%, 100%)" d="M 124.332031 102.867188 C 121.492188 102.867188 118.585938 103.152344 115.683594 103.601562 C 104.921875 105.273438 98.832031 108.1875 92.824219 113.875 C 86.160156 120.1875 81.964844 129.546875 81.828125 140.027344 C 81.742188 146.328125 83.3125 151.757812 83.304688 151.757812 C 82.652344 151.769531 80.742188 145.980469 80.6875 140.816406 C 80.480469 121.230469 93.003906 105.015625 113.015625 102.773438 C 116.363281 102.398438 120.121094 102.382812 124.332031 102.867188 " fill-opacity="1" fill-rule="evenodd"/><g fill="rgb(97.648621%, 63.919067%, 4.708862%)" fill-opacity="1"><g transform="translate(23.395069, 42.883155)"><g><path d="M 0.21875 -17.6875 L 0.21875 -22.109375 L 15.75 -22.109375 L 15.75 -17.6875 L 10.5 -17.6875 L 10.5 0 L 5.46875 0 L 5.46875 -17.6875 Z M 0.21875 -17.6875 "/></g></g></g><g fill="rgb(97.648621%, 63.919067%, 4.708862%)" fill-opacity="1"><g transform="translate(40.699109, 42.883155)"><g><path d="M 6.640625 -22.109375 L 6.640625 0 L 1.609375 0 L 1.609375 -22.109375 Z M 6.640625 -22.109375 "/></g></g></g><g fill="rgb(97.648621%, 63.919067%, 4.708862%)" fill-opacity="1"><g transform="translate(50.288857, 42.883155)"><g><path d="M 1.609375 -22.109375 L 9.671875 -22.109375 C 11.921875 -22.109375 13.742188 -21.523438 15.140625 -20.359375 C 16.535156 -19.203125 17.234375 -17.515625 17.234375 -15.296875 C 17.234375 -13.085938 16.523438 -11.351562 15.109375 -10.09375 C 13.703125 -8.832031 11.890625 -8.203125 9.671875 -8.203125 L 6.640625 -8.203125 L 6.640625 0 L 1.609375 0 Z M 6.640625 -12.21875 L 8.0625 -12.21875 C 9.1875 -12.21875 10.109375 -12.445312 10.828125 -12.90625 C 11.554688 -13.363281 11.921875 -14.109375 11.921875 -15.140625 C 11.921875 -16.191406 11.554688 -16.945312 10.828125 -17.40625 C 10.109375 -17.863281 9.1875 -18.09375 8.0625 -18.09375 L 6.640625 -18.09375 Z M 6.640625 -12.21875 "/></g></g></g><g fill="rgb(97.648621%, 63.919067%, 4.708862%)" fill-opacity="1"><g transform="translate(69.467895, 42.883155)"><g><path d="M 9.75 -22.515625 C 10.945312 -22.515625 12.117188 -22.335938 13.265625 -21.984375 C 14.410156 -21.640625 15.257812 -21.296875 15.8125 -20.953125 L 16.609375 -20.421875 L 14.578125 -16.40625 C 14.421875 -16.507812 14.195312 -16.644531 13.90625 -16.8125 C 13.625 -16.976562 13.085938 -17.203125 12.296875 -17.484375 C 11.515625 -17.773438 10.785156 -17.921875 10.109375 -17.921875 C 9.265625 -17.921875 8.613281 -17.742188 8.15625 -17.390625 C 7.695312 -17.035156 7.46875 -16.550781 7.46875 -15.9375 C 7.46875 -15.632812 7.578125 -15.351562 7.796875 -15.09375 C 8.015625 -14.84375 8.378906 -14.566406 8.890625 -14.265625 C 9.410156 -13.972656 9.867188 -13.738281 10.265625 -13.5625 C 10.660156 -13.382812 11.265625 -13.113281 12.078125 -12.75 C 13.515625 -12.144531 14.734375 -11.316406 15.734375 -10.265625 C 16.742188 -9.222656 17.25 -8.039062 17.25 -6.71875 C 17.25 -5.457031 17.019531 -4.351562 16.5625 -3.40625 C 16.113281 -2.457031 15.488281 -1.710938 14.6875 -1.171875 C 13.894531 -0.640625 13.015625 -0.242188 12.046875 0.015625 C 11.085938 0.273438 10.046875 0.40625 8.921875 0.40625 C 7.953125 0.40625 7.003906 0.304688 6.078125 0.109375 C 5.148438 -0.0859375 4.375 -0.332031 3.75 -0.625 C 3.125 -0.925781 2.5625 -1.21875 2.0625 -1.5 C 1.5625 -1.78125 1.195312 -2.019531 0.96875 -2.21875 L 0.609375 -2.515625 L 3.140625 -6.75 C 3.347656 -6.570312 3.640625 -6.34375 4.015625 -6.0625 C 4.390625 -5.789062 5.054688 -5.421875 6.015625 -4.953125 C 6.972656 -4.492188 7.816406 -4.265625 8.546875 -4.265625 C 10.671875 -4.265625 11.734375 -4.988281 11.734375 -6.4375 C 11.734375 -6.738281 11.65625 -7.015625 11.5 -7.265625 C 11.351562 -7.523438 11.085938 -7.785156 10.703125 -8.046875 C 10.316406 -8.304688 9.976562 -8.507812 9.6875 -8.65625 C 9.394531 -8.8125 8.910156 -9.046875 8.234375 -9.359375 C 7.566406 -9.671875 7.070312 -9.910156 6.75 -10.078125 C 5.414062 -10.734375 4.378906 -11.554688 3.640625 -12.546875 C 2.910156 -13.546875 2.546875 -14.613281 2.546875 -15.75 C 2.546875 -17.738281 3.273438 -19.363281 4.734375 -20.625 C 6.203125 -21.882812 7.875 -22.515625 9.75 -22.515625 Z M 9.75 -22.515625 "/></g></g></g><g fill="rgb(97.648621%, 63.919067%, 4.708862%)" fill-opacity="1"><g transform="translate(88.807653, 42.883155)"><g/></g></g><g fill="rgb(97.648621%, 63.919067%, 4.708862%)" fill-opacity="1"><g transform="translate(97.459901, 42.883155)"><g><path d="M 0.78125 -5.8125 C 0.78125 -6.476562 0.929688 -7.113281 1.234375 -7.71875 C 1.535156 -8.320312 1.960938 -8.875 2.515625 -9.375 C 3.066406 -9.875 3.628906 -10.3125 4.203125 -10.6875 C 4.773438 -11.0625 5.425781 -11.445312 6.15625 -11.84375 C 4.675781 -13.695312 3.9375 -15.332031 3.9375 -16.75 C 3.9375 -18.5 4.546875 -19.894531 5.765625 -20.9375 C 6.992188 -21.988281 8.734375 -22.515625 10.984375 -22.515625 C 13.054688 -22.515625 14.664062 -21.929688 15.8125 -20.765625 C 16.96875 -19.609375 17.546875 -18.269531 17.546875 -16.75 C 17.546875 -16.125 17.394531 -15.507812 17.09375 -14.90625 C 16.789062 -14.3125 16.425781 -13.800781 16 -13.375 C 15.582031 -12.957031 15.160156 -12.585938 14.734375 -12.265625 C 14.304688 -11.953125 13.941406 -11.710938 13.640625 -11.546875 L 13.1875 -11.3125 L 16.125 -8.25 C 16.769531 -8.539062 17.851562 -9.472656 19.375 -11.046875 L 22.484375 -7.984375 C 21.484375 -6.835938 20.4375 -5.828125 19.34375 -4.953125 L 24.109375 0 L 17.765625 0 L 15.5625 -2.28125 C 14.882812 -1.789062 14.382812 -1.441406 14.0625 -1.234375 C 13.75 -1.035156 13.273438 -0.773438 12.640625 -0.453125 C 12.003906 -0.128906 11.347656 0.09375 10.671875 0.21875 C 10.003906 0.34375 9.269531 0.40625 8.46875 0.40625 C 7.769531 0.40625 7.082031 0.34375 6.40625 0.21875 C 5.726562 0.101562 5.046875 -0.0976562 4.359375 -0.390625 C 3.671875 -0.679688 3.066406 -1.050781 2.546875 -1.5 C 2.023438 -1.945312 1.597656 -2.539062 1.265625 -3.28125 C 0.941406 -4.019531 0.78125 -4.863281 0.78125 -5.8125 Z M 10.984375 -18.953125 C 10.335938 -18.953125 9.851562 -18.742188 9.53125 -18.328125 C 9.21875 -17.921875 9.0625 -17.394531 9.0625 -16.75 C 9.0625 -16.375 9.191406 -15.957031 9.453125 -15.5 C 9.722656 -15.039062 9.992188 -14.679688 10.265625 -14.421875 L 10.671875 -14.046875 C 12.304688 -14.929688 13.125 -15.832031 13.125 -16.75 C 13.125 -18.21875 12.410156 -18.953125 10.984375 -18.953125 Z M 12.296875 -5.625 L 8.796875 -9.078125 C 8.734375 -9.066406 8.648438 -9.035156 8.546875 -8.984375 C 8.441406 -8.941406 8.253906 -8.835938 7.984375 -8.671875 C 7.710938 -8.503906 7.476562 -8.316406 7.28125 -8.109375 C 7.09375 -7.898438 6.910156 -7.625 6.734375 -7.28125 C 6.566406 -6.945312 6.484375 -6.59375 6.484375 -6.21875 C 6.484375 -5.625 6.734375 -5.164062 7.234375 -4.84375 C 7.734375 -4.53125 8.316406 -4.375 8.984375 -4.375 C 9.515625 -4.375 10.054688 -4.472656 10.609375 -4.671875 C 11.160156 -4.878906 11.582031 -5.09375 11.875 -5.3125 Z M 12.296875 -5.625 "/></g></g></g><g fill="rgb(97.648621%, 63.919067%, 4.708862%)" fill-opacity="1"><g transform="translate(121.11216, 42.883155)"><g/></g></g><g fill="rgb(97.648621%, 63.919067%, 4.708862%)" fill-opacity="1"><g transform="translate(129.764409, 42.883155)"><g><path d="M 0.21875 -17.6875 L 0.21875 -22.109375 L 15.75 -22.109375 L 15.75 -17.6875 L 10.5 -17.6875 L 10.5 0 L 5.46875 0 L 5.46875 -17.6875 Z M 0.21875 -17.6875 "/></g></g></g><g fill="rgb(97.648621%, 63.919067%, 4.708862%)" fill-opacity="1"><g transform="translate(147.068448, 42.883155)"><g><path d="M 1.609375 -22.109375 L 9.515625 -22.109375 C 11.640625 -22.109375 13.367188 -21.539062 14.703125 -20.40625 C 16.046875 -19.269531 16.71875 -17.648438 16.71875 -15.546875 C 16.71875 -13.921875 16.3125 -12.554688 15.5 -11.453125 C 14.6875 -10.359375 13.582031 -9.585938 12.1875 -9.140625 L 19.796875 0 L 13.390625 0 L 6.640625 -8.734375 L 6.640625 0 L 1.609375 0 Z M 6.640625 -12.296875 L 7.234375 -12.296875 C 7.703125 -12.296875 8.09375 -12.304688 8.40625 -12.328125 C 8.726562 -12.347656 9.09375 -12.410156 9.5 -12.515625 C 9.914062 -12.617188 10.25 -12.769531 10.5 -12.96875 C 10.75 -13.164062 10.960938 -13.453125 11.140625 -13.828125 C 11.328125 -14.203125 11.421875 -14.65625 11.421875 -15.1875 C 11.421875 -15.726562 11.328125 -16.1875 11.140625 -16.5625 C 10.960938 -16.9375 10.75 -17.222656 10.5 -17.421875 C 10.25 -17.617188 9.914062 -17.769531 9.5 -17.875 C 9.09375 -17.976562 8.726562 -18.039062 8.40625 -18.0625 C 8.09375 -18.082031 7.703125 -18.09375 7.234375 -18.09375 L 6.640625 -18.09375 Z M 6.640625 -12.296875 "/></g></g></g><g fill="rgb(97.648621%, 63.919067%, 4.708862%)" fill-opacity="1"><g transform="translate(167.586774, 42.883155)"><g><path d="M 6.640625 -22.109375 L 6.640625 0 L 1.609375 0 L 1.609375 -22.109375 Z M 6.640625 -22.109375 "/></g></g></g><g fill="rgb(97.648621%, 63.919067%, 4.708862%)" fill-opacity="1"><g transform="translate(177.176521, 42.883155)"><g><path d="M 13.375 -4.5625 C 14.144531 -4.5625 14.890625 -4.675781 15.609375 -4.90625 C 16.328125 -5.132812 16.859375 -5.359375 17.203125 -5.578125 L 17.71875 -5.921875 L 19.859375 -1.640625 C 19.785156 -1.578125 19.6875 -1.5 19.5625 -1.40625 C 19.4375 -1.320312 19.144531 -1.160156 18.6875 -0.921875 C 18.226562 -0.679688 17.738281 -0.472656 17.21875 -0.296875 C 16.707031 -0.117188 16.03125 0.0390625 15.1875 0.1875 C 14.351562 0.332031 13.488281 0.40625 12.59375 0.40625 C 10.539062 0.40625 8.59375 -0.0976562 6.75 -1.109375 C 4.914062 -2.117188 3.429688 -3.507812 2.296875 -5.28125 C 1.171875 -7.050781 0.609375 -8.960938 0.609375 -11.015625 C 0.609375 -12.566406 0.9375 -14.054688 1.59375 -15.484375 C 2.257812 -16.910156 3.140625 -18.132812 4.234375 -19.15625 C 5.335938 -20.175781 6.625 -20.988281 8.09375 -21.59375 C 9.5625 -22.207031 11.0625 -22.515625 12.59375 -22.515625 C 14.019531 -22.515625 15.335938 -22.34375 16.546875 -22 C 17.753906 -21.65625 18.609375 -21.316406 19.109375 -20.984375 L 19.859375 -20.46875 L 17.71875 -16.1875 C 17.59375 -16.289062 17.40625 -16.414062 17.15625 -16.5625 C 16.90625 -16.71875 16.40625 -16.921875 15.65625 -17.171875 C 14.90625 -17.421875 14.144531 -17.546875 13.375 -17.546875 C 12.15625 -17.546875 11.0625 -17.347656 10.09375 -16.953125 C 9.132812 -16.566406 8.375 -16.050781 7.8125 -15.40625 C 7.25 -14.757812 6.816406 -14.066406 6.515625 -13.328125 C 6.222656 -12.585938 6.078125 -11.832031 6.078125 -11.0625 C 6.078125 -9.382812 6.707031 -7.878906 7.96875 -6.546875 C 9.226562 -5.222656 11.03125 -4.5625 13.375 -4.5625 Z M 13.375 -4.5625 "/></g></g></g><g fill="rgb(97.648621%, 63.919067%, 4.708862%)" fill-opacity="1"><g transform="translate(198.68592, 42.883155)"><g><path d="M 21.734375 0 L 14.796875 0 L 6.640625 -9.375 L 6.640625 0 L 1.609375 0 L 1.609375 -22.109375 L 6.640625 -22.109375 L 6.640625 -13.078125 L 14.234375 -22.109375 L 20.34375 -22.109375 L 11.4375 -11.625 Z M 21.734375 0 "/></g></g></g><g fill="rgb(97.648621%, 63.919067%, 4.708862%)" fill-opacity="1"><g transform="translate(221.10603, 42.883155)"><g><path d="M 9.75 -22.515625 C 10.945312 -22.515625 12.117188 -22.335938 13.265625 -21.984375 C 14.410156 -21.640625 15.257812 -21.296875 15.8125 -20.953125 L 16.609375 -20.421875 L 14.578125 -16.40625 C 14.421875 -16.507812 14.195312 -16.644531 13.90625 -16.8125 C 13.625 -16.976562 13.085938 -17.203125 12.296875 -17.484375 C 11.515625 -17.773438 10.785156 -17.921875 10.109375 -17.921875 C 9.265625 -17.921875 8.613281 -17.742188 8.15625 -17.390625 C 7.695312 -17.035156 7.46875 -16.550781 7.46875 -15.9375 C 7.46875 -15.632812 7.578125 -15.351562 7.796875 -15.09375 C 8.015625 -14.84375 8.378906 -14.566406 8.890625 -14.265625 C 9.410156 -13.972656 9.867188 -13.738281 10.265625 -13.5625 C 10.660156 -13.382812 11.265625 -13.113281 12.078125 -12.75 C 13.515625 -12.144531 14.734375 -11.316406 15.734375 -10.265625 C 16.742188 -9.222656 17.25 -8.039062 17.25 -6.71875 C 17.25 -5.457031 17.019531 -4.351562 16.5625 -3.40625 C 16.113281 -2.457031 15.488281 -1.710938 14.6875 -1.171875 C 13.894531 -0.640625 13.015625 -0.242188 12.046875 0.015625 C 11.085938 0.273438 10.046875 0.40625 8.921875 0.40625 C 7.953125 0.40625 7.003906 0.304688 6.078125 0.109375 C 5.148438 -0.0859375 4.375 -0.332031 3.75 -0.625 C 3.125 -0.925781 2.5625 -1.21875 2.0625 -1.5 C 1.5625 -1.78125 1.195312 -2.019531 0.96875 -2.21875 L 0.609375 -2.515625 L 3.140625 -6.75 C 3.347656 -6.570312 3.640625 -6.34375 4.015625 -6.0625 C 4.390625 -5.789062 5.054688 -5.421875 6.015625 -4.953125 C 6.972656 -4.492188 7.816406 -4.265625 8.546875 -4.265625 C 10.671875 -4.265625 11.734375 -4.988281 11.734375 -6.4375 C 11.734375 -6.738281 11.65625 -7.015625 11.5 -7.265625 C 11.351562 -7.523438 11.085938 -7.785156 10.703125 -8.046875 C 10.316406 -8.304688 9.976562 -8.507812 9.6875 -8.65625 C 9.394531 -8.8125 8.910156 -9.046875 8.234375 -9.359375 C 7.566406 -9.671875 7.070312 -9.910156 6.75 -10.078125 C 5.414062 -10.734375 4.378906 -11.554688 3.640625 -12.546875 C 2.910156 -13.546875 2.546875 -14.613281 2.546875 -15.75 C 2.546875 -17.738281 3.273438 -19.363281 4.734375 -20.625 C 6.203125 -21.882812 7.875 -22.515625 9.75 -22.515625 Z M 9.75 -22.515625 "/></g></g></g></svg>